<?xml version="1.0" encoding="UTF-8"?>
<svg id="Layer_2" data-name="Layer 2" xmlns="http://www.w3.org/2000/svg" viewBox="0 0 1761.56 465.82">
  <defs>
    <style>
      .cls-1 {
        fill: #ffdc55;
      }

      .cls-2 {
        fill: #fff76a;
      }

      .cls-3 {
        fill: #ffee1f;
      }

      .cls-4 {
        fill: #ffd91f;
      }
    </style>
  </defs>
  <g id="Baggrund">
    <g id="stjerner">
      <g id="Stjerner">
        <g>
          <polygon class="cls-3" points="238.49 164.39 240.62 172.77 248.99 174.89 240.62 177.02 238.49 185.39 236.37 177.02 227.99 174.89 236.37 172.77 238.49 164.39"/>
          <polygon class="cls-4" points="238.49 174.89 248.99 174.89 240.62 177.02 238.49 174.89"/>
          <polygon class="cls-4" points="238.49 164.39 238.49 174.89 240.62 172.77 238.49 164.39"/>
          <polygon class="cls-4" points="236.37 172.77 227.99 174.89 238.49 174.89 236.37 172.77"/>
          <polygon class="cls-4" points="236.37 177.02 238.49 185.39 238.49 174.89 236.37 177.02"/>
        </g>
        <g>
          <polygon class="cls-2" points="1693.8 227.23 1697.71 271.06 1732.55 275.98 1697.71 280.91 1693.8 324.73 1689.89 280.91 1655.05 275.98 1689.89 271.06 1693.8 227.23"/>
          <polygon class="cls-1" points="1693.8 275.98 1732.55 275.98 1697.71 280.91 1693.8 275.98"/>
          <polygon class="cls-1" points="1697.71 271.06 1693.8 227.23 1693.8 275.98 1697.71 271.06"/>
          <polygon class="cls-1" points="1689.89 271.06 1655.05 275.98 1693.8 275.98 1689.89 271.06"/>
          <polygon class="cls-1" points="1689.89 280.91 1693.8 324.73 1693.8 275.98 1689.89 280.91"/>
        </g>
        <g>
          <polygon class="cls-2" points="28.31 64.75 31.17 96.77 56.63 100.37 31.17 103.97 28.31 135.99 25.45 103.97 0 100.37 25.45 96.77 28.31 64.75"/>
          <polygon class="cls-1" points="28.31 100.37 56.63 100.37 31.17 103.97 28.31 100.37"/>
          <polygon class="cls-1" points="31.17 96.77 28.31 64.75 28.31 100.37 31.17 96.77"/>
          <polygon class="cls-1" points="25.45 96.77 0 100.37 28.31 100.37 25.45 96.77"/>
          <polygon class="cls-1" points="25.45 103.97 28.31 135.99 28.31 100.37 25.45 103.97"/>
        </g>
        <g>
          <polygon class="cls-3" points="1654.78 227.76 1657.56 238.76 1668.56 241.54 1657.56 244.33 1654.78 255.33 1651.99 244.33 1640.99 241.54 1651.99 238.76 1654.78 227.76"/>
          <polygon class="cls-4" points="1654.78 241.54 1668.56 241.54 1657.56 244.33 1654.78 241.54"/>
          <polygon class="cls-4" points="1654.78 227.76 1654.78 241.54 1657.56 238.76 1654.78 227.76"/>
          <polygon class="cls-4" points="1651.99 238.76 1640.99 241.54 1654.78 241.54 1651.99 238.76"/>
          <polygon class="cls-4" points="1651.99 244.33 1654.78 255.33 1654.78 241.54 1651.99 244.33"/>
        </g>
        <g>
          <polygon class="cls-2" points="1313.63 73.99 1316.42 105.15 1341.19 108.66 1316.42 112.16 1313.63 143.32 1310.85 112.16 1286.08 108.66 1310.85 105.15 1313.63 73.99"/>
          <polygon class="cls-1" points="1313.63 108.66 1341.19 108.66 1316.42 112.16 1313.63 108.66"/>
          <polygon class="cls-1" points="1316.42 105.15 1313.63 73.99 1313.63 108.66 1316.42 105.15"/>
          <polygon class="cls-1" points="1310.85 105.15 1286.08 108.66 1313.63 108.66 1310.85 105.15"/>
          <polygon class="cls-1" points="1310.85 112.16 1313.63 143.32 1313.63 108.66 1310.85 112.16"/>
        </g>
        <g>
          <polygon class="cls-3" points="88.9 123.54 91.7 134.63 102.8 137.44 91.7 140.25 88.9 151.34 86.09 140.25 74.99 137.44 86.09 134.63 88.9 123.54"/>
          <polygon class="cls-4" points="88.9 137.44 102.8 137.44 91.7 140.25 88.9 137.44"/>
          <polygon class="cls-4" points="88.9 123.54 88.9 137.44 91.7 134.63 88.9 123.54"/>
          <polygon class="cls-4" points="86.09 134.63 74.99 137.44 88.9 137.44 86.09 134.63"/>
          <polygon class="cls-4" points="86.09 140.25 88.9 151.34 88.9 137.44 86.09 140.25"/>
        </g>
        <g>
          <polygon class="cls-3" points="120.2 15.5 122.17 37.59 139.73 40.07 122.17 42.56 120.2 64.65 118.23 42.56 100.67 40.07 118.23 37.59 120.2 15.5"/>
          <polygon class="cls-4" points="120.2 40.07 139.73 40.07 122.17 42.56 120.2 40.07"/>
          <polygon class="cls-4" points="122.17 37.59 120.2 15.5 120.2 40.07 122.17 37.59"/>
          <polygon class="cls-4" points="118.23 37.59 100.67 40.07 120.2 40.07 118.23 37.59"/>
          <polygon class="cls-4" points="118.23 42.56 120.2 64.65 120.2 40.07 118.23 42.56"/>
        </g>
        <g>
          <polygon class="cls-3" points="336.05 418.34 337.27 423.17 342.1 424.39 337.27 425.62 336.05 430.45 334.83 425.62 329.99 424.39 334.83 423.17 336.05 418.34"/>
          <polygon class="cls-4" points="336.05 424.39 342.1 424.39 337.27 425.62 336.05 424.39"/>
          <polygon class="cls-4" points="336.05 418.34 336.05 424.39 337.27 423.17 336.05 418.34"/>
          <polygon class="cls-4" points="334.83 423.17 329.99 424.39 336.05 424.39 334.83 423.17"/>
          <polygon class="cls-4" points="334.83 425.62 336.05 430.45 336.05 424.39 334.83 425.62"/>
        </g>
        <g>
          <polygon class="cls-2" points="373.1 330.72 375.96 362.74 401.42 366.34 375.96 369.94 373.1 401.96 370.24 369.94 344.79 366.34 370.24 362.74 373.1 330.72"/>
          <polygon class="cls-1" points="373.1 366.34 401.42 366.34 375.96 369.94 373.1 366.34"/>
          <polygon class="cls-1" points="375.96 362.74 373.1 330.72 373.1 366.34 375.96 362.74"/>
          <polygon class="cls-1" points="370.24 362.74 344.79 366.34 373.1 366.34 370.24 362.74"/>
          <polygon class="cls-1" points="370.24 369.94 373.1 401.96 373.1 366.34 370.24 369.94"/>
        </g>
        <g>
          <polygon class="cls-2" points="1738.46 177.99 1740.42 199.91 1757.84 202.37 1740.42 204.83 1738.46 226.75 1736.5 204.83 1719.08 202.37 1736.5 199.91 1738.46 177.99"/>
          <polygon class="cls-1" points="1738.46 202.37 1757.84 202.37 1740.42 204.83 1738.46 202.37"/>
          <polygon class="cls-1" points="1740.42 199.91 1738.46 177.99 1738.46 202.37 1740.42 199.91"/>
          <polygon class="cls-1" points="1736.5 199.91 1719.08 202.37 1738.46 202.37 1736.5 199.91"/>
          <polygon class="cls-1" points="1736.5 204.83 1738.46 226.75 1738.46 202.37 1736.5 204.83"/>
        </g>
        <g>
          <polygon class="cls-3" points="1565.83 52 1570.08 68.75 1586.83 73 1570.08 77.24 1565.83 94 1561.59 77.24 1544.83 73 1561.59 68.75 1565.83 52"/>
          <polygon class="cls-4" points="1565.83 73 1586.83 73 1570.08 77.24 1565.83 73"/>
          <polygon class="cls-4" points="1565.83 52 1565.83 73 1570.08 68.75 1565.83 52"/>
          <polygon class="cls-4" points="1561.59 68.75 1544.83 73 1565.83 73 1561.59 68.75"/>
          <polygon class="cls-4" points="1561.59 77.24 1565.83 94 1565.83 73 1561.59 77.24"/>
        </g>
        <g>
          <polygon class="cls-2" points="1406.09 308.99 1407.77 327.74 1422.67 329.84 1407.77 331.95 1406.09 350.69 1404.42 331.95 1389.52 329.84 1404.42 327.74 1406.09 308.99"/>
          <polygon class="cls-1" points="1406.09 329.84 1422.67 329.84 1407.77 331.95 1406.09 329.84"/>
          <polygon class="cls-1" points="1407.77 327.74 1406.09 308.99 1406.09 329.84 1407.77 327.74"/>
          <polygon class="cls-1" points="1404.42 327.74 1389.52 329.84 1406.09 329.84 1404.42 327.74"/>
          <polygon class="cls-1" points="1404.42 331.95 1406.09 350.69 1406.09 329.84 1404.42 331.95"/>
        </g>
        <g>
          <polygon class="cls-2" points="1418.29 263.04 1419.72 279.05 1432.45 280.85 1419.72 282.65 1418.29 298.66 1416.86 282.65 1404.13 280.85 1416.86 279.05 1418.29 263.04"/>
          <polygon class="cls-1" points="1418.29 280.85 1432.45 280.85 1419.72 282.65 1418.29 280.85"/>
          <polygon class="cls-1" points="1419.72 279.05 1418.29 263.04 1418.29 280.85 1419.72 279.05"/>
          <polygon class="cls-1" points="1416.86 279.05 1404.13 280.85 1418.29 280.85 1416.86 279.05"/>
          <polygon class="cls-1" points="1416.86 282.65 1418.29 298.66 1418.29 280.85 1416.86 282.65"/>
        </g>
        <g>
          <polygon class="cls-2" points="329.83 88.99 332.17 115.19 352.99 118.14 332.17 121.08 329.83 147.28 327.49 121.08 306.66 118.14 327.49 115.19 329.83 88.99"/>
          <polygon class="cls-1" points="329.83 118.14 352.99 118.14 332.17 121.08 329.83 118.14"/>
          <polygon class="cls-1" points="332.17 115.19 329.83 88.99 329.83 118.14 332.17 115.19"/>
          <polygon class="cls-1" points="327.49 115.19 306.66 118.14 329.83 118.14 327.49 115.19"/>
          <polygon class="cls-1" points="327.49 121.08 329.83 147.28 329.83 118.14 327.49 121.08"/>
        </g>
        <g>
          <polygon class="cls-3" points="397.15 293.99 398.82 300.6 405.43 302.28 398.82 303.95 397.15 310.56 395.48 303.95 388.87 302.28 395.48 300.6 397.15 293.99"/>
          <polygon class="cls-4" points="397.15 302.28 405.43 302.28 398.82 303.95 397.15 302.28"/>
          <polygon class="cls-4" points="397.15 293.99 397.15 302.28 398.82 300.6 397.15 293.99"/>
          <polygon class="cls-4" points="395.48 300.6 388.87 302.28 397.15 302.28 395.48 300.6"/>
          <polygon class="cls-4" points="395.48 303.95 397.15 310.56 397.15 302.28 395.48 303.95"/>
        </g>
        <g>
          <polygon class="cls-2" points="102.95 304.37 105.81 336.39 131.27 339.99 105.81 343.59 102.95 375.61 100.09 343.59 74.64 339.99 100.09 336.39 102.95 304.37"/>
          <polygon class="cls-1" points="102.95 339.99 131.27 339.99 105.81 343.59 102.95 339.99"/>
          <polygon class="cls-1" points="105.81 336.39 102.95 304.37 102.95 339.99 105.81 336.39"/>
          <polygon class="cls-1" points="100.09 336.39 74.64 339.99 102.95 339.99 100.09 336.39"/>
          <polygon class="cls-1" points="100.09 343.59 102.95 375.61 102.95 339.99 100.09 343.59"/>
        </g>
        <g>
          <polygon class="cls-2" points="140.06 424.12 141.73 442.86 156.63 444.97 141.73 447.07 140.06 465.82 138.39 447.07 123.49 444.97 138.39 442.86 140.06 424.12"/>
          <polygon class="cls-1" points="140.06 444.97 156.63 444.97 141.73 447.07 140.06 444.97"/>
          <polygon class="cls-1" points="141.73 442.86 140.06 424.12 140.06 444.97 141.73 442.86"/>
          <polygon class="cls-1" points="138.39 442.86 123.49 444.97 140.06 444.97 138.39 442.86"/>
          <polygon class="cls-1" points="138.39 447.07 140.06 465.82 140.06 444.97 138.39 447.07"/>
        </g>
        <g>
          <polygon class="cls-2" points="20.26 281.16 21.69 297.17 34.42 298.97 21.69 300.77 20.26 316.79 18.83 300.77 6.1 298.97 18.83 297.17 20.26 281.16"/>
          <polygon class="cls-1" points="20.26 298.97 34.42 298.97 21.69 300.77 20.26 298.97"/>
          <polygon class="cls-1" points="21.69 297.17 20.26 281.16 20.26 298.97 21.69 297.17"/>
          <polygon class="cls-1" points="18.83 297.17 6.1 298.97 20.26 298.97 18.83 297.17"/>
          <polygon class="cls-1" points="18.83 300.77 20.26 316.79 20.26 298.97 18.83 300.77"/>
        </g>
        <g>
          <polygon class="cls-3" points="364.09 77.03 366.21 85.41 374.59 87.53 366.21 89.65 364.09 98.03 361.97 89.65 353.59 87.53 361.97 85.41 364.09 77.03"/>
          <polygon class="cls-4" points="364.09 87.53 374.59 87.53 366.21 89.65 364.09 87.53"/>
          <polygon class="cls-4" points="364.09 77.03 364.09 87.53 366.21 85.41 364.09 77.03"/>
          <polygon class="cls-4" points="361.97 85.41 353.59 87.53 364.09 87.53 361.97 85.41"/>
          <polygon class="cls-4" points="361.97 89.65 364.09 98.03 364.09 87.53 361.97 89.65"/>
        </g>
        <g>
          <polygon class="cls-3" points="306.21 46.34 307.07 49.7 310.43 50.56 307.07 51.41 306.21 54.77 305.36 51.41 301.99 50.56 305.36 49.7 306.21 46.34"/>
          <polygon class="cls-4" points="306.21 50.56 310.43 50.56 307.07 51.41 306.21 50.56"/>
          <polygon class="cls-4" points="306.21 46.34 306.21 50.56 307.07 49.7 306.21 46.34"/>
          <polygon class="cls-4" points="305.36 49.7 301.99 50.56 306.21 50.56 305.36 49.7"/>
          <polygon class="cls-4" points="305.36 51.41 306.21 54.77 306.21 50.56 305.36 51.41"/>
        </g>
        <g>
          <polygon class="cls-2" points="375.9 30.67 376.75 40.26 384.37 41.33 376.75 42.41 375.9 51.99 375.04 42.41 367.43 41.33 375.04 40.26 375.9 30.67"/>
          <polygon class="cls-1" points="375.9 41.33 384.37 41.33 376.75 42.41 375.9 41.33"/>
          <polygon class="cls-1" points="376.75 40.26 375.9 30.67 375.9 41.33 376.75 40.26"/>
          <polygon class="cls-1" points="375.04 40.26 367.43 41.33 375.9 41.33 375.04 40.26"/>
          <polygon class="cls-1" points="375.04 42.41 375.9 51.99 375.9 41.33 375.04 42.41"/>
        </g>
        <g>
          <polygon class="cls-3" points="1503.8 33.36 1505.92 41.74 1514.3 43.86 1505.92 45.98 1503.8 54.36 1501.68 45.98 1493.3 43.86 1501.68 41.74 1503.8 33.36"/>
          <polygon class="cls-4" points="1503.8 43.86 1514.3 43.86 1505.92 45.98 1503.8 43.86"/>
          <polygon class="cls-4" points="1503.8 33.36 1503.8 43.86 1505.92 41.74 1503.8 33.36"/>
          <polygon class="cls-4" points="1501.68 41.74 1493.3 43.86 1503.8 43.86 1501.68 41.74"/>
          <polygon class="cls-4" points="1501.68 45.98 1503.8 54.36 1503.8 43.86 1501.68 45.98"/>
        </g>
        <g>
          <polygon class="cls-3" points="1539.93 131.66 1540.78 135.03 1544.14 135.88 1540.78 136.74 1539.93 140.1 1539.07 136.74 1535.71 135.88 1539.07 135.03 1539.93 131.66"/>
          <polygon class="cls-4" points="1539.93 135.88 1544.14 135.88 1540.78 136.74 1539.93 135.88"/>
          <polygon class="cls-4" points="1539.93 131.66 1539.93 135.88 1540.78 135.03 1539.93 131.66"/>
          <polygon class="cls-4" points="1539.07 135.03 1535.71 135.88 1539.93 135.88 1539.07 135.03"/>
          <polygon class="cls-4" points="1539.07 136.74 1539.93 140.1 1539.93 135.88 1539.07 136.74"/>
        </g>
        <g>
          <polygon class="cls-2" points="1602.57 0 1604.53 21.97 1621.99 24.44 1604.53 26.91 1602.57 48.88 1600.6 26.91 1583.14 24.44 1600.6 21.97 1602.57 0"/>
          <polygon class="cls-1" points="1602.57 24.44 1621.99 24.44 1604.53 26.91 1602.57 24.44"/>
          <polygon class="cls-1" points="1604.53 21.97 1602.57 0 1602.57 24.44 1604.53 21.97"/>
          <polygon class="cls-1" points="1600.6 21.97 1583.14 24.44 1602.57 24.44 1600.6 21.97"/>
          <polygon class="cls-1" points="1600.6 26.91 1602.57 48.88 1602.57 24.44 1600.6 26.91"/>
        </g>
        <g>
          <polygon class="cls-3" points="1295.2 171.67 1296.06 175.03 1299.42 175.89 1296.06 176.74 1295.2 180.11 1294.35 176.74 1290.98 175.89 1294.35 175.03 1295.2 171.67"/>
          <polygon class="cls-4" points="1295.2 175.89 1299.42 175.89 1296.06 176.74 1295.2 175.89"/>
          <polygon class="cls-4" points="1295.2 171.67 1295.2 175.89 1296.06 175.03 1295.2 171.67"/>
          <polygon class="cls-4" points="1294.35 175.03 1290.98 175.89 1295.2 175.89 1294.35 175.03"/>
          <polygon class="cls-4" points="1294.35 176.74 1295.2 180.11 1295.2 175.89 1294.35 176.74"/>
        </g>
        <g>
          <polygon class="cls-2" points="1350.89 67 1351.74 76.59 1359.36 77.66 1351.74 78.74 1350.89 88.32 1350.03 78.74 1342.42 77.66 1350.03 76.59 1350.89 67"/>
          <polygon class="cls-1" points="1350.89 77.66 1359.36 77.66 1351.74 78.74 1350.89 77.66"/>
          <polygon class="cls-1" points="1351.74 76.59 1350.89 67 1350.89 77.66 1351.74 76.59"/>
          <polygon class="cls-1" points="1350.03 76.59 1342.42 77.66 1350.89 77.66 1350.03 76.59"/>
          <polygon class="cls-1" points="1350.03 78.74 1350.89 88.32 1350.89 77.66 1350.03 78.74"/>
        </g>
        <g>
          <polygon class="cls-3" points="878.1 51.08 880.22 59.46 888.6 61.58 880.22 63.7 878.1 72.08 875.98 63.7 867.6 61.58 875.98 59.46 878.1 51.08"/>
          <polygon class="cls-4" points="878.1 61.58 888.6 61.58 880.22 63.7 878.1 61.58"/>
          <polygon class="cls-4" points="878.1 51.08 878.1 61.58 880.22 59.46 878.1 51.08"/>
          <polygon class="cls-4" points="875.98 59.46 867.6 61.58 878.1 61.58 875.98 59.46"/>
          <polygon class="cls-4" points="875.98 63.7 878.1 72.08 878.1 61.58 875.98 63.7"/>
        </g>
        <g>
          <polygon class="cls-3" points="810.23 10.38 811.08 13.75 814.45 14.6 811.08 15.46 810.23 18.82 809.37 15.46 806.01 14.6 809.37 13.75 810.23 10.38"/>
          <polygon class="cls-4" points="810.23 14.6 814.45 14.6 811.08 15.46 810.23 14.6"/>
          <polygon class="cls-4" points="810.23 10.38 810.23 14.6 811.08 13.75 810.23 10.38"/>
          <polygon class="cls-4" points="809.37 13.75 806.01 14.6 810.23 14.6 809.37 13.75"/>
          <polygon class="cls-4" points="809.37 15.46 810.23 18.82 810.23 14.6 809.37 15.46"/>
        </g>
        <g>
          <polygon class="cls-2" points="829.72 30.72 830.86 43.47 840.99 44.91 830.86 46.34 829.72 59.1 828.58 46.34 818.44 44.91 828.58 43.47 829.72 30.72"/>
          <polygon class="cls-1" points="829.72 44.91 840.99 44.91 830.86 46.34 829.72 44.91"/>
          <polygon class="cls-1" points="830.86 43.47 829.72 30.72 829.72 44.91 830.86 43.47"/>
          <polygon class="cls-1" points="828.58 43.47 818.44 44.91 829.72 44.91 828.58 43.47"/>
          <polygon class="cls-1" points="828.58 46.34 829.72 59.1 829.72 44.91 828.58 46.34"/>
        </g>
        <g>
          <polygon class="cls-3" points="779.37 28.09 781.49 36.47 789.87 38.59 781.49 40.71 779.37 49.09 777.25 40.71 768.87 38.59 777.25 36.47 779.37 28.09"/>
          <polygon class="cls-4" points="779.37 38.59 789.87 38.59 781.49 40.71 779.37 38.59"/>
          <polygon class="cls-4" points="779.37 28.09 779.37 38.59 781.49 36.47 779.37 28.09"/>
          <polygon class="cls-4" points="777.25 36.47 768.87 38.59 779.37 38.59 777.25 36.47"/>
          <polygon class="cls-4" points="777.25 40.71 779.37 49.09 779.37 38.59 777.25 40.71"/>
        </g>
        <g>
          <polygon class="cls-3" points="914.37 70.09 916.49 78.47 924.87 80.59 916.49 82.71 914.37 91.09 912.25 82.71 903.87 80.59 912.25 78.47 914.37 70.09"/>
          <polygon class="cls-4" points="914.37 80.59 924.87 80.59 916.49 82.71 914.37 80.59"/>
          <polygon class="cls-4" points="914.37 70.09 914.37 80.59 916.49 78.47 914.37 70.09"/>
          <polygon class="cls-4" points="912.25 78.47 903.87 80.59 914.37 80.59 912.25 78.47"/>
          <polygon class="cls-4" points="912.25 82.71 914.37 91.09 914.37 80.59 912.25 82.71"/>
        </g>
        <g>
          <polygon class="cls-3" points="793.37 69.37 794.22 72.73 797.59 73.59 794.22 74.44 793.37 77.81 792.52 74.44 789.15 73.59 792.52 72.73 793.37 69.37"/>
          <polygon class="cls-4" points="793.37 73.59 797.59 73.59 794.22 74.44 793.37 73.59"/>
          <polygon class="cls-4" points="793.37 69.37 793.37 73.59 794.22 72.73 793.37 69.37"/>
          <polygon class="cls-4" points="792.52 72.73 789.15 73.59 793.37 73.59 792.52 72.73"/>
          <polygon class="cls-4" points="792.52 74.44 793.37 77.81 793.37 73.59 792.52 74.44"/>
        </g>
        <g>
          <polygon class="cls-3" points="892.37 29.37 893.22 32.73 896.59 33.59 893.22 34.44 892.37 37.81 891.52 34.44 888.15 33.59 891.52 32.73 892.37 29.37"/>
          <polygon class="cls-4" points="892.37 33.59 896.59 33.59 893.22 34.44 892.37 33.59"/>
          <polygon class="cls-4" points="892.37 29.37 892.37 33.59 893.22 32.73 892.37 29.37"/>
          <polygon class="cls-4" points="891.52 32.73 888.15 33.59 892.37 33.59 891.52 32.73"/>
          <polygon class="cls-4" points="891.52 34.44 892.37 37.81 892.37 33.59 891.52 34.44"/>
        </g>
        <g>
          <polygon class="cls-3" points="1346.65 134.22 1347.51 137.59 1350.87 138.44 1347.51 139.29 1346.65 142.66 1345.8 139.29 1342.43 138.44 1345.8 137.59 1346.65 134.22"/>
          <polygon class="cls-4" points="1346.65 138.44 1350.87 138.44 1347.51 139.29 1346.65 138.44"/>
          <polygon class="cls-4" points="1346.65 134.22 1346.65 138.44 1347.51 137.59 1346.65 134.22"/>
          <polygon class="cls-4" points="1345.8 137.59 1342.43 138.44 1346.65 138.44 1345.8 137.59"/>
          <polygon class="cls-4" points="1345.8 139.29 1346.65 142.66 1346.65 138.44 1345.8 139.29"/>
        </g>
        <g>
          <polygon class="cls-3" points="1334.65 122.22 1335.51 125.59 1338.87 126.44 1335.51 127.29 1334.65 130.66 1333.8 127.29 1330.43 126.44 1333.8 125.59 1334.65 122.22"/>
          <polygon class="cls-4" points="1334.65 126.44 1338.87 126.44 1335.51 127.29 1334.65 126.44"/>
          <polygon class="cls-4" points="1334.65 122.22 1334.65 126.44 1335.51 125.59 1334.65 122.22"/>
          <polygon class="cls-4" points="1333.8 125.59 1330.43 126.44 1334.65 126.44 1333.8 125.59"/>
          <polygon class="cls-4" points="1333.8 127.29 1334.65 130.66 1334.65 126.44 1333.8 127.29"/>
        </g>
        <g>
          <polygon class="cls-3" points="1427.85 305.8 1428.7 309.17 1432.06 310.02 1428.7 310.87 1427.85 314.24 1426.99 310.87 1423.63 310.02 1426.99 309.17 1427.85 305.8"/>
          <polygon class="cls-4" points="1427.85 310.02 1432.06 310.02 1428.7 310.87 1427.85 310.02"/>
          <polygon class="cls-4" points="1427.85 305.8 1427.85 310.02 1428.7 309.17 1427.85 305.8"/>
          <polygon class="cls-4" points="1426.99 309.17 1423.63 310.02 1427.85 310.02 1426.99 309.17"/>
          <polygon class="cls-4" points="1426.99 310.87 1427.85 314.24 1427.85 310.02 1426.99 310.87"/>
        </g>
        <g>
          <polygon class="cls-3" points="1388.41 299.19 1389.27 302.55 1392.63 303.4 1389.27 304.26 1388.41 307.62 1387.56 304.26 1384.2 303.4 1387.56 302.55 1388.41 299.19"/>
          <polygon class="cls-4" points="1388.41 303.4 1392.63 303.4 1389.27 304.26 1388.41 303.4"/>
          <polygon class="cls-4" points="1388.41 299.19 1388.41 303.4 1389.27 302.55 1388.41 299.19"/>
          <polygon class="cls-4" points="1387.56 302.55 1384.2 303.4 1388.41 303.4 1387.56 302.55"/>
          <polygon class="cls-4" points="1387.56 304.26 1388.41 307.62 1388.41 303.4 1387.56 304.26"/>
        </g>
        <g>
          <polygon class="cls-3" points="1439.86 261.74 1440.72 265.11 1444.08 265.96 1440.72 266.81 1439.86 270.18 1439.01 266.81 1435.65 265.96 1439.01 265.11 1439.86 261.74"/>
          <polygon class="cls-4" points="1439.86 265.96 1444.08 265.96 1440.72 266.81 1439.86 265.96"/>
          <polygon class="cls-4" points="1439.86 261.74 1439.86 265.96 1440.72 265.11 1439.86 261.74"/>
          <polygon class="cls-4" points="1439.01 265.11 1435.65 265.96 1439.86 265.96 1439.01 265.11"/>
          <polygon class="cls-4" points="1439.01 266.81 1439.86 270.18 1439.86 265.96 1439.01 266.81"/>
        </g>
        <g>
          <polygon class="cls-3" points="1427.86 249.74 1428.72 253.11 1432.08 253.96 1428.72 254.81 1427.86 258.18 1427.01 254.81 1423.65 253.96 1427.01 253.11 1427.86 249.74"/>
          <polygon class="cls-4" points="1427.86 253.96 1432.08 253.96 1428.72 254.81 1427.86 253.96"/>
          <polygon class="cls-4" points="1427.86 249.74 1427.86 253.96 1428.72 253.11 1427.86 249.74"/>
          <polygon class="cls-4" points="1427.01 253.11 1423.65 253.96 1427.86 253.96 1427.01 253.11"/>
          <polygon class="cls-4" points="1427.01 254.81 1427.86 258.18 1427.86 253.96 1427.01 254.81"/>
        </g>
        <g>
          <polygon class="cls-3" points="1444.37 340.44 1448.61 357.2 1465.37 361.44 1448.61 365.68 1444.37 382.44 1440.13 365.68 1423.37 361.44 1440.13 357.2 1444.37 340.44"/>
          <polygon class="cls-4" points="1444.37 361.44 1465.37 361.44 1448.61 365.68 1444.37 361.44"/>
          <polygon class="cls-4" points="1444.37 340.44 1444.37 361.44 1448.61 357.2 1444.37 340.44"/>
          <polygon class="cls-4" points="1440.13 357.2 1423.37 361.44 1444.37 361.44 1440.13 357.2"/>
          <polygon class="cls-4" points="1440.13 365.68 1444.37 382.44 1444.37 361.44 1440.13 365.68"/>
        </g>
        <g>
          <polygon class="cls-3" points="1427.22 379.15 1428.07 382.51 1431.44 383.37 1428.07 384.22 1427.22 387.59 1426.37 384.22 1423 383.37 1426.37 382.51 1427.22 379.15"/>
          <polygon class="cls-4" points="1427.22 383.37 1431.44 383.37 1428.07 384.22 1427.22 383.37"/>
          <polygon class="cls-4" points="1427.22 379.15 1427.22 383.37 1428.07 382.51 1427.22 379.15"/>
          <polygon class="cls-4" points="1426.37 382.51 1423 383.37 1427.22 383.37 1426.37 382.51"/>
          <polygon class="cls-4" points="1426.37 384.22 1427.22 387.59 1427.22 383.37 1426.37 384.22"/>
        </g>
        <g>
          <polygon class="cls-3" points="1359.34 335.01 1360.2 338.38 1363.56 339.23 1360.2 340.09 1359.34 343.45 1358.49 340.09 1355.13 339.23 1358.49 338.38 1359.34 335.01"/>
          <polygon class="cls-4" points="1359.34 339.23 1363.56 339.23 1360.2 340.09 1359.34 339.23"/>
          <polygon class="cls-4" points="1359.34 335.01 1359.34 339.23 1360.2 338.38 1359.34 335.01"/>
          <polygon class="cls-4" points="1358.49 338.38 1355.13 339.23 1359.34 339.23 1358.49 338.38"/>
          <polygon class="cls-4" points="1358.49 340.09 1359.34 343.45 1359.34 339.23 1358.49 340.09"/>
        </g>
        <g>
          <polygon class="cls-3" points="1725.34 247.01 1726.2 250.38 1729.56 251.23 1726.2 252.09 1725.34 255.45 1724.49 252.09 1721.13 251.23 1724.49 250.38 1725.34 247.01"/>
          <polygon class="cls-4" points="1725.34 251.23 1729.56 251.23 1726.2 252.09 1725.34 251.23"/>
          <polygon class="cls-4" points="1725.34 247.01 1725.34 251.23 1726.2 250.38 1725.34 247.01"/>
          <polygon class="cls-4" points="1724.49 250.38 1721.13 251.23 1725.34 251.23 1724.49 250.38"/>
          <polygon class="cls-4" points="1724.49 252.09 1725.34 255.45 1725.34 251.23 1724.49 252.09"/>
        </g>
        <g>
          <polygon class="cls-3" points="1757.34 174.01 1758.2 177.38 1761.56 178.23 1758.2 179.09 1757.34 182.45 1756.49 179.09 1753.13 178.23 1756.49 177.38 1757.34 174.01"/>
          <polygon class="cls-4" points="1757.34 178.23 1761.56 178.23 1758.2 179.09 1757.34 178.23"/>
          <polygon class="cls-4" points="1757.34 174.01 1757.34 178.23 1758.2 177.38 1757.34 174.01"/>
          <polygon class="cls-4" points="1756.49 177.38 1753.13 178.23 1757.34 178.23 1756.49 177.38"/>
          <polygon class="cls-4" points="1756.49 179.09 1757.34 182.45 1757.34 178.23 1756.49 179.09"/>
        </g>
        <g>
          <polygon class="cls-3" points="1695.34 186.01 1696.2 189.38 1699.56 190.23 1696.2 191.09 1695.34 194.45 1694.49 191.09 1691.13 190.23 1694.49 189.38 1695.34 186.01"/>
          <polygon class="cls-4" points="1695.34 190.23 1699.56 190.23 1696.2 191.09 1695.34 190.23"/>
          <polygon class="cls-4" points="1695.34 186.01 1695.34 190.23 1696.2 189.38 1695.34 186.01"/>
          <polygon class="cls-4" points="1694.49 189.38 1691.13 190.23 1695.34 190.23 1694.49 189.38"/>
          <polygon class="cls-4" points="1694.49 191.09 1695.34 194.45 1695.34 190.23 1694.49 191.09"/>
        </g>
        <g>
          <polygon class="cls-3" points="1656.34 305.01 1657.2 308.38 1660.56 309.23 1657.2 310.09 1656.34 313.45 1655.49 310.09 1652.13 309.23 1655.49 308.38 1656.34 305.01"/>
          <polygon class="cls-4" points="1656.34 309.23 1660.56 309.23 1657.2 310.09 1656.34 309.23"/>
          <polygon class="cls-4" points="1656.34 305.01 1656.34 309.23 1657.2 308.38 1656.34 305.01"/>
          <polygon class="cls-4" points="1655.49 308.38 1652.13 309.23 1656.34 309.23 1655.49 308.38"/>
          <polygon class="cls-4" points="1655.49 310.09 1656.34 313.45 1656.34 309.23 1655.49 310.09"/>
        </g>
      </g>
    </g>
  </g>
</svg>