<?xml version="1.0" encoding="UTF-8"?>
<svg id="Baggrund" xmlns="http://www.w3.org/2000/svg" viewBox="0 0 1920 1080">
  <defs>
    <style>
      .cls-1 {
        fill: #f5ffa4;
      }
    </style>
  </defs>
  <g id="stjerner">
    <g>
      <g>
        <polygon points="215.66 701 215.66 690 205.09 690 205.09 673 192.2 673 193.45 672.5 186.12 596.48 179.71 517 173.31 596.48 165.98 672.5 167.23 673 154.34 673 154.34 690 144.83 690 144.83 701 101.49 701 101.49 845 0 845 0 1080 101.49 1080 125.8 1080 259 1080 259 701 215.66 701"/>
        <rect class="cls-1" x="150.11" y="717" width="75.06" height="7"/>
        <rect class="cls-1" x="118.4" y="729" width="75.06" height="7"/>
        <rect class="cls-1" x="172.31" y="745" width="75.06" height="7"/>
        <rect class="cls-1" x="172.31" y="758" width="75.06" height="7"/>
        <rect class="cls-1" x="118.4" y="778" width="128.97" height="7"/>
        <rect class="cls-1" x="116.29" y="822" width="128.97" height="7"/>
        <rect class="cls-1" x="137.43" y="795" width="75.06" height="7"/>
        <rect class="cls-1" x="170.2" y="808" width="75.06" height="7"/>
        <rect class="cls-1" x="118.4" y="871" width="75.06" height="7"/>
        <rect class="cls-1" x="142.71" y="887" width="75.06" height="7"/>
        <rect class="cls-1" x="175.49" y="903" width="75.06" height="7"/>
        <rect class="cls-1" x="122.63" y="919" width="128.97" height="7"/>
        <rect class="cls-1" x="122.63" y="984" width="128.97" height="7"/>
        <rect class="cls-1" x="150.11" y="935" width="75.06" height="7"/>
        <rect class="cls-1" x="118.4" y="952" width="75.06" height="7"/>
        <rect class="cls-1" x="175.49" y="968" width="75.06" height="7"/>
        <rect class="cls-1" x="139.54" y="1049" width="75.06" height="7"/>
        <rect class="cls-1" x="172.31" y="1062" width="75.06" height="7"/>
        <rect class="cls-1" x="145.89" y="1021" width="75.06" height="7"/>
        <rect class="cls-1" x="11.63" y="857" width="10.57" height="10"/>
        <rect class="cls-1" x="77.17" y="857" width="10.57" height="10"/>
        <rect class="cls-1" x="30.66" y="882" width="10.57" height="10"/>
        <rect class="cls-1" x="57.09" y="905" width="10.57" height="10"/>
        <rect class="cls-1" x="30.66" y="930" width="10.57" height="10"/>
        <rect class="cls-1" x="77.17" y="1016" width="10.57" height="10"/>
        <rect class="cls-1" x="57.09" y="996" width="10.57" height="10"/>
        <rect class="cls-1" x="57.09" y="1048" width="10.57" height="10"/>
        <rect class="cls-1" x="11.63" y="1016" width="10.57" height="10"/>
        <rect class="cls-1" x="22.2" y="981" width="10.57" height="10"/>
        <rect class="cls-1" x="77.17" y="958" width="10.57" height="10"/>
        <rect class="cls-1" x="57.09" y="958" width="10.57" height="10"/>
      </g>
      <g>
        <rect x="258" y="857" width="130" height="223"/>
        <rect class="cls-1" x="289" y="870" width="10" height="10"/>
        <rect class="cls-1" x="270" y="870" width="10" height="10"/>
        <rect class="cls-1" x="327" y="870" width="10" height="10"/>
        <rect class="cls-1" x="308" y="870" width="10" height="10"/>
        <rect class="cls-1" x="270" y="888" width="10" height="10"/>
        <rect class="cls-1" x="334" y="909" width="10" height="10"/>
        <rect class="cls-1" x="372" y="909" width="10" height="10"/>
        <rect class="cls-1" x="353" y="909" width="10" height="10"/>
        <rect class="cls-1" x="372" y="968" width="10" height="10"/>
        <rect class="cls-1" x="372" y="986" width="10" height="10"/>
        <rect class="cls-1" x="284" y="975" width="10" height="10"/>
        <rect class="cls-1" x="356" y="968" width="10" height="10"/>
        <rect class="cls-1" x="284" y="957" width="10" height="10"/>
        <rect class="cls-1" x="265" y="957" width="10" height="10"/>
        <rect class="cls-1" x="303" y="957" width="10" height="10"/>
        <rect class="cls-1" x="334" y="1018" width="10" height="10"/>
        <rect class="cls-1" x="315" y="1018" width="10" height="10"/>
        <rect class="cls-1" x="372" y="1018" width="10" height="10"/>
        <rect class="cls-1" x="353" y="1018" width="10" height="10"/>
        <rect class="cls-1" x="270" y="1056" width="10" height="10"/>
        <rect class="cls-1" x="289" y="1038" width="10" height="10"/>
      </g>
      <g>
        <polygon points="558 745 558 703 536.45 703 536.45 672.5 516.22 650 496 672.5 496 703 474 703 474 745 452 745 452 1080 580 1080 580 745 558 745"/>
        <rect class="cls-1" x="482" y="758" width="10" height="10"/>
        <rect class="cls-1" x="463" y="758" width="10" height="10"/>
        <rect class="cls-1" x="520" y="758" width="10" height="10"/>
        <rect class="cls-1" x="501" y="758" width="10" height="10"/>
        <rect class="cls-1" x="463" y="776" width="10" height="10"/>
        <rect class="cls-1" x="558" y="758" width="10" height="10"/>
        <rect class="cls-1" x="499" y="813" width="71" height="7"/>
        <rect class="cls-1" x="469" y="825" width="71" height="7"/>
        <rect class="cls-1" x="462" y="1020" width="109" height="7"/>
        <rect class="cls-1" x="543" y="882" width="10" height="10"/>
        <rect class="cls-1" x="543" y="864" width="10" height="10"/>
        <rect class="cls-1" x="524" y="864" width="10" height="10"/>
        <rect class="cls-1" x="562" y="864" width="10" height="10"/>
        <rect class="cls-1" x="476" y="1039" width="10" height="10"/>
        <rect class="cls-1" x="460" y="1057" width="10" height="10"/>
        <rect class="cls-1" x="460" y="1039" width="10" height="10"/>
        <rect class="cls-1" x="478" y="905" width="10" height="10"/>
        <rect class="cls-1" x="459" y="905" width="10" height="10"/>
        <rect class="cls-1" x="516" y="905" width="10" height="10"/>
        <rect class="cls-1" x="497" y="905" width="10" height="10"/>
        <rect class="cls-1" x="543" y="966" width="10" height="10"/>
        <rect class="cls-1" x="562" y="948" width="10" height="10"/>
        <rect class="cls-1" x="463" y="1001" width="71" height="7"/>
        <rect class="cls-1" x="481" y="863" width="10" height="10"/>
        <rect class="cls-1" x="497" y="937" width="10" height="10"/>
        <rect class="cls-1" x="459" y="937" width="10" height="10"/>
      </g>
      <g>
        <polygon points="868.93 799 834 764 801.5 729 768 764 734.07 799 734 799 734 1080 869 1080 869 799 868.93 799"/>
        <rect class="cls-1" x="792" y="808" width="73" height="7"/>
        <rect class="cls-1" x="742" y="820" width="123" height="6"/>
        <rect class="cls-1" x="756" y="834" width="71" height="7"/>
        <rect class="cls-1" x="741.74" y="873.39" width="71" height="7"/>
        <rect class="cls-1" x="756" y="887" width="71" height="7"/>
        <rect class="cls-1" x="769" y="901" width="71" height="7"/>
        <rect class="cls-1" x="766" y="944" width="71" height="7"/>
        <rect class="cls-1" x="742" y="958" width="73" height="7"/>
        <rect class="cls-1" x="794" y="997" width="71" height="7"/>
        <rect class="cls-1" x="742" y="1033" width="75" height="7"/>
        <rect class="cls-1" x="742" y="1016" width="123" height="6"/>
      </g>
      <polygon points="1235 913 1235 889.7 1235 845 1235 844.7 1171 822.2 1107 844.7 1107 845 1107 889.7 1107 913 1053 913 1053 1080 1290 1080 1290 913 1235 913"/>
      <rect class="cls-1" x="1072" y="935" width="10" height="10"/>
      <rect class="cls-1" x="1110" y="935" width="10" height="10"/>
      <rect class="cls-1" x="1091" y="935" width="10" height="10"/>
      <rect class="cls-1" x="1130" y="935" width="10" height="10"/>
      <rect class="cls-1" x="1168" y="935" width="10" height="10"/>
      <rect class="cls-1" x="1149" y="935" width="10" height="10"/>
      <rect class="cls-1" x="1130" y="965" width="10" height="10"/>
      <rect class="cls-1" x="1168" y="965" width="10" height="10"/>
      <rect class="cls-1" x="1149" y="965" width="10" height="10"/>
      <rect class="cls-1" x="1188" y="965" width="10" height="10"/>
      <rect class="cls-1" x="1226" y="965" width="10" height="10"/>
      <rect class="cls-1" x="1207" y="965" width="10" height="10"/>
      <rect class="cls-1" x="1270" y="935" width="10" height="10"/>
      <rect class="cls-1" x="1251" y="935" width="10" height="10"/>
      <rect class="cls-1" x="1270" y="952" width="10" height="10"/>
      <rect class="cls-1" x="1072" y="1000" width="10" height="10"/>
      <rect class="cls-1" x="1091" y="1017" width="10" height="10"/>
      <rect class="cls-1" x="1110" y="1000" width="10" height="10"/>
      <rect class="cls-1" x="1232" y="1017" width="10" height="10"/>
      <rect class="cls-1" x="1270" y="1017" width="10" height="10"/>
      <rect class="cls-1" x="1251" y="1017" width="10" height="10"/>
      <rect class="cls-1" x="1270" y="1036" width="10" height="10"/>
      <rect class="cls-1" x="1270" y="998" width="10" height="10"/>
      <rect class="cls-1" x="1182" y="1036" width="10" height="10"/>
      <rect class="cls-1" x="1163" y="1036" width="10" height="10"/>
      <rect class="cls-1" x="1091" y="1036" width="10" height="10"/>
      <rect class="cls-1" x="1217" y="863" width="10" height="10"/>
      <rect class="cls-1" x="1198" y="863" width="10" height="10"/>
      <rect class="cls-1" x="1217" y="880" width="10" height="10"/>
      <rect class="cls-1" x="1139" y="880" width="10" height="10"/>
      <rect class="cls-1" x="1120" y="880" width="10" height="10"/>
      <rect class="cls-1" x="1139" y="863" width="10" height="10"/>
      <g>
        <rect x="1400" y="822" width="105" height="258"/>
        <rect class="cls-1" x="1427" y="834" width="73" height="7"/>
        <rect class="cls-1" x="1407" y="853" width="73" height="7"/>
        <rect class="cls-1" x="1407" y="886" width="93" height="7"/>
        <rect class="cls-1" x="1407" y="903" width="93" height="7"/>
        <rect class="cls-1" x="1407" y="953" width="47" height="7"/>
        <rect class="cls-1" x="1453" y="969" width="47" height="7"/>
        <rect class="cls-1" x="1453" y="981" width="47" height="7"/>
        <rect class="cls-1" x="1407" y="1009" width="93" height="7"/>
        <rect class="cls-1" x="1407" y="1022" width="93" height="7"/>
      </g>
      <path d="m1805,766c-30.93,0-56,25.07-56,56v258h112v-258c0-30.93-25.07-56-56-56Z"/>
      <g>
        <polygon points="1605 631 1605 715 1605 718 1605 879 1540 879 1540 1080 1605 1080 1635 1080 1717 1080 1717 715 1605 631"/>
        <rect class="cls-1" x="1609" y="735" width="56" height="7"/>
        <rect class="cls-1" x="1609" y="753" width="95" height="7"/>
        <rect class="cls-1" x="1609" y="771" width="76" height="7"/>
        <rect class="cls-1" x="1611" y="676" width="29" height="7"/>
        <rect class="cls-1" x="1661" y="710" width="26" height="7"/>
        <rect class="cls-1" x="1609" y="822" width="95" height="7"/>
        <rect class="cls-1" x="1682" y="860" width="26" height="7"/>
        <rect class="cls-1" x="1550" y="906" width="145" height="7"/>
        <rect class="cls-1" x="1550" y="926" width="95" height="7"/>
        <rect class="cls-1" x="1550" y="946" width="123" height="7"/>
        <rect class="cls-1" x="1638" y="842" width="26" height="7"/>
        <rect class="cls-1" x="1609" y="998" width="99" height="7"/>
        <rect class="cls-1" x="1570" y="1016" width="138" height="7"/>
      </g>
      <rect class="cls-1" x="1760" y="844" width="10" height="10"/>
      <rect class="cls-1" x="1843" y="844" width="10" height="10"/>
      <rect class="cls-1" x="1800" y="844" width="10" height="10"/>
      <rect class="cls-1" x="1820" y="863" width="10" height="10"/>
      <rect class="cls-1" x="1800" y="863" width="10" height="10"/>
      <rect class="cls-1" x="1800" y="882" width="10" height="10"/>
      <rect class="cls-1" x="1781" y="844" width="10" height="10"/>
      <rect class="cls-1" x="1781" y="901" width="10" height="10"/>
      <rect class="cls-1" x="1760" y="901" width="10" height="10"/>
      <rect class="cls-1" x="1803" y="946" width="10" height="10"/>
      <rect class="cls-1" x="1843" y="946" width="10" height="10"/>
      <rect class="cls-1" x="1824" y="946" width="10" height="10"/>
      <rect class="cls-1" x="1843" y="966" width="10" height="10"/>
      <rect class="cls-1" x="1843" y="985" width="10" height="10"/>
      <rect class="cls-1" x="1824" y="985" width="10" height="10"/>
      <rect class="cls-1" x="1760" y="863" width="10" height="10"/>
      <rect class="cls-1" x="1781" y="1000" width="10" height="10"/>
      <rect class="cls-1" x="1760" y="1000" width="10" height="10"/>
      <rect class="cls-1" x="1760" y="985" width="10" height="10"/>
      <rect class="cls-1" x="1803" y="1031" width="10" height="10"/>
      <rect class="cls-1" x="1843" y="1031" width="10" height="10"/>
      <rect class="cls-1" x="1824" y="1031" width="10" height="10"/>
      <polygon points="984 962 984 905 869 905 869 1080 963 1080 984 1080 1053 1080 1053 962 984 962"/>
      <polygon points="1385 952 1385 893 1355 893 1355 930 1290 930 1290 1080 1355 1080 1376 1080 1385 1080 1404 1080 1404 952 1385 952"/>
      <g>
        <rect x="1505" y="849" width="35" height="231"/>
        <rect x="1717" y="890" width="32" height="190"/>
        <rect x="1861" y="890" width="59" height="190"/>
      </g>
      <polygon points="631 955 631 914 580 914 580 1080 631 1080 734 1080 734 955 631 955"/>
      <rect x="388" y="975" width="64" height="105"/>
    </g>
  </g>
</svg>