<?xml version="1.0" encoding="UTF-8"?>
<svg id="Layer_2" data-name="Layer 2" xmlns="http://www.w3.org/2000/svg" viewBox="0 0 640.67 551.76">
  <defs>
    <style>
      .cls-1 {
        fill: #f7b938;
      }

      .cls-2 {
        fill: #f7a838;
      }

      .cls-3 {
        fill: #f3dab5;
      }

      .cls-4 {
        fill: #ffdc55;
      }

      .cls-5 {
        fill: #fff76a;
      }

      .cls-6 {
        fill: #ffee1f;
      }

      .cls-7 {
        fill: #ffd91f;
      }

      .cls-8 {
        fill: #fa0;
      }

      .cls-9 {
        fill: #934727;
      }

      .cls-10 {
        fill: #913522;
      }

      .cls-11 {
        fill: #333;
      }

      .cls-12 {
        fill: #b3562c;
      }

      .cls-13 {
        fill: #bf0071;
      }

      .cls-14 {
        fill: #ca653c;
      }

      .cls-15 {
        fill: #201e22;
      }

      .cls-16 {
        fill: #93d3b1;
      }

      .cls-17 {
        fill: #721916;
      }

      .cls-18 {
        fill: #97007d;
      }

      .cls-19 {
        fill: #561b13;
      }

      .cls-20 {
        fill: #73d441;
      }
    </style>
  </defs>
  <g id="Girls_girl" data-name="Girls girl">
    <g>
      <g>
        <path class="cls-3" d="m234.93,217.73s-10.83-182.22,82.59-207.24c0,0,61.78-16.06,83.92,73.31,14.41,58.18,24.08,76.63,35.41,106.44,17.06,44.87-19.09,225.42-14.54,250.91,1.1,6.15-65.57,22.11-73.31,21.49-71.42-5.69-85.95-16.43-85.95-16.43l-28.12-228.47Z"/>
        <path class="cls-1" d="m363.14,151.4s-7.5,41.05,37.38,46.74c44.87,5.69,46.14,11.38,46.14,11.38,0,0,14.52,4.24,20.86,30.34,7.05,29.03,33.13,174.21,36.97,170.33h-40.45s-24.02-80.27-39.82-105.55c0,0-6,19.28-28.76,58.46-22.75,39.19-25.41,59.09-25.41,59.09h-79.24l8.58-190.55,33.32-60.79s13.27.17,30.42-19.45"/>
        <path class="cls-2" d="m393.88,365.31c-36.66,7.58-51.83-4.42-51.83-4.42,0,0,35.39,12.01,56.88-3.79l-5.06,8.22Z"/>
        <path d="m300.34,157.37s16.12,42.66-12.96,52.77c0,0-29.7,6.32-52.46,7.58-22.75,1.26-32.12,17.81-38.5,28.18-6.37,10.37-8.27,21.12-8.27,21.12,0,0-8.8,45.05-28.84,67.58-4.05,4.55-10.33,17.74-13.19,23.12-1.55,2.93-14.54,61.2-16.43,64.47h41.47l34.69-67.31,27.81-51.83s-12.64,24.65-4.42,57.51c8.22,32.86-10.05,61.62-10.05,61.62h71.62s32.6-76.79,16.8-107.76c-15.8-30.97,11.38-65.1,11.38-65.1,0,0,24.3-37.52,13.73-78.49,0,0-15.31.43-32.38-13.47Z"/>
        <path class="cls-11" d="m230.08,364.41c.06-.38,7.82,12.72,50.67,3.43,0,0-27.18,12.01-49.96,1l-.7-4.43Z"/>
        <path class="cls-16" d="m290.59,145.36l-3.99,17.03c-11.21-2.84-18.15-13.97-15.55-25.07,1.5-6.38,5.83-11.37,11.39-13.99,1.5,7.91,4.48,15.6,8.15,22.03Z"/>
        <path class="cls-12" d="m286.12,137.46s-12.64-22.12-1.9-49.93c0,0,1.9-5.74,1.9-16.77s-1.9-20.51,15.17-26.2c0,0,7.58-3.43,15.48,1.45,7.9,4.87,17.38-.81,17.38-.81,0,0,17.7-8.85,27.81,6.32,10.11,15.17,7.58,7.58,6.64,36.75,0,0-.95,7.49,7.27,18.86,8.22,11.38,9.48,12.64,9.48,12.64,0,0,2.53,13.27-10.74,3.79,0,0,4.42,18.96-26.54,41.08-22.31,15.93-43.3-1.58-53.3-12.62-3.73-4.12-6.6-8.95-8.5-14.18l-.14-.38Z"/>
        <path class="cls-9" d="m332.58,82.79s-.63,11.38.63,14.54c1.26,3.16,5.06-9.48,5.06-9.48l1.89-5.06s-5.05-3.79-7.58,0Z"/>
        <path class="cls-19" d="m330.68,115.66s2.53-1.26,2.53,1.26-5.69,2.53-5.69,2.53c0,0-5.06.63,3.16-3.79Z"/>
        <path class="cls-19" d="m318.44,119.45c-.48-.16-.82-.57-.89-1.07-.16-1.22.07-3.32,4.27-1.45,5.25,2.33-.27,3.59-3.39,2.53Z"/>
        <path class="cls-9" d="m312.98,115.03s-.29-3.79,1.12,0c0,0,.56,1.9,3.2,0,1.92-1.38,3.45-.75,4.14-.3.21.14.39.32.55.52.51.66,2.27,2.41,4.9-.22,3.16-3.16,5.69-.63,5.69-.63,0,0,1.08,1.69,3.38-1.05s.41,2.32.41,2.32c0,0-.63,2.54-3.95,2.69,0,0,2.37-6.8-6.48.79,0,0-1.04,1.26-2.1,0s-6.75-5.69-6.12,0c0,0-5.06-.63-4.74-4.11Z"/>
        <ellipse class="cls-14" cx="324.68" cy="111.87" rx="2.21" ry="1.9"/>
        <path class="cls-10" d="m307.29,139.04s8.85,11.38,13.27,11.38c0,0,1.97.72,4.46-.91,0,0,2.22-.74,4.56.4,2.35,1.14,6.14-1.39,8.67-3.92s6.95-10.11,6.95-10.11l-18.25-1.85-19.67,5.01Z"/>
        <path class="cls-17" d="m307.29,139.04s4.42-1.9,7.58-6.95c1.83-2.92,4.5-3.52,6.43-3.51,1.03,0,2.49.62,3.31,1.26.4.31.43-.24,2.41-1.26,3.02-1.55,5.79,0,5.79,0,0,0,9.24,6.67,12.4,7.3,0,0-1.26,1.9-6.95,1.9s-5.81-.63-9.86,1.26c0,0-3.78,2.42-6.94.16-.24-.17-.49-.32-.76-.42-.79-.29-2.03-.38-4.56.25-3.3.83-8.85,0-8.85,0Z"/>
        <path class="cls-15" d="m334.47,84.87c-.92-.1-1.75-.61-2.23-1.4-1.22-1.99-2.02-5.97,8.56-8.26,14.54-3.16,24.02,3.16,26.54,8.22,1.98,3.95-1.46,1.34-3.05,0-.62-.51-1.31-.91-2.07-1.17-1.91-.66-5.68-1.61-10.05-.73-5.93,1.19-11.31,4.05-17.7,3.34Z"/>
        <path class="cls-15" d="m285.17,84.06s4.42-5.06,15.8-1.9c11.38,3.16,14.54,4.42,18.33,1.26s-7.01-11.18-22.78-9.06c0,0-5.66.22-11.35,7.17v2.53Z"/>
        <path class="cls-3" d="m382.5,99.86v6.32c0,4.52-5.75-1.26-9.54,4.42s-.63,8.22-.63,8.22c0,0-5.69-2.53-.63-12.64,0,0,1.95-3.79.06-10.74-1.41-5.17-3.16-6.95-3.16-6.95h0l10.74,7.58,3.16,3.79Z"/>
        <path class="cls-20" d="m271.84,97.04c-.02-.77-.28-.83-.13-2.29.13-1.23.03-3.58,5.24-3.11,6.95.63,97.98-.06,97.98-.06,0,0,3.78.06,3.14,3.22-.63,3.16,1.26,10.11-3.16,12.01s-27.19,13.33-34.77,5.72c-7.58-7.61-10.74-12.39-15.48-12.21s-11.72,9.66-11.72,9.66c0,0-7.51,9.48-20.49,3.79-9.42-4.13-14-5.92-15.8-6.6-.43-.16-.87-.29-1.32-.41-.97-.26-3.26-1.72-3.5-9.71Z"/>
        <path class="cls-16" d="m396.02,137.49c2.67,10.91-4.21,21.99-15.41,24.94l-9.77-39.96c11.3-2.55,22.51,4.1,25.18,15.02Z"/>
      </g>
      <path class="cls-8" d="m329.89,18.64c-12.3,0-23.87-.78-32.59-2.2-13.27-2.16-14.97-4.94-14.97-7.12s1.7-4.97,14.97-7.12c8.72-1.42,20.3-2.2,32.59-2.2s23.87.78,32.59,2.2c13.27,2.16,14.97,4.94,14.97,7.12s-1.7,4.97-14.97,7.12c-8.72,1.42-20.3,2.2-32.59,2.2Zm-43.57-9.32c.75.6,3.55,2.2,13.08,3.61,8.34,1.24,19.16,1.92,30.49,1.92s22.15-.68,30.49-1.92c9.53-1.41,12.33-3.01,13.08-3.61-.75-.6-3.55-2.2-13.08-3.61-8.34-1.24-19.16-1.92-30.49-1.92s-22.15.68-30.49,1.92c-9.53,1.41-12.33,3.01-13.08,3.61Z"/>
      <g>
        <g>
          <g>
            <path class="cls-13" d="m503.88,405.08c-6.8,0-13.39.6-19.68,1.74-11.73-19.19-39.32-32.66-71.49-32.66-18.69,0-35.83,4.55-49.21,12.12-14.16-10.58-34.47-17.2-57.02-17.2s-40.8,5.97-54.83,15.63c-14.22-11.27-35.2-18.39-58.59-18.39-32.59,0-60.48,13.83-71.94,33.42-3.93-.42-7.95-.64-12.05-.64-42.82,0-77.53,23.87-77.53,53.32,0,27.44,30.14,50.04,68.9,52.98,9.9,21.6,39.26,37.26,73.94,37.26,23.75,0,45-7.34,59.22-18.91,14.22,11.56,35.47,18.91,59.22,18.91s45.72-7.59,59.94-19.5c14.22,11.9,35.79,19.5,59.94,19.5,32.17,0,59.76-13.47,71.49-32.66,6.28,1.14,12.88,1.74,19.68,1.74,42.82,0,77.53-23.87,77.53-53.32s-34.71-53.32-77.53-53.32Z"/>
            <path class="cls-18" d="m412.72,544.53c-23.1,0-44.84-6.89-59.94-18.95-15.1,12.06-36.84,18.95-59.94,18.95s-44.16-6.68-59.22-18.38c-15.06,11.7-36.54,18.38-59.22,18.38-34.23,0-64.25-14.97-75.19-37.36-39.73-3.4-69.56-26.82-69.56-54.78,0-30.44,35.63-55.21,79.42-55.21,3.71,0,7.42.18,11.04.53,12.56-20.27,41.01-33.3,72.94-33.3,22.35,0,43.64,6.53,58.67,17.95,14.82-9.8,34.19-15.18,54.75-15.18s42.27,6.13,57.16,16.85c13.92-7.6,31.29-11.77,49.07-11.77,31.37,0,59.6,12.71,72.41,32.47,6.09-1.03,12.39-1.55,18.75-1.55,43.79,0,79.42,24.77,79.42,55.21s-35.63,55.21-79.42,55.21c-6.36,0-12.66-.52-18.75-1.55-12.81,19.77-41.05,32.47-72.42,32.47Zm-59.94-23.87l1.22,1.02c14.47,12.11,35.87,19.06,58.72,19.06,30.65,0,58.08-12.47,69.87-31.76l.68-1.11,1.28.23c6.26,1.13,12.76,1.71,19.34,1.71,41.7,0,75.63-23.07,75.63-51.42s-33.93-51.42-75.63-51.42c-6.57,0-13.08.57-19.34,1.71l-1.28.23-.68-1.11c-11.79-19.29-39.22-31.76-69.87-31.76-17.6,0-34.75,4.22-48.28,11.88l-1.08.61-.99-.74c-14.32-10.69-34.69-16.82-55.89-16.82s-39.42,5.43-53.75,15.29l-1.15.79-1.1-.87c-14.42-11.43-35.35-17.99-57.41-17.99-15.49,0-30.39,3.17-43.08,9.18-12.29,5.82-21.71,13.87-27.22,23.3l-.62,1.06-1.22-.13c-3.87-.42-7.85-.63-11.84-.63-41.7,0-75.63,23.07-75.63,51.42,0,26.22,28.87,48.18,67.15,51.09l1.11.08.47,1.02c4.67,10.19,14.2,19.37,26.82,25.83,13.18,6.75,28.88,10.32,45.4,10.32,22.43,0,43.58-6.74,58.02-18.48l1.2-.97,1.2.97c14.45,11.75,35.59,18.48,58.02,18.48s44.26-6.95,58.72-19.06l1.22-1.02Z"/>
          </g>
          <g>
            <path class="cls-18" d="m134.59,455.5l-3.61-1.16c3.87-12.07,15.2-20.92,28.87-22.54,14.76-1.75,28.67,5.28,34.63,17.5l-3.41,1.66c-5.25-10.77-17.61-16.96-30.77-15.4-12.2,1.45-22.29,9.27-25.71,19.93Z"/>
            <path class="cls-18" d="m242.87,468.54c-.84-7.11-4.72-13.44-10.92-17.83-6.26-4.43-14.13-6.34-22.15-5.39-6.24.74-14,1.66-19.06,4.99l-2.08-3.17c5.81-3.82,14.06-4.8,20.7-5.59,8.96-1.06,17.76,1.09,24.79,6.06,7.09,5.01,11.53,12.28,12.5,20.48l-3.77.45Z"/>
          </g>
          <g>
            <path class="cls-18" d="m284.24,430.42l-3.61-1.16c3.87-12.07,15.2-20.91,28.87-22.54,14.75-1.75,28.67,5.28,34.63,17.5l-3.41,1.66c-5.25-10.77-17.61-16.96-30.77-15.4-12.2,1.45-22.29,9.27-25.71,19.93Z"/>
            <path class="cls-18" d="m392.51,443.46c-.84-7.11-4.72-13.44-10.92-17.83-6.26-4.43-14.13-6.34-22.15-5.39-6.24.74-14,1.66-19.06,4.99l-2.08-3.17c5.81-3.82,14.06-4.8,20.7-5.59,8.95-1.06,17.76,1.09,24.79,6.06,7.09,5.01,11.53,12.28,12.5,20.48l-3.77.45Z"/>
          </g>
          <path class="cls-18" d="m439.72,479.72l-3.61-1.16c3.87-12.07,15.2-20.91,28.87-22.54,14.75-1.75,28.67,5.28,34.63,17.5l-3.41,1.66c-5.25-10.77-17.62-16.96-30.77-15.4-12.2,1.45-22.29,9.27-25.71,19.93Z"/>
        </g>
        <g>
          <g>
            <polygon class="cls-5" points="579.24 397.19 585.45 466.67 640.67 474.47 585.45 482.28 579.24 551.76 573.04 482.28 517.81 474.47 573.04 466.67 579.24 397.19"/>
            <polygon class="cls-4" points="579.24 474.47 640.67 474.47 585.45 482.28 579.24 474.47"/>
            <polygon class="cls-4" points="585.45 466.67 579.24 397.19 579.24 474.47 585.45 466.67"/>
            <polygon class="cls-4" points="573.04 466.67 517.81 474.47 579.24 474.47 573.04 466.67"/>
            <polygon class="cls-4" points="573.04 482.28 579.24 551.76 579.24 474.47 573.04 482.28"/>
          </g>
          <g>
            <polygon class="cls-5" points="51.11 341.94 56.27 399.74 102.22 406.23 56.27 412.73 51.11 470.53 45.95 412.73 0 406.23 45.95 399.74 51.11 341.94"/>
            <polygon class="cls-4" points="51.11 406.23 102.22 406.23 56.27 412.73 51.11 406.23"/>
            <polygon class="cls-4" points="56.27 399.74 51.11 341.94 51.11 406.23 56.27 399.74"/>
            <polygon class="cls-4" points="45.95 399.74 0 406.23 51.11 406.23 45.95 399.74"/>
            <polygon class="cls-4" points="45.95 412.73 51.11 470.53 51.11 406.23 45.95 412.73"/>
          </g>
          <g>
            <polygon class="cls-6" points="609.94 429.6 613.1 442.08 625.58 445.24 613.1 448.39 609.94 460.87 606.78 448.39 594.3 445.24 606.78 442.08 609.94 429.6"/>
            <polygon class="cls-7" points="609.94 445.24 625.58 445.24 613.1 448.39 609.94 445.24"/>
            <polygon class="cls-7" points="609.94 429.6 609.94 445.24 613.1 442.08 609.94 429.6"/>
            <polygon class="cls-7" points="606.78 442.08 594.3 445.24 609.94 445.24 606.78 442.08"/>
            <polygon class="cls-7" points="606.78 448.39 609.94 460.87 609.94 445.24 606.78 448.39"/>
          </g>
          <g>
            <polygon class="cls-6" points="537.1 497.35 540.26 509.83 552.73 512.99 540.26 516.15 537.1 528.63 533.94 516.15 521.46 512.99 533.94 509.83 537.1 497.35"/>
            <polygon class="cls-7" points="537.1 512.99 552.73 512.99 540.26 516.15 537.1 512.99"/>
            <polygon class="cls-7" points="537.1 497.35 537.1 512.99 540.26 509.83 537.1 497.35"/>
            <polygon class="cls-7" points="533.94 509.83 521.46 512.99 537.1 512.99 533.94 509.83"/>
            <polygon class="cls-7" points="533.94 516.15 537.1 528.63 537.1 512.99 533.94 516.15"/>
          </g>
          <g>
            <polygon class="cls-6" points="58.82 466.82 61.9 478.97 74.05 482.04 61.9 485.12 58.82 497.27 55.74 485.12 43.59 482.04 55.74 478.97 58.82 466.82"/>
            <polygon class="cls-7" points="58.82 482.04 74.05 482.04 61.9 485.12 58.82 482.04"/>
            <polygon class="cls-7" points="58.82 466.82 58.82 482.04 61.9 478.97 58.82 466.82"/>
            <polygon class="cls-7" points="55.74 478.97 43.59 482.04 58.82 482.04 55.74 478.97"/>
            <polygon class="cls-7" points="55.74 485.12 58.82 497.27 58.82 482.04 55.74 485.12"/>
          </g>
          <g>
            <polygon class="cls-6" points="15.5 423.5 18.58 435.65 30.73 438.73 18.58 441.8 15.5 453.96 12.43 441.8 .28 438.73 12.43 435.65 15.5 423.5"/>
            <polygon class="cls-7" points="15.5 438.73 30.73 438.73 18.58 441.8 15.5 438.73"/>
            <polygon class="cls-7" points="15.5 423.5 15.5 438.73 18.58 435.65 15.5 423.5"/>
            <polygon class="cls-7" points="12.43 435.65 .28 438.73 15.5 438.73 12.43 435.65"/>
            <polygon class="cls-7" points="12.43 441.8 15.5 453.96 15.5 438.73 12.43 441.8"/>
          </g>
          <g>
            <polygon class="cls-6" points="497.9 402.79 504.89 430.37 532.47 437.36 504.89 444.34 497.9 471.92 490.92 444.34 463.33 437.36 490.92 430.37 497.9 402.79"/>
            <polygon class="cls-7" points="497.9 437.36 532.47 437.36 504.89 444.34 497.9 437.36"/>
            <polygon class="cls-7" points="497.9 402.79 497.9 437.36 504.89 430.37 497.9 402.79"/>
            <polygon class="cls-7" points="490.92 430.37 463.33 437.36 497.9 437.36 490.92 430.37"/>
            <polygon class="cls-7" points="490.92 444.34 497.9 471.92 497.9 437.36 490.92 444.34"/>
          </g>
          <g>
            <polygon class="cls-6" points="95.45 352.23 97.35 359.74 104.86 361.64 97.35 363.55 95.45 371.06 93.55 363.55 86.04 361.64 93.55 359.74 95.45 352.23"/>
            <polygon class="cls-7" points="95.45 361.64 104.86 361.64 97.35 363.55 95.45 361.64"/>
            <polygon class="cls-7" points="95.45 352.23 95.45 361.64 97.35 359.74 95.45 352.23"/>
            <polygon class="cls-7" points="93.55 359.74 86.04 361.64 95.45 361.64 93.55 359.74"/>
            <polygon class="cls-7" points="93.55 363.55 95.45 371.06 95.45 361.64 93.55 363.55"/>
          </g>
          <g>
            <polygon class="cls-6" points="552.6 438.73 554 444.27 559.55 445.67 554 447.08 552.6 452.62 551.2 447.08 545.66 445.67 551.2 444.27 552.6 438.73"/>
            <polygon class="cls-7" points="552.6 445.67 559.55 445.67 554 447.08 552.6 445.67"/>
            <polygon class="cls-7" points="552.6 438.73 552.6 445.67 554 444.27 552.6 438.73"/>
            <polygon class="cls-7" points="551.2 444.27 545.66 445.67 552.6 445.67 551.2 444.27"/>
            <polygon class="cls-7" points="551.2 447.08 552.6 452.62 552.6 445.67 551.2 447.08"/>
          </g>
        </g>
      </g>
    </g>
  </g>
</svg>