<?xml version="1.0" encoding="UTF-8"?>
<svg id="Layer_2" data-name="Layer 2" xmlns="http://www.w3.org/2000/svg" xmlns:xlink="http://www.w3.org/1999/xlink" viewBox="0 0 641.82 654.3">
  <defs>
    <style>
      .cls-1 {
        fill: url(#linear-gradient);
      }

      .cls-2 {
        fill: #050002;
      }

      .cls-3 {
        fill: #fdd721;
      }

      .cls-4 {
        fill: #fda803;
      }

      .cls-5 {
        fill: #fff56a;
      }

      .cls-6 {
        fill: #fa0;
      }

      .cls-7 {
        fill: #fdda56;
      }

      .cls-8 {
        fill: #fdec1f;
      }

      .cls-9 {
        fill: #660b07;
      }

      .cls-10 {
        fill: #95017d;
      }

      .cls-11 {
        fill: #bd0271;
      }

      .cls-12 {
        fill: #b00090;
      }

      .cls-13 {
        fill: #c04805;
      }

      .cls-14 {
        fill: #a93e00;
      }

      .cls-15 {
        fill: #450b00;
      }

      .cls-16 {
        fill: #6e1381;
      }

      .cls-17 {
        fill: #471f05;
      }

      .cls-18 {
        fill: #7a2500;
      }
    </style>
    <linearGradient id="linear-gradient" x1="285.12" y1="156.65" x2="285.12" y2="277.02" gradientUnits="userSpaceOnUse">
      <stop offset=".38" stop-color="#ff0041"/>
      <stop offset=".42" stop-color="#f22860"/>
      <stop offset=".46" stop-color="#e55280"/>
      <stop offset=".49" stop-color="#dd6c94"/>
      <stop offset=".52" stop-color="#da769c"/>
      <stop offset=".53" stop-color="#ba5994"/>
      <stop offset=".56" stop-color="#993a8b"/>
      <stop offset=".58" stop-color="#812485"/>
      <stop offset=".6" stop-color="#721782"/>
      <stop offset=".62" stop-color="#6e1381"/>
      <stop offset=".99" stop-color="#9f189a"/>
    </linearGradient>
  </defs>
  <g id="Girls_girl" data-name="Girls girl">
    <g>
      <g>
        <g>
          <g>
            <circle cx="251.68" cy="91.4" r="32.68"/>
            <circle cx="300.07" cy="83.55" r="32.93"/>
            <circle cx="333.25" cy="104.58" r="32.17"/>
            <circle cx="352.25" cy="137.76" r="30.4"/>
            <circle cx="361.12" cy="167.91" r="34.2"/>
            <circle cx="225.33" cy="112.68" r="33.19"/>
            <circle cx="209.88" cy="144.35" r="31.92"/>
            <circle cx="202.79" cy="192.48" r="33.44"/>
            <circle cx="369.48" cy="208.19" r="33.44"/>
            <circle cx="352.25" cy="241.63" r="36.99"/>
            <circle cx="315.27" cy="279.12" r="36.99"/>
            <circle cx="244.84" cy="283.68" r="36.99"/>
            <circle cx="194.68" cy="219.84" r="36.99"/>
            <circle cx="171.37" cy="182.86" r="36.99"/>
            <circle cx="192.15" cy="95.71" r="36.99"/>
            <circle cx="219" cy="71.9" r="36.99"/>
            <circle cx="267.13" cy="51.12" r="36.99"/>
            <circle cx="314.25" cy="72.4" r="36.99"/>
            <circle cx="174.92" cy="131.18" r="36.99"/>
            <circle cx="219" cy="252.78" r="36.99"/>
            <circle cx="315.27" cy="51.12" r="36.99"/>
            <circle cx="351.24" cy="71.9" r="36.99"/>
            <circle cx="389.24" cy="137.76" r="36.99"/>
            <circle cx="389.24" cy="180.83" r="36.99"/>
            <circle cx="371" cy="94.19" r="36.99"/>
            <path class="cls-16" d="m211.86,336.67l-24.8,8.72s-26.27,85.14-10.37,119.78l15.03,42.48h181.02l23.31-42.48s14.02-23.42-6.69-115.11l-27.74-7.82-77.91,76.93-71.85-82.5"/>
            <path class="cls-12" d="m346.88,507.6s19.65-93.12,53.23-87.92l-1.1-14.23s-38.89-47.61-54.78,23.38c0,0-12.56,38.82-6.62,78.77h9.27Z"/>
            <path class="cls-12" d="m173.16,424.07s46.66,15.66,54.08,83.53l21.18.06s-34.65-187.33-73.52-98.11c-38.87,89.21,0,0,0,0l-1.74,14.52"/>
            <polyline class="cls-12" points="277.15 457.63 285.43 465.18 308.55 435.48 291.69 507.66 281.09 507.66 257.29 432.3 277.15 457.63"/>
            <path class="cls-14" d="m239.62,271.42s13.95,46.51-27.76,65.25c0,0,34.01,97.22,73.57,128.5,0,0,67.92-84.85,76.19-122.94,0,0-39.57-13.54-33.68-66.82,0,0-40.4,47.42-88.31-3.99Z"/>
            <path class="cls-14" d="m227.41,238.04s4.95,54.94,56.39,58.4c51.44,3.46,58.16-58.4,58.16-58.4,0,0,6,10.61,16.61-22.63,10.61-33.23-9.9-2.83-9.9-2.83,0,0,10.61-111.58-64.87-104.75-75.48,6.83-60.98,101.57-60.98,101.57,0,0-18.38-22.27-12.37,3.54,6.01,25.81,15.2,32.52,16.97,25.1Z"/>
            <path class="cls-18" d="m239.62,271.42s4.23,32.55,61.5,56.94c57.27,24.39,54.72,30.37,54.72,30.37l5.77-16.5s-38.69-14.07-33.68-66.82c0,0-34.92,45.48-88.31-3.99Z"/>
            <path class="cls-14" d="m400.81,448.56c7.07,24.75,20.15,59.04,20.15,59.04h65.05l-5.71-42.42s-22.21-95.8-42.36-102.87c-14.63-5.13-48.58-12.24-48.58-12.24"/>
            <path class="cls-14" d="m187.06,345.39c-9.78,30.46-15.48,94.04-15.48,94.04-12.18,18.8-24.59,68.17-24.59,68.17h-51.61c.71-21.43,11.51-80.91,15.1-100.25.78-4.21,1.95-8.33,3.49-12.32,13.37-34.6,17.95-32.58,26.63-36.29"/>
            <path class="cls-17" d="m294.4,201c-.41-.2-.74-.51-.96-.91-.46-.84-.77-2.42,2.2-3.66,4.25-1.77,17-8.5,30.1-5.67,0,0,6.02,1.08,10.09,4.61s-2.66-.01-5.49-.72-10.62-2.12-19.83,1.42c-6.39,2.46-8.6,3.72-9.36,4.26-.44.31-.93.54-1.44.68-1.32.37-3.61.79-5.31-.03Z"/>
            <path class="cls-17" d="m276.87,200.33s1.5-1.93-1.77-3.9c-1.77-1.06-16.31-7.75-26.74-6.35-10.44,1.4-13.98,5.29-13.98,5.29,0,0-3.38,3.47,1.23.63.25-.15.52-.27.81-.35,2.06-.56,10.88-2.67,18.83-.54,4.98,1.33,7.46,2.04,14.54,5.93,0,0,4.25,2.48,7.08-.71Z"/>
            <path d="m222.82,209.4s15.94-13.38,25.06-37.7c0,0,7.38-13.11,19.15-10.1s34.05-.03,40.13-5.61c0,0,0,20.27,41.51,56.58,0,0,6.86-9.89,10.04-11.95s-4.5-91.92-62.48-93.1-74.8,31.05-84.37,92.96c0,0,3.6,1.11,10.96,8.91Z"/>
            <path d="m319.83,181.34s-3.04,7.09,1.27,11.65c2.66,2.81.76,6.31.76,6.31,0,0,4.56-3.78.93-8.27-2.7-3.34,1.77-4.76,1.77-4.76l-4.73-4.94Z"/>
            <path d="m250.76,164.99c.2-.4.8-.2.72.23-.96,5.36-3.29,17.4-5.63,21.68s-1.79,4.29,0,6.09c1.03,1.03,1.36,1.82,1.47,2.23.05.2.05.41,0,.61-.11.4-.45,1.16-1.47,2.09,0,0,1.43-2.95-1.01-3.92-5.12-2.03-2.6-4.21-1.63-7.7.13-.47-.24-.93-.73-.92-.46.02-1.15.26-2.2,1.02l10.48-21.41Z"/>
            <path d="m245.92,178.8c.75.45-2.9,8.3-3.06,9.18-1.93,10.8-6.94,27.91-11.64,36.53-4.54,8.34-3.61,8.65,0,12.25,2.06,2.06,1.97,1.82,2.98,3.85.19.38.51,1.52.51,2.03,0,.84.03,3.7-2.03,5.57,0,0,.86-6.41-3.5-9.41-9.17-6.3-6.54-8.98-3.29-15.51,2.23-4.47-1.86-13.63-2.84-13.59-.92.03,2.11-1.53,0,0l22.87-30.91Z"/>
            <path d="m348.67,212.59s-5.88.64-4.52,8.78c.51,3.04,1.01,4.56-3.04,8.61-1.22,1.22-1.9,2.11-2.67,3.65-1.13,2.24-2.1,5.71-1.39,10.54,0,0-7.09-11.15-.39-16.02,6.72-4.89,3.81-23.33-7.27-34.31l19.28,18.75Z"/>
            <path class="cls-18" d="m323.59,413s-21.76-5.45-35.19,17.53c-13.43,22.98,5.05-6.14,25.68-3.25l9.51-14.28Z"/>
            <path class="cls-13" d="m227.24,374.89s19.79-4.81,39.24,12.51c19.44,17.32-4.81,1.51-31.04,5.17l-8.2-17.68Z"/>
            <path class="cls-2" d="m281.32,236.09s-.71-.71-2.47,0c-1.77.71-4.61,3.27-5.66-.66s6.02-3.23,7.43-1.81,2.44,2.92.71,2.47Z"/>
            <path class="cls-2" d="m286.27,236.45s2.07-1.41,3.86,0,4.98.35,4.98.35c0,0,3.89-4.6-2.83-4.6,0,0-2.12-.72-6.01,3.18,0,0-1.06,1.07,0,1.07Z"/>
            <path class="cls-18" d="m270.52,233.18c.25-.26.51-.5.81-.71,1.68-1.14,6.42-3.98,9.29-1.68,3.54,2.83,4.6,1.77,7.07,0s6.01-1.41,9.19,1.06c3.18,2.47,4.22,1.06,4.22,1.06,0,0,3.56-2.12-.68,2.47,0,0-2.12,2.83-6.36,2.12.1.02.42-1.53.44-1.63.15-.85.23-1.92-.34-2.64-.72-.91-2.11-.65-3.07-.39-.07.02-.14.04-.2.07-.44.24-.76.66-1.13.99-.56.5-1.11,1-1.67,1.5-.49.44-.98.88-1.46,1.32-2.01,1.81-4.16-.24-5.14-1.4-.54-.64-1.18-1.19-1.91-1.61-1.49-.84-3.86-1.7-5.65-.03-.36.34-.63.77-.71,1.26-.11.71.1,1.73,1.76,2.56,0,0-3.99,1.56-7.42-2.86-.33-.43-.52-.95-.52-1.49s.23-1.03,1.22-.24c1.24.99,1.95.59,2.27.27Z"/>
            <circle class="cls-13" cx="284.68" cy="228.14" r="2.3"/>
            <path class="cls-9" d="m258.7,255.54s1.79,10.26,12.73,14.85c10.96,4.6,21.56,1.41,21.56,1.41,0,0,5.3,0,15.72-16.26,0,0-14.66,3.89-24.49-1.29l-25.52,1.29Z"/>
            <path class="cls-15" d="m258.7,255.54s5.66-1.77,12.37-6.01c3.61-2.28,6.09-2.72,7.62-2.64.83.04,1.64.34,2.27.88.71.6,2.57,1.59,6.02-.15,4.6-2.33,8.13.15,10.61,1.92s7.76,6.36,11.13,6.01c0,0-1.94,4.24-8.3,3.54-6.36-.71-9.19-3.26-13.43-1.8s-4.6.74-7.42.04-3.54-1.06-7.78.35-7.78,1.41-13.08-2.12Z"/>
            <path class="cls-13" d="m421.17,357.51l16.77,4.8s6.1.45,15.25,19.31c8.2,16.91,12.25,29.34,3.54,21.35-1.97-1.81-3.64-3.9-5.03-6.19-3.7-6.11-14.07-21.49-28.46-28.48-11.36-5.52-10.15-8.59-7.64-10.12,1.66-1.01,3.7-1.21,5.57-.68Z"/>
            <path class="cls-18" d="m400.69,444.92l-.58-5.55s9.19-24.39,32.88,68.23h-12.02s-20.4-54.66-20.28-62.68Z"/>
            <path class="cls-13" d="m161.13,353.46l25.93-8.07-2.92,10.28s-41.75,6.98-23.01-2.21Z"/>
            <path class="cls-1" d="m225.81,206.45c6.12-1.26,38.49-7.22,54.62,3.98.37.26.79.42,1.24.46,1.28.12,4.11.31,6.91-.08,3.79-.52,7.94-12.44,56.16-5.18,0,0,2.07-1.72,0,15.99,0,0-.5,6.3-11.4,10.45-10.9,4.15-26.52,7.17-35.04.99,0,0-3.68-2.75-8.86-14.09-.09-.2-.16-.41-.22-.61-.14-.46-.73-1.49-3.11-2.04-2.05-.47-4.22.31-5.38,2.06-.32.49-.6,1.07-.8,1.76-1.04,3.63-7.4,17.02-18.48,16.29-10.05-.67-20.8-1.58-30.83-7.94-1.97-1.25-3.39-3.2-3.95-5.46-1.01-4.06-2.46-10.93-2.03-15.32.06-.63.54-1.14,1.16-1.27Z"/>
            <path class="cls-6" d="m229.54,221.52c0,.51-1.11.93-2.48.93s-2.48-.42-2.48-.93,1.11-.31,2.48-.31,2.48-.2,2.48.31Z"/>
            <path class="cls-6" d="m230.04,223.25c0,.51-1.11.93-2.48.93s-2.48-.42-2.48-.93,1.11-.31,2.48-.31,2.48-.2,2.48.31Z"/>
            <path class="cls-6" d="m337.01,203.49c.51,0,.93,1.11.93,2.48s-.42,2.48-.93,2.48-.31-1.11-.31-2.48-.2-2.48.31-2.48Z"/>
            <path class="cls-6" d="m339.29,204.06c.51,0,.93,1.11.93,2.48s-.42,2.48-.93,2.48-.31-1.11-.31-2.48-.2-2.48.31-2.48Z"/>
          </g>
          <g>
            <g>
              <g>
                <path class="cls-11" d="m504.78,507.36c-6.81,0-13.42.6-19.71,1.74-11.75-19.22-39.39-32.72-71.62-32.72-18.72,0-35.89,4.55-49.3,12.14-14.19-10.59-34.53-17.23-57.13-17.23s-40.87,5.98-54.93,15.65c-14.25-11.29-35.26-18.43-58.69-18.43-32.65,0-60.59,13.85-72.07,33.48-3.93-.43-7.96-.64-12.07-.64-42.89,0-77.66,23.91-77.66,53.41,0,27.49,30.2,50.13,69.03,53.08,9.92,21.64,39.33,37.33,74.08,37.33,23.79,0,45.08-7.36,59.33-18.94,14.25,11.58,35.54,18.94,59.33,18.94s45.8-7.61,60.05-19.53c14.25,11.93,35.85,19.53,60.05,19.53,32.23,0,59.87-13.5,71.62-32.72,6.29,1.14,12.9,1.74,19.71,1.74,42.89,0,77.66-23.91,77.66-53.41s-34.77-53.41-77.66-53.41Z"/>
                <path class="cls-10" d="m413.46,647.06c-23.14,0-44.92-6.9-60.05-18.98-15.13,12.08-36.9,18.98-60.05,18.98s-44.24-6.7-59.33-18.41c-15.09,11.72-36.61,18.41-59.33,18.41-34.29,0-64.36-14.99-75.32-37.42-39.8-3.41-69.68-26.87-69.68-54.88,0-30.5,35.69-55.31,79.56-55.31,3.72,0,7.43.18,11.06.53,12.58-20.31,41.08-33.36,73.07-33.36,22.39,0,43.71,6.54,58.77,17.98,14.84-9.82,34.25-15.21,54.85-15.21s42.34,6.14,57.27,16.88c13.95-7.61,31.35-11.79,49.16-11.79,31.42,0,59.71,12.73,72.54,32.53,6.1-1.03,12.41-1.55,18.78-1.55,43.87,0,79.56,24.81,79.56,55.31s-35.69,55.31-79.56,55.31c-6.37,0-12.68-.52-18.78-1.55-12.84,19.8-41.12,32.53-72.54,32.53Zm-60.05-23.91l1.22,1.02c14.49,12.13,35.93,19.09,58.83,19.09,30.71,0,58.18-12.49,70-31.81l.68-1.11,1.28.23c6.27,1.13,12.79,1.71,19.37,1.71,41.78,0,75.76-23.11,75.76-51.51s-33.99-51.51-75.76-51.51c-6.59,0-13.1.57-19.37,1.71l-1.28.23-.68-1.11c-11.81-19.33-39.29-31.81-70-31.81-17.63,0-34.81,4.23-48.37,11.9l-1.08.61-.99-.74c-14.34-10.71-34.75-16.85-55.99-16.85s-39.49,5.44-53.85,15.32l-1.16.8-1.1-.87c-14.45-11.45-35.41-18.02-57.51-18.02-15.52,0-30.45,3.18-43.16,9.2-12.32,5.83-21.75,13.9-27.27,23.34l-.62,1.06-1.22-.13c-3.88-.42-7.87-.63-11.86-.63-41.78,0-75.76,23.11-75.76,51.51,0,26.27,28.92,48.27,67.27,51.18l1.12.08.47,1.02c4.68,10.21,14.22,19.4,26.87,25.88,13.21,6.77,28.93,10.34,45.48,10.34,22.47,0,43.66-6.75,58.13-18.52l1.2-.97,1.2.97c14.47,11.77,35.66,18.52,58.13,18.52s44.33-6.96,58.83-19.09l1.22-1.02Z"/>
              </g>
              <path class="cls-10" d="m134.83,557.87l-3.62-1.16c3.88-12.09,15.23-20.95,28.92-22.58,14.78-1.76,28.72,5.29,34.69,17.53l-3.42,1.66c-5.26-10.79-17.65-16.99-30.83-15.42-12.22,1.45-22.33,9.29-25.75,19.97Z"/>
              <path class="cls-10" d="m243.3,570.93c-.85-7.12-4.73-13.47-10.94-17.86-6.27-4.44-14.15-6.35-22.19-5.4-6.25.74-14.03,1.67-19.09,5l-2.09-3.17c5.82-3.83,14.09-4.81,20.73-5.6,8.97-1.07,17.79,1.09,24.83,6.07,7.1,5.02,11.55,12.31,12.52,20.51l-3.77.45Z"/>
              <path class="cls-10" d="m284.75,532.75l-3.62-1.16c3.88-12.09,15.23-20.95,28.92-22.58,14.78-1.75,28.72,5.29,34.69,17.53l-3.42,1.66c-5.26-10.79-17.65-16.99-30.83-15.42-12.22,1.45-22.33,9.29-25.75,19.97Z"/>
              <path class="cls-10" d="m393.22,545.8c-.85-7.12-4.73-13.47-10.94-17.86-6.27-4.44-14.15-6.35-22.19-5.4-6.25.74-14.02,1.67-19.09,5l-2.09-3.17c5.82-3.83,14.09-4.81,20.73-5.6,8.97-1.06,17.79,1.09,24.83,6.07,7.1,5.02,11.55,12.31,12.52,20.51l-3.77.45Z"/>
              <path class="cls-10" d="m440.5,582.13l-3.62-1.16c3.88-12.09,15.23-20.95,28.92-22.58,14.78-1.76,28.72,5.29,34.69,17.53l-3.42,1.66c-5.26-10.79-17.65-16.99-30.83-15.42-12.22,1.45-22.33,9.29-25.75,19.97Z"/>
            </g>
            <g>
              <polygon class="cls-5" points="580.28 499.45 586.49 569.06 641.82 576.88 586.49 584.7 580.28 654.3 574.06 584.7 518.73 576.88 574.06 569.06 580.28 499.45"/>
              <polygon class="cls-7" points="580.28 576.88 641.82 576.88 586.49 584.7 580.28 576.88"/>
              <polygon class="cls-7" points="586.49 569.06 580.28 499.45 580.28 576.88 586.49 569.06"/>
              <polygon class="cls-7" points="574.06 569.06 518.73 576.88 580.28 576.88 574.06 569.06"/>
              <polygon class="cls-7" points="574.06 584.7 580.28 654.3 580.28 576.88 574.06 584.7"/>
            </g>
            <polygon class="cls-5" points="51.2 444.1 56.37 502.01 102.4 508.52 56.37 515.02 51.2 572.93 46.03 515.02 0 508.52 46.03 502.01 51.2 444.1"/>
            <polygon class="cls-7" points="51.2 508.52 102.4 508.52 56.37 515.02 51.2 508.52"/>
            <polygon class="cls-7" points="56.37 502.01 51.2 444.1 51.2 508.52 56.37 502.01"/>
            <polygon class="cls-7" points="46.03 502.01 0 508.52 51.2 508.52 46.03 502.01"/>
            <polygon class="cls-7" points="46.03 515.02 51.2 572.93 51.2 508.52 46.03 515.02"/>
            <polygon class="cls-8" points="611.03 531.92 614.2 544.42 626.7 547.59 614.2 550.75 611.03 563.25 607.87 550.75 595.36 547.59 607.87 544.42 611.03 531.92"/>
            <polygon class="cls-3" points="611.03 547.59 626.7 547.59 614.2 550.75 611.03 547.59"/>
            <polygon class="cls-3" points="611.03 531.92 611.03 547.59 614.2 544.42 611.03 531.92"/>
            <polygon class="cls-3" points="607.87 544.42 595.36 547.59 611.03 547.59 607.87 544.42"/>
            <polygon class="cls-3" points="607.87 550.75 611.03 563.25 611.03 547.59 607.87 550.75"/>
            <polygon class="cls-8" points="538.06 599.8 541.22 612.3 553.72 615.46 541.22 618.63 538.06 631.13 534.89 618.63 522.39 615.46 534.89 612.3 538.06 599.8"/>
            <polygon class="cls-3" points="538.06 615.46 553.72 615.46 541.22 618.63 538.06 615.46"/>
            <polygon class="cls-3" points="538.06 599.8 538.06 615.46 541.22 612.3 538.06 599.8"/>
            <polygon class="cls-3" points="534.89 612.3 522.39 615.46 538.06 615.46 534.89 612.3"/>
            <polygon class="cls-3" points="534.89 618.63 538.06 631.13 538.06 615.46 534.89 618.63"/>
            <polygon class="cls-8" points="58.93 569.2 62.01 581.38 74.18 584.46 62.01 587.54 58.93 599.72 55.84 587.54 43.67 584.46 55.84 581.38 58.93 569.2"/>
            <polygon class="cls-3" points="58.93 584.46 74.18 584.46 62.01 587.54 58.93 584.46"/>
            <polygon class="cls-3" points="58.93 569.2 58.93 584.46 62.01 581.38 58.93 569.2"/>
            <polygon class="cls-3" points="55.84 581.38 43.67 584.46 58.93 584.46 55.84 581.38"/>
            <polygon class="cls-3" points="55.84 587.54 58.93 599.72 58.93 584.46 55.84 587.54"/>
            <polygon class="cls-8" points="15.53 525.81 18.61 537.98 30.79 541.07 18.61 544.15 15.53 556.32 12.45 544.15 .28 541.07 12.45 537.98 15.53 525.81"/>
            <polygon class="cls-3" points="15.53 541.07 30.79 541.07 18.61 544.15 15.53 541.07"/>
            <polygon class="cls-3" points="15.53 525.81 15.53 541.07 18.61 537.98 15.53 525.81"/>
            <polygon class="cls-3" points="12.45 537.98 .28 541.07 15.53 541.07 12.45 537.98"/>
            <polygon class="cls-3" points="12.45 544.15 15.53 556.32 15.53 541.07 12.45 544.15"/>
            <polygon class="cls-8" points="498.79 505.06 505.79 532.7 533.42 539.69 505.79 546.69 498.79 574.32 491.8 546.69 464.16 539.69 491.8 532.7 498.79 505.06"/>
            <polygon class="cls-3" points="498.79 539.69 533.42 539.69 505.79 546.69 498.79 539.69"/>
            <polygon class="cls-3" points="498.79 505.06 498.79 539.69 505.79 532.7 498.79 505.06"/>
            <polygon class="cls-3" points="491.8 532.7 464.16 539.69 498.79 539.69 491.8 532.7"/>
            <polygon class="cls-3" points="491.8 546.69 498.79 574.32 498.79 539.69 491.8 546.69"/>
            <polygon class="cls-8" points="95.62 454.42 97.53 461.94 105.05 463.85 97.53 465.75 95.62 473.27 93.72 465.75 86.19 463.85 93.72 461.94 95.62 454.42"/>
            <polygon class="cls-3" points="95.62 463.85 105.05 463.85 97.53 465.75 95.62 463.85"/>
            <polygon class="cls-3" points="95.62 454.42 95.62 463.85 97.53 461.94 95.62 454.42"/>
            <polygon class="cls-3" points="93.72 461.94 86.19 463.85 95.62 463.85 93.72 461.94"/>
            <polygon class="cls-3" points="93.72 465.75 95.62 473.27 95.62 463.85 93.72 465.75"/>
            <polygon class="cls-8" points="553.59 541.07 554.99 546.62 560.55 548.03 554.99 549.43 553.59 554.98 552.18 549.43 546.63 548.03 552.18 546.62 553.59 541.07"/>
            <polygon class="cls-3" points="553.59 548.03 560.55 548.03 554.99 549.43 553.59 548.03"/>
            <polygon class="cls-3" points="553.59 541.07 553.59 548.03 554.99 546.62 553.59 541.07"/>
            <polygon class="cls-3" points="552.18 546.62 546.63 548.03 553.59 548.03 552.18 546.62"/>
            <polygon class="cls-3" points="552.18 549.43 553.59 554.98 553.59 548.03 552.18 549.43"/>
          </g>
        </g>
        <path class="cls-4" d="m281.93,28.33c-19.85,0-38.52-1.26-52.58-3.55-21.01-3.42-23.44-7.7-23.44-10.62s2.43-7.2,23.44-10.62c14.06-2.29,32.74-3.55,52.58-3.55s38.52,1.26,52.58,3.55c21.01,3.42,23.44,7.7,23.44,10.62s-2.43,7.2-23.44,10.62c-14.06,2.29-32.74,3.55-52.58,3.55Zm-71.73-14.14s1.41,3.46,20.8,6.5c13.73,2.15,31.82,3.34,50.93,3.34s37.2-1.19,50.93-3.34c18.56-2.91,20.63-6.21,20.79-6.53-.16-.32-2.23-3.62-20.79-6.53-13.73-2.15-31.82-3.34-50.93-3.34s-37.2,1.19-50.93,3.34c-19.43,3.05-20.79,6.52-20.8,6.55h0Z"/>
      </g>
      <path class="cls-6" d="m223.33,291.41c-4.71,0-7.53-13.67-7.53-26.88,0-11.99,2.21-22.61,5.36-25.82l.51.5c-3.04,3.1-5.16,13.51-5.16,25.32,0,15.65,3.52,26.17,6.81,26.17s6.81-10.51,6.81-26.17-2.68-26.88-6.09-26.88v-.72c4.68,0,6.81,14.31,6.81,27.6s-2.82,26.88-7.53,26.88Z"/>
      <path class="cls-6" d="m346.63,290.7c-3.81,0-6.09-13.67-6.09-26.88s1.19-26.83,4.52-28.29l.29.66c-2.44,1.07-4.09,12.17-4.09,27.63s2.78,26.17,5.38,26.17,5.38-10.51,5.38-26.17c0-12.17-1.83-22.94-4.35-25.61l.52-.49c2.68,2.83,4.55,13.57,4.55,26.1,0,13.21-2.28,26.88-6.09,26.88Z"/>
    </g>
  </g>
</svg>