<?xml version="1.0" encoding="UTF-8"?>
<svg id="Layer_2" data-name="Layer 2" xmlns="http://www.w3.org/2000/svg" viewBox="0 0 642 474.27">
  <defs>
    <style>
      .cls-1 {
        fill: #f9ceaa;
      }

      .cls-2 {
        fill: #fabd8d;
      }

      .cls-3 {
        fill: #f5a16e;
      }

      .cls-4 {
        fill: #fdd721;
      }

      .cls-5 {
        fill: #fda803;
      }

      .cls-6 {
        fill: #fff56a;
      }

      .cls-7 {
        fill: #fdda56;
      }

      .cls-8 {
        fill: #ff71ab;
      }

      .cls-9 {
        fill: #fdec1f;
      }

      .cls-10 {
        fill: #733e1a;
      }

      .cls-11 {
        fill: #a04954;
      }

      .cls-12 {
        fill: #95017d;
      }

      .cls-13 {
        fill: #bd0271;
      }

      .cls-14 {
        fill: #bb685f;
      }

      .cls-15 {
        fill: #ab6152;
      }

      .cls-16 {
        fill: #6cacff;
      }

      .cls-17 {
        fill: #5672c0;
      }
    </style>
  </defs>
  <g id="Girls_girl" data-name="Girls girl">
    <g>
      <g>
        <path class="cls-8" d="m184.53,80.86c0,27.44-32.67,40.71-59.98,40.71s-37.74-35.22-37.74-62.66,26.81-41.11,53.63-35.92c32.97,6.39,44.09,30.43,44.09,57.87Z"/>
        <path class="cls-8" d="m354.68,31.61s3.62,6.07-3.62,6.07-7.46,6.75-7.46,6.75c0,0,2.23,9.02-5.42,7s-8.05,3.23-8.05,3.23c-9.26,17.39-59.16-4.45-76.06-7.68-16.9-3.23-1.61-4.85,8.85-6.47,10.46-1.62,1.21-6.47-.4-8.09s4.42-2.8,4.42-2.8c0,0-12.07-2.05-6.44,4.82s-8.85,2.83-8.85,2.83C107.97-28.63,86.44,48.59,86.44,48.59c-43.52,136.23,100.01,132.77,167.53,106.95,1.07-.41,2.18-.67,3.32-.77,6.29-.52,14.69-.37,21.43,2.72,5.59,2.57,12.37-.9,14.51-2.15.38-.22.74-.48,1.09-.76,1.63-1.32,7.59-5.9,7.23-1.89-.63,7.03,9.29,3.43,9.29,3.43,0,0,3.22-.71,3.61-6.21.39-5.5,6.02-4.29,6.02-4.29,0,0-6.75-4.22-10.46,3.23-3.62,7.28-4.59-4.81-4.59-4.81,0,0,.07-12.5-14.93.42-1.99,1.72-4.75,2.25-7.21,1.33-4.71-1.77-9.64-6.44,3.54-18.53.5-.46,1.04-.88,1.6-1.25l6.61-4.32c.35-.23.72-.45,1.1-.64,13.21-6.56,22.64,4.84,34.28-12,5.2-7.51,6.05-7.41,7.66-8.47.1-.07,6.42-2.82,6.96-3.9,1.61-3.23-4.18-4.88-2.19-5.27,2.1-.42,3.58-.8,3.58-.8-7.94-.8-8.34.8-4.37,4.39,1.06.96-7.1,2-8.74,2-4.37,0-5.56-.4-6.75-2.39-.46-.77-1.59-3.19.25-6.06.63-.99,1.34-1.52,2.14-2.72l.28-.42c2.88-5.15,4.14-8.12,4.14-8.12,0,0,3.22-13.34,11.94-15.99s8.19-7.86,6.46-12.71c-1.72-4.85,2.53-6.4,2.53-6.4,8.86-5.59.4-10.58.4-10.58Z"/>
        <path class="cls-2" d="m126.77,132.71s10.69,28.16-7.18,31.75c0,0-6.93,2-28.89,0-21.96-2-28.71,31.93-28.71,31.93,0,0-2.72,15.87-.61,32.69.39,3.15.28,6.34-.28,9.47-.76,4.27-2.47,9.91-3.08,13.31-2.58,14.57-9.53,58.66-11.12,75.43-1.59,16.76,3.58,25.14,29,12.37,25.42-12.77,79.25-38.91,92.35-40.91l-17.08-17.16s-11.12,4.79-32.31,11.23c0,0-25.89,8.12-29.07,7.32s14.3-65.05,14.3-65.05l30.98,25.94,70.71-65.45-11.12-43.9s-32.66,1.68-24.28-55.23c0,0-1.81,2.44-3.27-1.5,0,0-.6,21.56-40.35,37.75Z"/>
        <path class="cls-2" d="m194.66,152.09s22.64-10.38,42.11-7.98c19.46,2.39,37.74,10.38,57.2,23.15,19.46,12.77,66.73,19.95,66.73,19.95,0,0,30.58,6.45,24.02,26.74-.33,1.03-.89,1.97-1.64,2.75-4.68,4.83-25.72,24.29-80.37,46.74,0,0-4.85,4.15-12.55,23.03-7.7,18.88-17.83,26.66-13.46,15.89l7.15-17.56s-1.79-2.59-8.94,10.18c-7.15,12.77-18.87,26.54-4.57-3.79,0,0,8.34-21.15-3.18-2-11.52,19.16-16.68,24.34-8.74,2,0,0,4.77-7.98,8.74-12.77s-5.16,2.79-11.12,9.58c-5.37,6.12-9.53,13.17-7.15,3.19,1.2-5.02,5.38-9.66,8.74-13.57,6.57-7.66,15.88-19.49,29-25.94,19.41-9.55,46.28-39.31,46.28-39.31,0,0-42.97-7.1-62.56-12.44-1.76-.48-3.59-.63-5.41-.46l-7.3.72s-.37-29.49-31.64-42.3c-8.16-3.34-18.42-5.54-31.32-5.79Z"/>
        <path class="cls-3" d="m126.77,132.71s35.85-13.46,40.35-37.75c4.5-24.29,0,0,0,0,0,0,1.23,3.74,3.27,1.5s0,0,0,0c0,0-1.15,6.94-1.37,16.07-.22,8.83,0,0,0,0,0,0-5.68,5.34-18.05,32.78-9.53,21.15-30.19,18.76-30.19,18.76,0,0,14.7-6.78,5.99-31.35"/>
        <path class="cls-3" d="m135.08,261.04l-30.98-25.94s2.38-27.54,7.55-20.35c2.79,3.88,6.05,8,8.45,10.97,2.54,3.13,4.64,6.6,6.23,10.31,2.33,5.44,5.74,14.68,8.76,25.02Z"/>
        <path class="cls-1" d="m71.12,174.84s-12.71,13.17-10.07,51.36c0,0-.66,9.7-1.85,19.28-1.26,10.15-17.14,93.05-11.12,92.19,5.56-.8,15.58-24.72,17.48-48.69.19-2.42,3.07-26.36,3.58-28.73,0,0,1.08-85.57,15.84-95.46,0,0-5.9.48-13.85,10.06Z"/>
        <path class="cls-2" d="m224.3,156.83s14.87-6.56,38.3,7.32c23.43,13.89,56,20.35,56,20.35,0,0,75.08,11.09,19.86,53.8,0,0-18.27-6.39-29-3.19l23.44-23.15-78.78-27.46s-7.73-18.95-29.82-27.67Z"/>
        <path class="cls-3" d="m257.62,199.78s-2.05-12.01-3.51-15.28c0,0,72.03,22.27,78.78,27.46,0,0-48.9-8.67-60.6-11.92,0,0-6.14-2.05-14.68-.26Z"/>
        <ellipse class="cls-16" cx="102.67" cy="108.6" rx="6.02" ry="6.04"/>
        <ellipse class="cls-16" cx="102.67" cy="118.78" rx="4.75" ry="4.77"/>
        <ellipse class="cls-16" cx="102.67" cy="126.41" rx="3.48" ry="3.5"/>
        <path class="cls-2" d="m162.48,81.86s-2.78-13.17,9.53-9.58c12.31,3.59-3.25,33.61-4.9,22.69,0,0,4.7,9.84-12.78,23.8s-38.53,20.75-46.08,4.39c0,0-3.58-7.58-9.14-14.37s-5.96-16.36-5.96-23.94-8.74-22.22,0-31.86,43.3-12.03,49.26-8.84c5.96,3.19,4.77,5.59,5.56,10.38.79,4.79,5.56,6.78,9.53,9.18,3.97,2.39.79,5.19.79,7.58s0,6.78,4.17,10.58Z"/>
        <path class="cls-3" d="m100.12,64.3s6.75-2,5.96,15.56c0,0-.32,4.84-2.55-2.57-2.22-7.41-7.78-10.6-7.78-10.6,0,0-3.18-2.39,4.37-2.39Z"/>
        <path d="m164.07,64.3l-26.85,7.19.23-3.99c.09-1.4-1.05-2.29-2.38-2l-16.1,4.33c-3.39,1.03-6.46,3.09-8.51,6.04-1.07,1.54-2.61,2.67-4.59,1.47-3.01-1.83-6.49-2.68-9.94-2.1l-10.11.64c-2.56.43-4.05,4.07-2.78,6.39,3.92,7.12,13.06,19.05,19.86,11.78.52-.56,1.89-5.19,2.17-5.91.73-1.88,4.53-3.75,8.31-.37,8.59,7.68,15.74,4.49,22.76-10.35l27.14-7.51.79-5.59Z"/>
        <path class="cls-15" d="m111.24,99.02s7.55,2,6.36-2c-.61-2.06-6.75,1.6-6.75,1.6,0,0-.4.4.4.4Z"/>
        <path class="cls-3" d="m105.28,97.42s1.99,4.79,5.96,1.6,5.16-2.39,5.56-1.2c.27.81-.19,1.26-.52,1.46-.06.03-.03.12.04.11.96-.11,3.79-.73,4.45-4.37,0,0-.28-.56-.6.2-.18.41-.55.7-.99.72-.74.04-1.98-.06-3.6-.75-.33-.14-.68-.21-1.04-.21-.85,0-2.36.17-3.69,1.24-1.99,1.6-3.18,1.6-4.77.8s-.79.4-.79.4Z"/>
        <path class="cls-14" d="m132.04,106.18s-4.77,11.97-9.14,11.57c-2.73-.25-3.91.59-4.41,1.26-.68.9-1.69,1.51-2.82,1.49-1.86-.03-4.45-1.33-6.67-7.14l-.4-3.59,14.7-3.19,8.74-.4Z"/>
        <path class="cls-11" d="m132.04,106.18s-7.94-.4-11.12-2.79c-3.18-2.39-7,1.4-7,1.4,0,0-.95,1-3.33.2s-3.97,7.18-1.59,8.38c0,0,.79-2,4.77-1.6,2.19.22,3.83-.26,4.87-.74.57-.26,1.06-.67,1.5-1.12.39-.41,1.52-1.06,4.72-1.33,4.8-.4,7.18-2.39,7.18-2.39Z"/>
        <path class="cls-8" d="m154.94,52.32s-4.37,3.19-1.19,7.18c0,0,9.14,4.53,4.37,10.38-4.36,5.35,1.19,8.78,1.19,8.78,0,0,3.31,2.46,1.61,5.91-1.61,3.27,2.76,5.66,2.76,5.66,0,0-2.12-2.92.79-6.39,4.37-5.19-1.19-6.94-1.19-8.38,0-3.19,4.77-7.98,4.77-7.98l.36-10.26s-2.41-23.84-13.46-4.91Z"/>
        <path class="cls-8" d="m149.77,50.33s-5.52.07,1.59,10.78c1.59,2.39-3.97,6.78-1.99,8.38.88.71,1.99,2.39,1.99,2.39,0,0,.79,2-1.19,3.59,0,0,4.37-1.6,2.38-5.59,0,0-1.59-2.79,1.99-3.99,3.47-1.16.79-5.19.79-5.19l7.94-11.57-13.51,1.2Z"/>
        <path class="cls-10" d="m110.94,67.05s-1.69-2.36,3.48-6.35c5.16-3.99,15.09-8.38,23.04-3.99s2.38,2-1.59,1.6c-3.51-.35-14.13,6.14-16.58,7.66-.28.18-.55.37-.81.58-1.08.88-4.77,3.49-7.54.49Z"/>
        <path class="cls-10" d="m102.04,71.32c1.03.1,1.94-.65,2.03-1.69.17-2.03-.18-5.95-5.14-6.53-6.75-.8-9.53,1.6-9.53,1.6,0,0-.4,2.27.4,4.39,0,0,5.16-.8,9.14,1.2,1.36.68,2.37.97,3.11,1.04Z"/>
        <path class="cls-16" d="m194.86,151.9c53.63,2.39,58.84,31.49,61.17,38.31s4.89,38.03,47.07,41.3c79.64,6.19,203.98,119.52,203.98,119.52l-142.21,86.2c-137.63-17.94-97.92-97.58-149.95-113.14-52.04-15.56-79.84-63.05-79.84-63.05,0,0-1.46-40.23,31.25-62.82s16.42-50.12,16.42-50.12l12.12,3.79Z"/>
        <path class="cls-17" d="m258.22,198.39s-5.56,23.94-26.22,27.94c0,0,22.92-1.49,28.2-22.75l-1.99-5.19Z"/>
        <path class="cls-17" d="m150.55,281.4s43.31,4.39,52.45-36.72c0,0-3.18,45.89-45.28,43.1l-7.16-6.39Z"/>
        <ellipse class="cls-16" cx="169.17" cy="99.69" rx="6.02" ry="6.04"/>
        <ellipse class="cls-16" cx="169.17" cy="109.87" rx="4.75" ry="4.77"/>
        <ellipse class="cls-16" cx="169.17" cy="117.5" rx="3.48" ry="3.5"/>
      </g>
      <g>
        <g>
          <g>
            <path class="cls-13" d="m504.93,326.6c-6.81,0-13.42.6-19.72,1.75-11.75-19.32-39.4-32.88-71.64-32.88-18.72,0-35.9,4.58-49.32,12.2-14.19-10.65-34.54-17.32-57.14-17.32s-40.89,6.01-54.94,15.73c-14.25-11.34-35.27-18.52-58.71-18.52-32.66,0-60.6,13.92-72.09,33.64-3.93-.43-7.96-.65-12.07-.65-42.91,0-77.69,24.03-77.69,53.68,0,27.63,30.2,50.38,69.05,53.34,9.92,21.74,39.34,37.51,74.1,37.51,23.79,0,45.09-7.39,59.34-19.04,14.25,11.64,35.55,19.04,59.34,19.04s45.81-7.64,60.06-19.63c14.25,11.99,35.87,19.63,60.06,19.63,32.24,0,59.88-13.57,71.64-32.88,6.29,1.14,12.9,1.75,19.72,1.75,42.91,0,77.69-24.03,77.69-53.68s-34.78-53.68-77.69-53.68Z"/>
            <path class="cls-12" d="m413.57,466.99c-23.15,0-44.93-6.94-60.06-19.07-15.13,12.14-36.92,19.07-60.06,19.07s-44.25-6.73-59.34-18.51c-15.09,11.78-36.62,18.51-59.34,18.51-34.3,0-64.38-15.07-75.34-37.61-39.81-3.43-69.7-27-69.7-55.15,0-30.65,35.7-55.58,79.59-55.58,3.72,0,7.43.18,11.06.53,12.58-20.41,41.09-33.53,73.1-33.53,22.4,0,43.73,6.57,58.79,18.07,14.85-9.87,34.26-15.28,54.86-15.28s42.36,6.17,57.28,16.96c13.95-7.65,31.36-11.85,49.18-11.85,31.43,0,59.73,12.79,72.56,32.69,6.1-1.03,12.42-1.56,18.79-1.56,43.88,0,79.59,24.93,79.59,55.58s-35.7,55.58-79.59,55.58c-6.37,0-12.69-.52-18.79-1.56-12.84,19.9-41.13,32.69-72.57,32.69Zm-60.06-24.03l1.22,1.03c14.5,12.19,35.94,19.18,58.84,19.18,30.72,0,58.2-12.55,70.02-31.97l.68-1.12,1.28.23c6.27,1.14,12.79,1.72,19.38,1.72,41.79,0,75.79-23.22,75.79-51.77s-34-51.77-75.79-51.77c-6.59,0-13.11.58-19.38,1.72l-1.28.23-.68-1.12c-11.82-19.42-39.3-31.97-70.02-31.97-17.64,0-34.82,4.25-48.38,11.96l-1.08.61-.99-.75c-14.35-10.76-34.76-16.94-56.01-16.94s-39.51,5.47-53.86,15.39l-1.16.8-1.1-.88c-14.45-11.51-35.42-18.11-57.53-18.11-15.53,0-30.45,3.2-43.17,9.24-12.32,5.86-21.75,13.97-27.28,23.46l-.62,1.07-1.22-.13c-3.88-.42-7.87-.63-11.87-.63-41.79,0-75.79,23.22-75.79,51.77,0,26.4,28.93,48.51,67.29,51.44l1.12.09.47,1.02c4.68,10.26,14.22,19.5,26.87,26.01,13.21,6.8,28.94,10.39,45.5,10.39,22.48,0,43.67-6.78,58.14-18.61l1.2-.98,1.2.98c14.48,11.83,35.67,18.61,58.14,18.61s44.35-6.99,58.84-19.18l1.22-1.03Z"/>
          </g>
          <g>
            <path class="cls-12" d="m134.87,377.36l-3.62-1.17c3.88-12.15,15.24-21.06,28.93-22.69,14.79-1.77,28.73,5.32,34.7,17.62l-3.42,1.67c-5.26-10.84-17.65-17.07-30.83-15.5-12.22,1.46-22.33,9.33-25.76,20.07Z"/>
            <path class="cls-12" d="m243.37,390.48c-.85-7.16-4.73-13.53-10.95-17.95-6.27-4.46-14.16-6.38-22.19-5.42-6.25.75-14.03,1.67-19.1,5.02l-2.09-3.19c5.82-3.85,14.09-4.83,20.74-5.63,8.97-1.07,17.8,1.1,24.84,6.1,7.1,5.05,11.55,12.37,12.53,20.61l-3.77.45Z"/>
          </g>
          <g>
            <path class="cls-12" d="m284.83,352.11l-3.62-1.17c3.88-12.15,15.23-21.06,28.93-22.69,14.78-1.76,28.73,5.32,34.7,17.62l-3.42,1.67c-5.26-10.84-17.65-17.07-30.84-15.5-12.22,1.46-22.33,9.33-25.76,20.07Z"/>
            <path class="cls-12" d="m393.33,365.23c-.85-7.16-4.73-13.53-10.95-17.95-6.27-4.46-14.16-6.38-22.19-5.42-6.25.75-14.03,1.67-19.1,5.02l-2.09-3.19c5.82-3.85,14.09-4.83,20.74-5.63,8.97-1.07,17.79,1.1,24.84,6.1,7.1,5.05,11.55,12.37,12.53,20.61l-3.77.45Z"/>
          </g>
          <path class="cls-12" d="m440.63,401.74l-3.62-1.17c3.88-12.15,15.23-21.06,28.93-22.69,14.79-1.76,28.73,5.32,34.7,17.62l-3.42,1.67c-5.26-10.84-17.65-17.07-30.84-15.5-12.22,1.46-22.33,9.33-25.76,20.07Z"/>
        </g>
        <g>
          <polygon class="cls-6" points="580.44 318.65 586.66 388.6 642 396.46 586.66 404.32 580.44 474.27 574.22 404.32 518.88 396.46 574.22 388.6 580.44 318.65"/>
          <polygon class="cls-7" points="580.44 396.46 642 396.46 586.66 404.32 580.44 396.46"/>
          <polygon class="cls-7" points="586.66 388.6 580.44 318.65 580.44 396.46 586.66 388.6"/>
          <polygon class="cls-7" points="574.22 388.6 518.88 396.46 580.44 396.46 574.22 388.6"/>
          <polygon class="cls-7" points="574.22 404.32 580.44 474.27 580.44 396.46 574.22 404.32"/>
        </g>
        <g>
          <polygon class="cls-6" points="51.22 263.03 56.39 321.22 102.43 327.76 56.39 334.3 51.22 392.49 46.04 334.3 0 327.76 46.04 321.22 51.22 263.03"/>
          <polygon class="cls-7" points="51.22 327.76 102.43 327.76 56.39 334.3 51.22 327.76"/>
          <polygon class="cls-7" points="56.39 321.22 51.22 263.03 51.22 327.76 56.39 321.22"/>
          <polygon class="cls-7" points="46.04 321.22 0 327.76 51.22 327.76 46.04 321.22"/>
          <polygon class="cls-7" points="46.04 334.3 51.22 392.49 51.22 327.76 46.04 334.3"/>
        </g>
        <g>
          <polygon class="cls-9" points="611.21 351.28 614.37 363.84 626.88 367.02 614.37 370.21 611.21 382.77 608.04 370.21 595.53 367.02 608.04 363.84 611.21 351.28"/>
          <polygon class="cls-4" points="611.21 367.02 626.88 367.02 614.37 370.21 611.21 367.02"/>
          <polygon class="cls-4" points="611.21 351.28 611.21 367.02 614.37 363.84 611.21 351.28"/>
          <polygon class="cls-4" points="608.04 363.84 595.53 367.02 611.21 367.02 608.04 363.84"/>
          <polygon class="cls-4" points="608.04 370.21 611.21 382.77 611.21 367.02 608.04 370.21"/>
        </g>
        <g>
          <polygon class="cls-9" points="538.21 419.49 541.38 432.06 553.88 435.24 541.38 438.42 538.21 450.98 535.04 438.42 522.54 435.24 535.04 432.06 538.21 419.49"/>
          <polygon class="cls-4" points="538.21 435.24 553.88 435.24 541.38 438.42 538.21 435.24"/>
          <polygon class="cls-4" points="538.21 419.49 538.21 435.24 541.38 432.06 538.21 419.49"/>
          <polygon class="cls-4" points="535.04 432.06 522.54 435.24 538.21 435.24 535.04 432.06"/>
          <polygon class="cls-4" points="535.04 438.42 538.21 450.98 538.21 435.24 535.04 438.42"/>
        </g>
        <g>
          <polygon class="cls-9" points="58.94 388.75 62.03 400.98 74.2 404.08 62.03 407.18 58.94 419.41 55.86 407.18 43.68 404.08 55.86 400.98 58.94 388.75"/>
          <polygon class="cls-4" points="58.94 404.08 74.2 404.08 62.03 407.18 58.94 404.08"/>
          <polygon class="cls-4" points="58.94 388.75 58.94 404.08 62.03 400.98 58.94 388.75"/>
          <polygon class="cls-4" points="55.86 400.98 43.68 404.08 58.94 404.08 55.86 400.98"/>
          <polygon class="cls-4" points="55.86 407.18 58.94 419.41 58.94 404.08 55.86 407.18"/>
        </g>
        <g>
          <polygon class="cls-9" points="15.54 345.14 18.62 357.38 30.8 360.47 18.62 363.57 15.54 375.8 12.45 363.57 .28 360.47 12.45 357.38 15.54 345.14"/>
          <polygon class="cls-4" points="15.54 360.47 30.8 360.47 18.62 363.57 15.54 360.47"/>
          <polygon class="cls-4" points="15.54 345.14 15.54 360.47 18.62 357.38 15.54 345.14"/>
          <polygon class="cls-4" points="12.45 357.38 .28 360.47 15.54 360.47 12.45 357.38"/>
          <polygon class="cls-4" points="12.45 363.57 15.54 375.8 15.54 360.47 12.45 363.57"/>
        </g>
        <g>
          <polygon class="cls-9" points="498.93 324.29 505.93 352.06 533.57 359.09 505.93 366.12 498.93 393.89 491.94 366.12 464.3 359.09 491.94 352.06 498.93 324.29"/>
          <polygon class="cls-4" points="498.93 359.09 533.57 359.09 505.93 366.12 498.93 359.09"/>
          <polygon class="cls-4" points="498.93 324.29 498.93 359.09 505.93 352.06 498.93 324.29"/>
          <polygon class="cls-4" points="491.94 352.06 464.3 359.09 498.93 359.09 491.94 352.06"/>
          <polygon class="cls-4" points="491.94 366.12 498.93 393.89 498.93 359.09 491.94 366.12"/>
        </g>
        <g>
          <polygon class="cls-9" points="95.65 273.39 97.55 280.96 105.08 282.87 97.55 284.78 95.65 292.34 93.74 284.78 86.22 282.87 93.74 280.96 95.65 273.39"/>
          <polygon class="cls-4" points="95.65 282.87 105.08 282.87 97.55 284.78 95.65 282.87"/>
          <polygon class="cls-4" points="95.65 273.39 95.65 282.87 97.55 280.96 95.65 273.39"/>
          <polygon class="cls-4" points="93.74 280.96 86.22 282.87 95.65 282.87 93.74 280.96"/>
          <polygon class="cls-4" points="93.74 284.78 95.65 292.34 95.65 282.87 93.74 284.78"/>
        </g>
        <g>
          <polygon class="cls-9" points="553.75 360.48 555.15 366.06 560.71 367.47 555.15 368.88 553.75 374.46 552.34 368.88 546.79 367.47 552.34 366.06 553.75 360.48"/>
          <polygon class="cls-4" points="553.75 367.47 560.71 367.47 555.15 368.88 553.75 367.47"/>
          <polygon class="cls-4" points="553.75 360.48 553.75 367.47 555.15 366.06 553.75 360.48"/>
          <polygon class="cls-4" points="552.34 366.06 546.79 367.47 553.75 367.47 552.34 366.06"/>
          <polygon class="cls-4" points="552.34 368.88 553.75 374.46 553.75 367.47 552.34 368.88"/>
        </g>
      </g>
      <path class="cls-5" d="m125.81,25.12c-11.88,3.28-23.27,5.61-32.08,6.56-13.39,1.45-15.77-.8-16.35-2.92-.58-2.12.32-5.27,12.57-10.91,8.05-3.7,19.03-7.55,30.91-10.83,11.88-3.28,23.27-5.61,32.08-6.56,13.39-1.45,15.77.8,16.35,2.92s-.32,5.27-12.57,10.91c-8.05,3.7-19.03,7.55-30.91,10.83Zm-44.57,2.58c.88.38,4.01,1.19,13.6.02,8.38-1.02,19.03-3.25,29.97-6.27,10.94-3.02,21.22-6.57,28.95-10,8.83-3.92,11.11-6.21,11.68-7-.88-.38-4.01-1.19-13.6-.02-8.38,1.02-19.03,3.25-29.97,6.27-10.94,3.02-21.22,6.57-28.95,10-8.83,3.92-11.11,6.21-11.68,7Z"/>
    </g>
  </g>
</svg>