<?xml version="1.0" encoding="UTF-8"?>
<svg id="Layer_2" data-name="Layer 2" xmlns="http://www.w3.org/2000/svg" viewBox="0 0 570.34 463.3">
  <defs>
    <style>
      .cls-1 {
        fill: #f564ba;
      }

      .cls-2 {
        fill: #f50096;
      }
    </style>
  </defs>
  <g id="Main_person" data-name="Main person">
    <g>
      <g>
        <path class="cls-2" d="m.25,102.07c.5-7.74,1.58-15.3,3.25-22.68,1.83-7.91,4.58-16.48,8.25-25.71,3.66-9.23,8.29-17.84,13.87-25.85,5.58-8,12.03-14.64,19.37-19.91,7.33-5.28,15.49-7.91,24.49-7.91,5.33,0,10.41,1.01,15.24,3.03,4.83,2.02,9.33,4.88,13.49,8.57,4.16,3.69,7.87,8,11.12,12.92,3.25,4.92,6.04,10.29,8.37,16.09,1,2.46,1.83,4.62,2.5,6.46.66,1.85,1.21,3.65,1.62,5.41.41,1.76.75,3.65,1,5.67.25,2.02.54,4.44.87,7.25.33,2.81.5,5.72.5,8.7,0,1.94-.12,4.62-.38,8.04s-1.21,7.21-2.87,11.34c-1.67,4.13-4.08,7.69-7.25,10.68-3.17,2.99-7.41,5.01-12.74,6.07-2.17.53-4.17.79-6,.79-3.33,0-6.54-.92-9.62-2.77-3.08-1.85-5.25-4.52-6.5-8.04-1.25-3.52-1.87-6.94-1.87-10.29,0-1.76.25-4.44.75-8.04.5-3.6,2.08-8.04,4.75-13.32,2.83-5.27,4.66-9.54,5.5-12.79.83-3.25,1.25-6.9,1.25-10.95v-2.37c-.34-4.75-.92-8.7-1.75-11.87-.84-3.17-2.17-6.07-4-8.7-4.5-5.98-8.66-8.97-12.49-8.97s-7.5,2.29-11.5,6.86c-6.67,7.39-11.83,16.4-15.49,27.04-3.67,10.64-5.92,20.18-6.75,28.62-.84,8.44-1.25,15.3-1.25,20.57,0,6.33.54,14.07,1.62,23.21,1.08,9.15,3.46,18.64,7.12,28.49,1.33,3.52,2.87,6.9,4.62,10.15,1.75,3.26,3.71,6.11,5.87,8.57,2.16,2.46,4.54,4.44,7.12,5.93,2.58,1.5,5.37,2.24,8.37,2.24,3.33,0,7-1.05,11-3.17,3.16-1.93,5.29-3.82,6.37-5.67,1.08-1.85,1.62-4,1.62-6.46,0-.88-.09-1.85-.25-2.9-.67-3.87-2.37-7.6-5.12-11.21-2.75-3.6-5.71-5.84-8.87-6.73-2-.7-3.67-1.75-5-3.17-1.34-1.41-2.04-2.5-2.12-3.3-.09-.79-.12-1.27-.12-1.45,0-1.23.54-2.37,1.62-3.43,1.08-1.05,2.96-1.67,5.62-1.85h8.25c3.16,0,6.5-.04,10-.13,3.5-.09,7.08-.13,10.75-.13h9.75c1.5,0,3,.05,4.5.13,1.5.09,2.75.4,3.75.92,1,.53,1.58,1.5,1.75,2.9,0,1.41-.75,3.26-2.25,5.54-1.17,2.29-2.17,4.22-3,5.8-.84,1.58-1.46,3.39-1.87,5.41-.42,2.02-.67,4.18-.75,6.46-.09,2.29-.12,4.48-.12,6.59v7.12c.16,6.33.5,11.25,1,14.77.5,3.52,1.16,6.29,2,8.31.83,2.02,1.79,3.61,2.87,4.75,1.08,1.15,2.29,2.51,3.62,4.09,1.5,1.58,2.33,2.82,2.5,3.69,0,.71-.34,1.23-1,1.58-.67.35-1.58.57-2.75.66-1.17.09-2.33.13-3.5.13h-5.75c-2.83,0-5.5-.04-8-.13-2.5-.09-4.67-.13-6.5-.13-2.67,0-5.25.09-7.75.26h-1c-1.67,0-2.71-.48-3.12-1.45-.42-.96-.62-2.94-.62-5.93-7.83,5.45-16.16,8.18-24.99,8.18-5.17,0-10.33-.92-15.49-2.77-5.17-1.85-10.04-4.44-14.62-7.78-4.58-3.34-8.83-7.43-12.74-12.26-3.92-4.83-7.29-10.15-10.12-15.96-2.67-5.63-4.83-11.87-6.5-18.73-1.67-6.86-2.71-13.23-3.12-19.12-.42-5.89-.62-10.95-.62-15.17,0-3.52.08-7.12.25-10.81Z"/>
        <path class="cls-2" d="m136.19,61.72c.5-1.76,1.83-2.99,4-3.69.83-.35,1.58-.53,2.25-.53,1.66,0,3.37.92,5.12,2.77,1.75,1.85,4.04,4.53,6.87,8.04,1.83,2.29,4.04,4.09,6.62,5.41,2.58,1.32,5.2,2.46,7.87,3.43,2.66.97,5.16,1.98,7.5,3.03,2.33,1.05,4.12,2.42,5.37,4.09,1.25,1.67,1.88,3.82,1.88,6.46,0,.18-.04,1.01-.12,2.51-.09,1.5-1.21,4.44-3.37,8.83-1.5,2.82-2.54,6.2-3.12,10.15-.59,3.96-.92,7.52-1,10.68-.09,3.17-.12,5.8-.12,7.91s.04,4.71.12,7.78c.08,3.08.21,6.2.38,9.36.33,4.22.62,7.65.87,10.29.25,2.64.54,5.01.88,7.12.33,2.11.79,4.13,1.37,6.07.58,1.94,1.29,4.22,2.12,6.86,2.83,7.21,4.29,11.65,4.37,13.32.08,1.67.12,2.6.12,2.77,0,2.81-1,5.01-3,6.59-.67.53-1.42.97-2.25,1.32-.84.35-2,.62-3.5.79-1.5.18-3.58.26-6.25.26h-10.75c-7.67,0-12.96-.09-15.87-.26-2.92-.17-4.87-.61-5.87-1.32-1.83-1.41-2.79-3.07-2.87-5.01-.09-1.93-.12-2.99-.12-3.17,0-3.52.75-6.42,2.25-8.7,2.33-3.51,4.08-7.95,5.25-13.32,1.16-5.36,2-10.99,2.5-16.88.5-5.89.83-11.74,1-17.54.16-5.8.25-10.9.25-15.3s.04-7.78.12-9.63c.08-1.85.12-3.12.12-3.82,0-1.93-.12-4-.37-6.2-.25-2.2-.75-4.62-1.5-7.25s-1.96-6.07-3.62-10.29c-1.17-2.99-2.29-5.89-3.37-8.7-1.09-2.81-1.79-5.1-2.12-6.86-.34-1.75-.5-3.17-.5-4.22,0-1.23.16-2.28.5-3.17Zm12-20.04c0-5.1,1.75-9.5,5.25-13.19,3.5-3.69,7.66-5.54,12.49-5.54s9,1.85,12.5,5.54c3.5,3.69,5.25,8.09,5.25,13.19s-1.75,9.5-5.25,13.19c-3.5,3.69-7.67,5.54-12.5,5.54s-9-1.85-12.49-5.54c-3.5-3.69-5.25-8.09-5.25-13.19Z"/>
        <path class="cls-2" d="m193.91,194.65c.16-2.99,1.58-8.18,4.25-15.56,1-2.64,1.75-5.01,2.25-7.12.5-2.11.96-4.26,1.37-6.46.41-2.2.75-4.66,1-7.38.25-2.72.46-6.2.62-10.42.33-5.1.54-9.01.62-11.74.08-2.72.12-4.88.12-6.46,0-2.99-.09-6.24-.25-9.76-.34-4.57-.75-8.09-1.25-10.55-.5-2.46-1.42-4.92-2.75-7.38-.84-1.93-1.54-3.87-2.12-5.8-.59-1.93-.88-3.34-.88-4.22,0-2.81.71-5.18,2.12-7.12,1.41-1.93,3.08-3.73,5-5.41,1.91-1.67,3.87-3.47,5.87-5.41,2-1.93,3.66-4.31,5-7.12,3.5-7.21,6.91-10.81,10.25-10.81.33,0,.75.09,1.25.26,2.83.71,4.79,2.99,5.87,6.86,1.08,3.87,1.66,7.34,1.75,10.42.08,3.08.12,5.41.12,6.99,0,2.99-.12,6.38-.38,10.15-.25,3.78-.38,6.64-.38,8.57l-.5,1.06,6.75-6.33c5.33-4.92,10.75-8.92,16.24-12,5.5-3.07,10.33-4.62,14.49-4.62,8.83,0,15.95,2.33,21.37,6.99,5.41,4.66,8.12,11.83,8.12,21.5,0,7.39-1.87,12.75-5.62,16.09-3.75,3.34-9.21,5.01-16.37,5.01-2.5,0-4.79-.44-6.87-1.32-2.08-.88-3.67-2.06-4.75-3.56-1.09-1.49-1.62-3.3-1.62-5.41s.83-4.48,2.5-7.12c.5-.88,1.16-2.07,2-3.56.83-1.49,1.58-3.03,2.25-4.62.66-1.58,1.08-2.81,1.25-3.69.16-.88.25-1.49.25-1.85,0-.88-.34-1.67-1-2.37-1.17-1.23-2.67-1.85-4.5-1.85-3.17,0-7.04,1.63-11.62,4.88-4.58,3.25-9.54,7.87-14.87,13.85-1.5,1.58-2.75,2.95-3.75,4.09-1,1.15-1.79,2.2-2.37,3.17-.59.97-1,2.07-1.25,3.3-.25,1.23-.46,2.81-.62,4.75.5,5.8.75,11.43.75,16.88,0,2.46.08,5.45.25,8.97.16,3.52.38,7.12.62,10.81.25,3.69.54,7.17.87,10.42.33,3.25.66,5.85,1,7.78.33,2.29.62,4.4.88,6.33.25,1.94.37,3.34.37,4.22,0,1.76-.29,3.65-.87,5.67-.59,2.02-2.17,3.87-4.75,5.54-2.58,1.67-6.71,2.5-12.37,2.5h-10.75c-2.67,0-4.75-.09-6.25-.26-1.5-.18-2.62-.44-3.37-.79-.75-.35-1.54-.88-2.37-1.58-2-1.58-3-3.69-3-6.33v-1.06Z"/>
        <path class="cls-2" d="m302.11,184.89c1.83-2.81,3.25-5.98,4.25-9.5,1-3.51,1.79-7.16,2.37-10.95.58-3.78.96-7.56,1.12-11.34.16-3.78.33-7.34.5-10.68.33-6.33.62-13.27.88-20.84.25-7.56.46-14.94.62-22.15.16-7.21.25-13.8.25-19.78s-.09-10.64-.25-13.98c-.17-2.11-.42-4.97-.75-8.57-.34-3.6-.5-6.81-.5-9.63,0-1.76.08-4.22.25-7.38.16-3.17.79-6.68,1.87-10.55,1.08-3.87,3.04-6.15,5.87-6.86h1c3.16,0,6.58,3.61,10.25,10.81,1.33,2.81,3.04,5.14,5.12,6.99,2.08,1.85,4.08,3.61,6,5.27,1.91,1.67,3.54,3.47,4.87,5.41,1.33,1.94,2,4.31,2,7.12,0,.88-.29,2.24-.88,4.09-.59,1.85-1.29,3.65-2.12,5.41-1.33,2.64-2.25,5.19-2.75,7.65-.5,2.46-.92,6.07-1.25,10.81l-.25,11.6v5.8c-.17,1.76-.25,3.78-.25,6.07v7.12c-.34,1.94-.5,4.44-.5,7.52s.16,7.52.5,13.32v1.58l.5,8.7c.16,4.22.38,7.65.62,10.29.25,2.64.54,5.01.88,7.12.33,2.11.79,4.13,1.37,6.07.58,1.94,1.29,4.22,2.12,6.86,2.83,7.21,4.29,11.65,4.37,13.32.08,1.67.12,2.6.12,2.77,0,2.81-1,5.01-3,6.59-.67.53-1.42.97-2.25,1.32-.84.35-2,.62-3.5.79-1.5.18-3.5.26-6,.26h-10.75c-7.83,0-13.21-.09-16.12-.26-2.92-.17-4.87-.61-5.87-1.32-1.83-1.41-2.79-3.07-2.87-5.01-.09-1.93-.12-2.99-.12-3.17,0-3.52.75-6.42,2.25-8.7Z"/>
        <path class="cls-2" d="m360.59,108.93c.16-3.51.96-6.94,2.37-10.29,1.41-3.34,3.37-6.46,5.87-9.36,2.5-2.9,5.33-5.23,8.5-6.99,4.16-2.46,8.5-4.22,13-5.27,4.5-1.06,9-1.58,13.49-1.58,5.66,0,11.08.79,16.24,2.37,5.16,1.58,9.7,3.78,13.62,6.59,3.91,2.81,6.83,5.98,8.75,9.5,1.91,3.52,2.87,7.03,2.87,10.55,0,.88-.09,1.76-.25,2.64-1.5,12.84-7.91,19.78-19.24,20.84-1.17.18-2.17.26-3,.26-1.17,0-2.17-.17-3-.53-.84-.35-2.42-1.32-4.75-2.9-2-1.58-3.33-2.94-4-4.09-.67-1.14-1-2.59-1-4.35,0-1.93.33-3.47,1-4.62.66-1.14,2.16-2.68,4.5-4.62,3.16-2.46,4.83-4.22,5-5.28.16-1.05.25-1.67.25-1.85,0-1.76-1.08-3.52-3.25-5.28-3.17-2.64-6.92-3.96-11.25-3.96-3,0-5.87.62-8.62,1.85-2.75,1.23-5.08,2.86-7,4.88-1.92,2.02-3,3.82-3.25,5.41-.25,1.58-.38,2.64-.38,3.17,0,2.29.75,4.66,2.25,7.12,1.33,1.94,4.96,5.14,10.87,9.63,5.91,4.48,13.37,9.36,22.37,14.64,6.33,3.87,11.45,8.09,15.37,12.66,3.91,4.57,6.37,8.66,7.37,12.26,1,3.61,1.5,6.55,1.5,8.83,0,2.46-.54,5.54-1.62,9.23-1.08,3.69-3.71,7.74-7.87,12.13-4.17,4.22-8.96,7.34-14.37,9.36-5.42,2.02-11.04,3.03-16.87,3.03-3.17,0-6.42-.26-9.75-.79-1.67-.35-3.42-.75-5.25-1.19-1.83-.44-3.33-.83-4.5-1.19-1.17-.53-2.17-.79-3-.79-.17,0-.54.05-1.12.13-.59.09-1.71.49-3.37,1.19-2.17,1.05-4.33,1.58-6.5,1.58-3.33,0-5.75-1.05-7.25-3.17-.5-.88-1.04-3.3-1.62-7.25-.58-3.96-1.12-8.26-1.62-12.92-.5-4.66-.79-8.35-.88-11.08-.09-2.72-.12-4.53-.12-5.41,0-1.93.08-3.17.25-3.69.83-1.76,1.91-2.94,3.25-3.56,1.33-.61,2.5-1.01,3.5-1.19.83.18,1.66.44,2.5.79.83.35,1.66,1.32,2.5,2.9.83,1.58,1.58,3.34,2.25,5.27,1,3.69,3.12,7.69,6.37,12,3.25,4.31,6.37,7.52,9.37,9.63,3.66,2.29,7.58,3.43,11.75,3.43,2.83,0,5.54-.53,8.12-1.58,2.58-1.05,4.62-2.5,6.12-4.35,1.5-1.85,2.33-3.47,2.5-4.88.16-1.41.25-2.28.25-2.64,0-2.28-.75-4.75-2.25-7.39-.67-1.05-1.54-2.15-2.62-3.3-1.09-1.14-2.58-2.46-4.5-3.96-1.92-1.49-4.42-3.25-7.5-5.27-3.08-2.02-6.96-4.44-11.62-7.25-9.33-5.8-16.2-10.81-20.62-15.03-4.42-4.22-7.37-8.97-8.87-14.24-.83-2.81-1.25-5.63-1.25-8.44v-2.37Z"/>
      </g>
      <g>
        <path class="cls-2" d="m241.99,319.55c.83-4.39,2.21-8.7,4.12-12.92,1.91-4.22,4.37-8,7.37-11.34,4.33-4.75,10.04-8.57,17.12-11.47,7.08-2.9,14.37-4.35,21.87-4.35,4,0,7.83.53,11.5,1.58,1-3.52,2.16-6.86,3.5-10.02,1.33-2.81,2.91-5.71,4.75-8.7,1.83-2.99,3.91-5.45,6.25-7.38,1.83-1.41,4.12-2.72,6.87-3.96,2.75-1.23,5.29-1.85,7.62-1.85,3.83,0,7.2,1.71,10.12,5.14,2.91,3.43,4.54,7.17,4.87,11.21.16.71.25,1.5.25,2.37,0,1.58-.33,3.39-1,5.41-.67,2.02-1.62,4-2.87,5.93-1.25,1.94-2.75,3.52-4.5,4.75-1.75,1.23-3.54,1.85-5.37,1.85-.67,0-1.58-.44-2.75-1.32-1.17-.88-2.42-2.02-3.75-3.43-2.83-2.81-5.08-4.22-6.75-4.22-1.33,0-2.5.88-3.5,2.64-1.5,2.64-2.25,4.75-2.25,6.33,0,.35.08.97.25,1.85.16.88,1.83,3.08,5,6.59,5.66,6.16,9,12,10,17.54,1,5.54,1.5,9.98,1.5,13.32,0,5.28-.75,10.9-2.25,16.88-1.33,4.4-3.33,8.44-6,12.13-2.67,3.69-5.75,6.95-9.25,9.76-3.5,2.81-7.29,5.19-11.37,7.12-4.08,1.94-8.21,3.34-12.37,4.22-2.67.53-4.96,1.1-6.87,1.71-1.92.62-3.71,1.32-5.37,2.11-1.67.79-3.21,1.76-4.62,2.9-1.42,1.15-2.96,2.6-4.62,4.35-3.17,3.34-4.83,5.63-5,6.86-.17,1.23-.25,2.02-.25,2.37,0,1.58.83,2.37,2.5,2.37,1.5,0,3.83-.96,7-2.9,1.5-1.05,3.75-2.46,6.75-4.22,3-1.76,5.75-3.34,8.25-4.75,7.5-3.69,14.66-5.54,21.49-5.54,4.66,0,8.79.88,12.37,2.64,3.58,1.76,6.45,4.4,8.62,7.91,2.16,3.17,3.25,6.68,3.25,10.55,0,.18-.04,1.28-.12,3.3-.09,2.02-.88,5.01-2.37,8.97-1.5,3.96-3.42,7.69-5.75,11.21-2.33,3.52-4.67,6.5-7,8.97-3.17,3.34-6.62,6.73-10.37,10.15-3.75,3.43-7.71,6.55-11.87,9.36-4.17,2.81-8.5,5.14-12.99,6.99-4.5,1.85-9.16,2.77-13.99,2.77-3.83,0-7.42-.79-10.75-2.37-2.67-1.23-4.75-3.21-6.25-5.93-1.5-2.73-2.33-5.14-2.5-7.25-.17-2.11-.25-3.61-.25-4.48,0-2.46.41-5.28,1.25-8.44.83-3.17,2.41-6.24,4.75-9.23,1.16-1.41,2.87-2.68,5.12-3.83,2.25-1.15,4.46-1.71,6.62-1.71,1.83,0,3.25.53,4.25,1.58,1,1.06,1.5,2.64,1.5,4.75v1.85c-.17,1.06-.25,1.93-.25,2.64,0,1.58.41,2.86,1.25,3.82.83.96,2.16,1.45,4,1.45,1.5,0,3.21-.35,5.12-1.06,1.91-.7,3.62-1.5,5.12-2.37,2.5-1.23,4.91-2.86,7.25-4.88,2.33-2.02,4.16-4.18,5.5-6.46,1.5-2.64,2.33-4.75,2.5-6.33.16-1.58.25-2.64.25-3.17,0-1.76-.42-3.47-1.25-5.14-.83-1.67-1.92-2.86-3.25-3.56-1.34-.7-2.67-1.06-4-1.06-.83,0-1.83.18-3,.53-.84.18-2.58.88-5.25,2.11-2.67,1.23-5.5,2.55-8.5,3.96-8.5,4.04-14.99,6.07-19.49,6.07-6.5,0-10-3.69-10.5-11.08-.17-.88-.25-1.76-.25-2.64,0-3.17.88-6.86,2.62-11.08,1.75-4.22,4.54-8.44,8.37-12.66l5.25-6.33-4-2.64c-1.5-.88-3.12-2.11-4.87-3.69-1.75-1.58-3.46-3.38-5.12-5.41-1.67-2.02-3.12-4.13-4.37-6.33-1.25-2.2-2.29-4.35-3.12-6.46-1.5-4.22-2.33-7.74-2.5-10.55-.17-2.81-.25-4.83-.25-6.07,0-3.52.33-6.94,1-10.29Zm26.49-3.43c.16,4.75,1.08,9.94,2.75,15.56,2.33,8.27,5.46,14.73,9.37,19.39,3.91,4.66,7.95,6.99,12.12,6.99,1.83,0,3.58-.53,5.25-1.58,2-1.06,3.54-3.25,4.62-6.59,1.08-3.34,1.71-6.42,1.87-9.23.16-2.81.25-4.75.25-5.8,0-3.52-.34-7.38-1-11.6-.67-4.22-1.92-8.35-3.75-12.4-1.5-3.17-3.87-6.24-7.12-9.23-3.25-2.99-6.21-4.75-8.87-5.28-1-.17-1.92-.26-2.75-.26-2.33,0-4.5.62-6.5,1.85-2,1.23-3.54,3.34-4.62,6.33-1.09,2.99-1.62,6.42-1.62,10.29v1.58Z"/>
        <path class="cls-2" d="m356.18,265.48c.5-1.76,1.83-2.99,4-3.69.83-.35,1.58-.53,2.25-.53,1.66,0,3.37.92,5.12,2.77,1.75,1.85,4.04,4.53,6.87,8.04,1.83,2.29,4.04,4.09,6.62,5.41,2.58,1.32,5.2,2.46,7.87,3.43,2.66.97,5.16,1.98,7.5,3.03,2.33,1.05,4.12,2.42,5.37,4.09,1.25,1.67,1.88,3.82,1.88,6.46,0,.18-.04,1.01-.12,2.51-.09,1.5-1.21,4.44-3.37,8.83-1.5,2.82-2.54,6.2-3.12,10.15-.59,3.96-.92,7.52-1,10.68-.09,3.17-.12,5.8-.12,7.91s.04,4.71.12,7.78c.08,3.08.21,6.2.38,9.36.33,4.22.62,7.65.87,10.29.25,2.64.54,5.01.88,7.12.33,2.11.79,4.13,1.37,6.07.58,1.94,1.29,4.22,2.12,6.86,2.83,7.21,4.29,11.65,4.37,13.32.08,1.67.12,2.6.12,2.77,0,2.81-1,5.01-3,6.59-.67.53-1.42.97-2.25,1.32-.84.35-2,.62-3.5.79-1.5.18-3.58.26-6.25.26h-10.75c-7.67,0-12.96-.09-15.87-.26-2.92-.17-4.87-.61-5.87-1.32-1.83-1.41-2.79-3.07-2.87-5.01-.09-1.93-.12-2.99-.12-3.17,0-3.52.75-6.42,2.25-8.7,2.33-3.51,4.08-7.95,5.25-13.32,1.16-5.36,2-10.99,2.5-16.88.5-5.89.83-11.74,1-17.54.16-5.8.25-10.9.25-15.3s.04-7.78.12-9.63c.08-1.85.12-3.12.12-3.82,0-1.93-.12-4-.38-6.2-.25-2.2-.75-4.62-1.5-7.25-.75-2.64-1.96-6.07-3.62-10.29-1.17-2.99-2.29-5.89-3.37-8.7-1.09-2.81-1.79-5.1-2.12-6.86-.34-1.75-.5-3.17-.5-4.22,0-1.23.16-2.28.5-3.17Zm11.99-20.04c0-5.1,1.75-9.5,5.25-13.19s7.66-5.54,12.49-5.54,9,1.85,12.5,5.54c3.5,3.69,5.25,8.09,5.25,13.19s-1.75,9.5-5.25,13.19c-3.5,3.69-7.67,5.54-12.5,5.54s-9-1.85-12.49-5.54-5.25-8.09-5.25-13.19Z"/>
        <path class="cls-2" d="m413.91,398.41c.16-2.99,1.58-8.18,4.25-15.56,1-2.64,1.75-5.01,2.25-7.12.5-2.11.96-4.26,1.37-6.46.41-2.2.75-4.66,1-7.38.25-2.72.46-6.2.62-10.42.33-5.1.54-9.01.62-11.74.08-2.72.12-4.88.12-6.46,0-2.99-.09-6.24-.25-9.76-.34-4.57-.75-8.09-1.25-10.55-.5-2.46-1.42-4.92-2.75-7.38-.84-1.93-1.54-3.87-2.12-5.8-.59-1.93-.88-3.34-.88-4.22,0-2.81.71-5.18,2.12-7.12,1.41-1.93,3.08-3.73,5-5.41,1.91-1.67,3.87-3.47,5.87-5.41,2-1.93,3.66-4.31,5-7.12,3.5-7.21,6.91-10.81,10.25-10.81.33,0,.75.09,1.25.26,2.83.71,4.79,2.99,5.87,6.86,1.08,3.87,1.66,7.34,1.75,10.42.08,3.08.12,5.41.12,6.99,0,2.99-.12,6.38-.38,10.15-.25,3.78-.38,6.64-.38,8.57l-.5,1.06,6.75-6.33c5.33-4.92,10.75-8.92,16.24-12,5.5-3.07,10.33-4.62,14.49-4.62,8.83,0,15.95,2.33,21.37,6.99,5.41,4.66,8.12,11.83,8.12,21.5,0,7.39-1.87,12.75-5.62,16.09-3.75,3.34-9.21,5.01-16.37,5.01-2.5,0-4.79-.44-6.87-1.32-2.08-.88-3.67-2.06-4.75-3.56-1.09-1.49-1.62-3.3-1.62-5.41s.83-4.48,2.5-7.12c.5-.88,1.16-2.07,2-3.56.83-1.49,1.58-3.03,2.25-4.62.66-1.58,1.08-2.81,1.25-3.69.16-.88.25-1.49.25-1.85,0-.88-.34-1.67-1-2.37-1.17-1.23-2.67-1.85-4.5-1.85-3.17,0-7.04,1.63-11.62,4.88-4.58,3.25-9.54,7.87-14.87,13.85-1.5,1.58-2.75,2.95-3.75,4.09-1,1.15-1.79,2.2-2.37,3.17-.59.97-1,2.07-1.25,3.3-.25,1.23-.46,2.81-.62,4.75.5,5.8.75,11.43.75,16.88,0,2.46.08,5.45.25,8.97.16,3.52.38,7.12.62,10.81.25,3.69.54,7.17.87,10.42.33,3.25.66,5.85,1,7.78.33,2.29.62,4.4.88,6.33.25,1.94.37,3.34.37,4.22,0,1.76-.29,3.65-.87,5.67-.59,2.02-2.17,3.87-4.75,5.54-2.58,1.67-6.71,2.5-12.37,2.5h-10.75c-2.67,0-4.75-.09-6.25-.26-1.5-.18-2.62-.44-3.37-.79-.75-.35-1.54-.88-2.37-1.58-2-1.58-3-3.69-3-6.33v-1.06Z"/>
        <path class="cls-2" d="m522.11,388.65c1.83-2.81,3.25-5.98,4.25-9.5,1-3.51,1.79-7.16,2.37-10.95.58-3.78.96-7.56,1.12-11.34.16-3.78.33-7.34.5-10.68.33-6.33.62-13.27.88-20.84.25-7.56.46-14.94.62-22.15.16-7.21.25-13.8.25-19.78s-.09-10.64-.25-13.98c-.17-2.11-.42-4.97-.75-8.57-.34-3.6-.5-6.81-.5-9.63,0-1.76.08-4.22.25-7.38.16-3.17.79-6.68,1.87-10.55,1.08-3.87,3.04-6.15,5.87-6.86h1c3.16,0,6.58,3.61,10.25,10.81,1.33,2.81,3.04,5.14,5.12,6.99,2.08,1.85,4.08,3.61,6,5.27,1.91,1.67,3.54,3.47,4.87,5.41,1.33,1.94,2,4.31,2,7.12,0,.88-.29,2.24-.88,4.09-.59,1.85-1.29,3.65-2.12,5.41-1.33,2.64-2.25,5.19-2.75,7.65-.5,2.46-.92,6.07-1.25,10.81l-.25,11.6v5.8c-.17,1.76-.25,3.78-.25,6.07v7.12c-.34,1.94-.5,4.44-.5,7.52s.16,7.52.5,13.32v1.58l.5,8.7c.16,4.22.38,7.65.62,10.29.25,2.64.54,5.01.88,7.12.33,2.11.79,4.13,1.37,6.07.58,1.94,1.29,4.22,2.12,6.86,2.83,7.21,4.29,11.65,4.37,13.32.08,1.67.12,2.6.12,2.77,0,2.81-1,5.01-3,6.59-.67.53-1.42.97-2.25,1.32-.84.35-2,.62-3.5.79-1.5.18-3.5.26-6,.26h-10.75c-7.83,0-13.21-.09-16.12-.26-2.92-.17-4.87-.61-5.87-1.32-1.83-1.41-2.79-3.07-2.87-5.01-.09-1.93-.12-2.99-.12-3.17,0-3.52.75-6.42,2.25-8.7Z"/>
      </g>
      <path class="cls-1" d="m162.26,26.8s-8-1-11,9,2,14,2,14c0,0,5.04,1.69,3.02-3.65s1.98-10.35,1.98-10.35c0,0,17-9,4-9Z"/>
      <path class="cls-1" d="m141.26,190.8s-3.25,11.12,5,7,25-95,4.04-126.89c0,0-5.81-12.16-9.93-7.13-2.92,3.57.76,10.64,3.15,14.45,1.48,2.37,2.68,4.9,3.6,7.54,1.21,3.51,2.66,8.3,3.18,12.42.96,7.61,8.96,35.61-9.04,92.61Z"/>
      <path class="cls-1" d="m47.53,9.8c-5.27,3.35-9.76,7.79-13.28,12.95-9.49,13.9-29.23,46.69-29.99,80.06-1,44,7,66,28,87,16.37,16.37.81-9.12-6.85-21.14-3.01-4.72-5.15-9.93-6.3-15.41-2.26-10.73-4.64-29.83-.85-54.45,5.95-38.66,6.09-47.84,29.43-82.1.35-.51.7-1.01,1.07-1.51,1.82-2.45,8.06-11.31-1.23-5.41Z"/>
      <path class="cls-1" d="m87.03,105.14c-2.81-1.37-4.95-3.79-6.16-6.68-1.95-4.68-3.66-12.71,1.38-21.96,8-14.69,10-15.69,4,3.31,0,0-3,8,0,12,2.68,3.57,9.34,17.51.78,13.33Z"/>
      <path class="cls-1" d="m90.26,191.8s-1.61,11,2,11c4,0,8,0,8-1,0-2.83-3,0-6-6-4.67-9.34-4-4-4-4Z"/>
      <path class="cls-1" d="m197.26,191.8s10-25,10-51,3-26.08-5-44.04c0,0-4.82-8.89,2.55-11.06,6.45-1.9,11.45,19.1,11.45,19.1,0,0,5.78,30.99-6.11,90,0,0-1.06,6-6.89,6-3,0-8-1-6-9Z"/>
      <path class="cls-1" d="m266.79,117.63c.09-1.54.68-3,1.68-4.17,2.42-2.84,8.47-9.91,6.78-16.66-2.05-8.19.56-4.73,2.43-1.71,1.29,2.09,2.03,4.5,2.05,6.96.03,3.99-1,10.1-6.48,15.27-5.78,5.45-6.61,2.86-6.47.31Z"/>
      <path class="cls-1" d="m316.26,30.8s-3,1-2,11,3.37,22.54,2.19,35.77-1.73,92.22-7.19,102.23c-6,11-6,13-6,13,0,0-2.47,9.62,7.72,8,6.28-1,9.28-3,10.28-9s1-24,4-138c0,0,2-28-9-23Z"/>
      <path class="cls-1" d="m536.5,233.97s-3,1-2,11,3.37,22.54,2.19,35.77-1.73,92.22-7.19,102.23c-6,11-6,13-6,13,0,0-2.47,9.62,7.72,8,6.28-1,9.28-3,10.28-9s1-24,4-138c0,0,2-28-9-23Z"/>
      <path class="cls-1" d="m213.26,75.8s2.81-3.72,4.4-8.86,4.6-7.14,6.6-7.14,4.48.88,5,4c1,6-20,21-16,12Z"/>
      <path class="cls-1" d="m416.97,396.01s10-25,10-51,3-26.08-5-44.04c0,0-4.82-8.89,2.55-11.06,6.45-1.9,11.45,19.1,11.45,19.1,0,0,5.78,30.99-6.11,90,0,0-1.06,6-6.89,6-3,0-8-1-6-9Z"/>
      <path class="cls-1" d="m486.51,321.84c.09-1.54.68-3,1.68-4.17,2.42-2.84,8.47-9.91,6.78-16.66-2.05-8.19.56-4.73,2.43-1.71,1.29,2.09,2.03,4.5,2.05,6.96.03,3.99-1,10.1-6.48,15.27-5.78,5.45-6.61,2.86-6.47.31Z"/>
      <path class="cls-1" d="m432.97,280.01s2.81-3.72,4.4-8.86,4.6-7.14,6.6-7.14,4.48.88,5,4c1,6-20,21-16,12Z"/>
      <path class="cls-1" d="m382.22,230.5s-8-1-11,9,2,14,2,14c0,0,5.04,1.69,3.02-3.65s1.98-10.35,1.98-10.35c0,0,17-9,4-9Z"/>
      <path class="cls-1" d="m361.22,394.5s-3.25,11.12,5,7,25-95,4.04-126.89c0,0-5.81-12.16-9.93-7.13-2.92,3.57.76,10.64,3.15,14.45,1.48,2.37,2.68,4.9,3.6,7.54,1.21,3.51,2.66,8.3,3.18,12.42.96,7.61,8.96,35.61-9.04,92.61Z"/>
      <path class="cls-1" d="m363.26,102.8s3.91-18.36,24-23c13-3,6,5-2,7-12.61,3.15-19,23-14,32s11,21-.68,10.58c-1.48-1.32-2.43-3.16-3.39-4.9-2.45-4.45-5.97-12.84-3.93-21.69Z"/>
      <path class="cls-1" d="m371.26,201.8s-5,1-6-4c-.9-4.51-2.62-23.67-2.95-30.31-.04-.81-.08-1.63-.18-2.44-.2-1.75.13-7.25,5.12-7.25,4,0,1.8,8.98,1,17-1,10-.41,15.18,2,20,1,2,10,5,1,7Z"/>
      <path class="cls-1" d="m420.94,103.37c-.58,1.05-1.37,1.96-2.29,2.73-2.59,2.19-7.4,6.68-7.4,9.7s2,5,5,8,4-1,2-3c-1-1-4-7,1-11,3.58-2.86,3.96-10.56,1.69-6.43Z"/>
      <path class="cls-1" d="m419.26,184.8s9-9-4-21,7.11,2,7.11,2c0,0,8.44,6.08,4.67,14.04s-17.78,14.96-7.78,4.96Z"/>
      <path class="cls-1" d="m69.81,132.37c-.65-1.41-.41-3.12.75-4.16.86-.77,2.3-1.41,4.71-1.41,1.16,0,2.17.05,3.02.14,2.67.26,5.16,1.49,6.88,3.55,1.26,1.5,2.56,3.62,3.1,6.31,1,5,1,15-5,4,0,0-1.07-2.61-8-4-3.17-.63-4.73-2.88-5.45-4.44Z"/>
      <path class="cls-1" d="m263.23,423.37c-2.06.76-3.87,2.06-5.28,3.74-2.36,2.83-5.7,8.3-5.7,16.7,0,13,9,16,9,16,0,0,9,3.04,0-5.48s-3-22.52,2-26.52c4.17-3.34,4.17-5.98-.02-4.44Z"/>
      <path class="cls-1" d="m252.26,394.61s-4,7.2,1,15.2c0,0,2.06,3.27,6,3s-2-3-2-3c0,0-6-3-4-11s0-6.39-1-4.2Z"/>
      <path class="cls-1" d="m243.26,334.8s-3-27,15-41,5,3,5,3c0,0-11,15-13,29-1.37,9.57,2,24,11,30,15.9,10.6-.05,8.56-7,3-5-4-10-14-11-24Z"/>
      <path class="cls-1" d="m308.26,273.8s5.28-16.1,17.14-20.05,9.39,0,9.39,0c0,0-11.53,3.05-15.53,10.05-1.79,3.13-14.32,26.91-13,19,1-6,2-9,2-9Z"/>
      <path class="cls-1" d="m306.26,411.8s1-8-7-11,4-2,4-2c0,0,6.61.16,5.81,8.58s-2.81,11.42-2.81,4.42Z"/>
      <path class="cls-1" d="m306.16,339.74s1.1,13.06-5.9,17.06,0,7,9-4,1-21,1-21c0,0-5.19-7.12-4.1,7.94Z"/>
    </g>
  </g>
</svg>