<?xml version="1.0" encoding="UTF-8"?>
<svg id="Layer_2" data-name="Layer 2" xmlns="http://www.w3.org/2000/svg" viewBox="0 0 163.67 143.4">
  <defs>
    <style>
      .cls-1 {
        fill: #ff9ee0;
      }

      .cls-2 {
        fill: #f50096;
      }

      .cls-3 {
        fill: #af14c1;
      }
    </style>
  </defs>
  <g id="Spilelementer">
    <g>
      <path class="cls-3" d="m163.67,43.68c0,10.69-3.84,20.48-10.22,28.07l-5.39,5.39-66.27,66.27L15.14,76.75l-.06-.05-4.44-4.44-.05-.06C4,64.55,0,54.58,0,43.68,0,19.56,19.56,0,43.68,0c16.4,0,30.69,9.05,38.16,22.42C89.3,9.05,103.59,0,119.99,0c24.12,0,43.68,19.56,43.68,43.68Z"/>
      <path class="cls-2" d="m141.82,52.64c0,7.82-2.81,14.97-7.47,20.53l-3.94,3.94-48.46,48.46-48.74-48.74-.04-.03-3.25-3.25-.03-.04c-4.83-5.6-7.75-12.89-7.75-20.86,0-17.64,14.3-31.94,31.94-31.94,11.99,0,22.44,6.62,27.9,16.39,5.46-9.78,15.91-16.39,27.9-16.39,17.64,0,31.94,14.3,31.94,31.94Z"/>
      <path class="cls-1" d="m122.34,57.21c0,5.2-1.87,9.96-4.97,13.65l-2.62,2.62-32.23,32.23-32.42-32.42-.03-.02-2.16-2.16-.02-.03c-3.21-3.73-5.16-8.57-5.16-13.88,0-11.73,9.51-21.24,21.24-21.24,7.98,0,14.93,4.4,18.56,10.9,3.63-6.5,10.58-10.9,18.56-10.9,11.73,0,21.24,9.51,21.24,21.24Z"/>
    </g>
  </g>
</svg>