<?xml version="1.0" encoding="UTF-8"?>
<svg id="Layer_2" data-name="Layer 2" xmlns="http://www.w3.org/2000/svg" viewBox="0 0 698.77 724.73">
  <defs>
    <style>
      .cls-1 {
        fill: #f4d2b1;
      }

      .cls-2 {
        fill: #f48fba;
      }

      .cls-3 {
        fill: #ecac7e;
      }

      .cls-4 {
        fill: #f3c196;
      }

      .cls-5 {
        fill: #e93b00;
      }

      .cls-6 {
        fill: #e9487c;
      }

      .cls-7 {
        fill: #ed521b;
      }

      .cls-8 {
        fill: #ffe8c0;
      }

      .cls-9 {
        fill: #f172a1;
      }

      .cls-10 {
        fill: #ff5b1b;
      }

      .cls-11 {
        fill: #6c3500;
      }

      .cls-12 {
        fill: #c90500;
      }

      .cls-13 {
        fill: #dc8756;
      }

      .cls-14 {
        fill: #f99314;
        stroke: #f90;
        stroke-miterlimit: 10;
      }
    </style>
  </defs>
  <g id="Main_person" data-name="Main person">
    <g>
      <path class="cls-8" d="m230.76,153.96s-46.58-60.89,25.18-85.21c41.38-14.03,55.74,7.9,60.75,18.65,4.6,9.86,7.99,27.54,4.84,41.15-3.47,15-7.6,34.98-24.53,53.01-27.51,29.29,0,0,0,0l-50.5-14.28"/>
      <ellipse class="cls-8" cx="235.51" cy="53.96" rx="31.1" ry="30.25" transform="translate(-3.89 86.61) rotate(-20.67)"/>
      <ellipse class="cls-8" cx="189.3" cy="28.55" rx="26.39" ry="26.47" transform="translate(2.11 68.66) rotate(-20.67)"/>
      <ellipse class="cls-8" cx="143.11" cy="24.96" rx="24.88" ry="24.96" transform="translate(.4 52.13) rotate(-20.67)"/>
      <ellipse class="cls-8" cx="102.24" cy="44.44" rx="23.07" ry="23.14" transform="translate(12.84 111.05) rotate(-60.18)"/>
      <ellipse class="cls-8" cx="76.39" cy="75.85" rx="19.91" ry="19.97" transform="translate(-27.41 104.41) rotate(-60.18)"/>
      <ellipse class="cls-8" cx="73.18" cy="111.07" rx="17.65" ry="17.7" transform="translate(-59.78 107.46) rotate(-55.06)"/>
      <ellipse class="cls-8" cx="72.06" cy="144.68" rx="17.65" ry="17.7" transform="translate(-87.81 120.9) rotate(-55.06)"/>
      <ellipse class="cls-8" cx="70.7" cy="176.85" rx="16.81" ry="16.86" transform="translate(-114.77 133.53) rotate(-55.06)"/>
      <ellipse class="cls-8" cx="56.55" cy="202.91" rx="15.17" ry="15.21" transform="translate(-142.18 133.08) rotate(-55.06)"/>
      <path class="cls-8" d="m5.83,208.28s8.95,13.91,22.5,2.8,27.08,4.48,11.84,15.43c-15.24,10.95-37.24-1.94-34.34-18.23Z"/>
      <path class="cls-10" d="m196.88,408.1s-5.98-19.57-10.29-37.21c-2.12-8.68-3.84-16.9-4.24-22.09-1.19-15.45,4.62-69.38,16.29-96.54.33-.78,1.12-1.25,1.97-1.22,2.18.08,7.53-.82,19.26-7.53,0,0,1.21,14.52,10.89,30.25,9.68,15.73,29.04,95.6,32.68,117.39,0,0,24.2-82.76,33.89-102.5,9.68-19.73,13.31-54.83,13.31-54.83,0,0,7.39,2.8,16.94,1.21,7.26-1.21,38.73,79.87,26.62,111.34-10.75,27.94-21.78,55.67-20.57,62.93,0,0-87.13,15.73-136.75-1.21Z"/>
      <path class="cls-10" d="m190.83,426.25s8.47-9.68,2.42-30.25c0,0,36.31,6.05,141.59-2.42,0,0-3.63,31.23,0,41.03,0,0-87.13,17.06-144.01-8.35Z"/>
      <path class="cls-6" d="m190.83,426.25S59.3,453.65,0,506.9v217.83h551.85s172.67-115.75,143.63-179.89c0,0-136.98,39.47-239.62-19.36-99.24-56.88-121.02-90.76-121.02-90.76,0,0-73.82,16.94-144.01-8.47Z"/>
      <path class="cls-7" d="m344.8,370.89s-.94,7.58-32.07,7.87c0,0,18.2,4.42,29.84-1.88l2.24-5.99Z"/>
      <path class="cls-7" d="m186.59,370.89s5.39,9.38,29.62,9.38c0,0-16.59,4.11-27.65-1.58l-1.98-7.8Z"/>
      <path class="cls-3" d="m239.93,161.18s6.56,71.44-20.06,82.33c0,0-3.76.89,19.07,55.06.82,1.94,1.5,3.92,2.07,5.94,3.56,12.76,16.89,61.47,22.11,94.87,0,0,24.2-87.13,32.68-100.45,8.47-13.31,16.94-64.14,16.94-64.14,0,0-26.62-8.47-15.73-53.25,0,0,12.1-2.42,13.31-10.89"/>
      <path class="cls-3" d="m183.56,356.06l-30.25,79.87c-44.78,13.31-56,17.91-56,17.91,0,0,29.04-136.75,45.87-173.56.35-.77.71-1.52,1.08-2.25,17.35-34.22,54.7-26.29,54.7-26.29l-3.43,11.39"/>
      <path class="cls-3" d="m329.67,236.01s48.41-7.26,73.82,21.78c25.41,29.04,91.97,75.03,91.97,75.03,0,0,39.94,26.62,31.46,55.67-8.47,29.04-130.7,67.77-130.7,67.77,0,0-9.36,4.82-21.21,7.32-12.63,2.67-28.1,2.71-38.09-8.53-16.98-19.1-43.26-9.36-49.48-6.67-1.11.48-2.26.85-3.44,1.08-5.31,1.06-17.55,3.68,2.09-10.15,0,0,7.26-6.05,26.62-3.63,0,0-27.83-3.63-36.31,3.63s-29.72,4.83-9.41-4.85c20.25-9.65,33.54-9.67,33.62-9.67,0,0,0,0,0,0-.01-.03-3.66-7.25-19.36,0-12.12,5.59-19.39,4.65-22.99,3.63-1.06-.3-1.33.07-2.42,0-2.78-.19-9.04-1.7,6.68-8.44,2.02-.86,4.12-1.54,6.25-2.04.64-.15,1.21-.29,1.59-.42,5.74-1.5,23.88-7.26,29.04-7.26,0,0,4.84-4.84-24.2-2.42,0,0-3.63,0-3.63,0-.02,0-24,0,2.42-7.26s43.57,6.05,55.67,12.1c11.14,5.57,29.04,22.99,44.78,21.78,15.73-1.21,87.13-50.83,91.97-61.72h0s-54.46-26.63-70.19-43.57c-15.73-16.94-39.61-4.6-39.61-4.6"/>
      <path class="cls-3" d="m238.12,139.01c.38.63,1.3.61,1.63-.05.99-2.02,2.41-6.1,1.58-11.87-1.21-8.47,1.21-10.89,1.21-10.89l9.24-10.26c1.01-1.13,1.57-2.58,1.56-4.09-.02-3.68.53-10.83,4.94-13.48,6.05-3.63,8.47-7.26,21.78-7.26,12.35,0,24.69,5.2,33.18,20.44,1.22,2.2,1.99,4.62,2.22,7.13.69,7.48,2.38,26.2,3.33,28.1,1.21,2.42,0,9.68,0,9.68,0,0-3.63,19.36-8.47,24.2,0,0-5.86-10.74-18.46-12.05-2.37-.25-4.76.08-6.99.9-6.49,2.38-24.69,8.14-40.81,4.58-1.71-.38-3.18-1.44-4.11-2.92l-1.03-1.63s-10.81,3.44-13.02-14.56c-.3-2.46.1-4.99,1.27-7.18,1.96-3.67,5.72-7.51,10.95,1.21Z"/>
      <path class="cls-13" d="m239.23,158.8s1.21,8.47,31.46,3.63c0,0,8.4-1.42,12.1-2.42,2.96-.8,8.92-4.28,18.15,1.21s9.36,9.44,9.36,9.44c0,0,1.49,6.41-13.31,10.89,0,0-7.68,25.91,2.07,40.61,0,0-19.29,7.43-35.02-17.98,0,0-17.76-24.85-22.8-22.1l-2.01-23.28Z"/>
      <path class="cls-13" d="m295.79,298.94s-12.99.24-21.46,13.55c-8.47,13.31-7.32,24.56-7.32,24.56,0,0,1.27,2.06,3.69-2.78s6.7-14.84,17.27-16.5c10.57-1.66,0,0,0,0,0,0,7.49-19.08,7.82-18.84"/>
      <path class="cls-4" d="m195.06,263.48l3.91-11.74s-38.68-7.91-55.78,28.54c0,0,19.2-19.22,51.87-16.8Z"/>
      <path class="cls-13" d="m139.17,440.34l14.14-4.41,30.25-79.87s-3.76-15.75-3.7-22.4c0,0-21.33,51.01-40.7,106.68Z"/>
      <path class="cls-4" d="m222.71,251.22s19.57,1.04,29.26,11.93-8.47,4.84-8.47,4.84c0,0-8.86-4.83-17.14-3.63-8.27,1.21,0,0,0,0,0,0-3.86-10.55-3.65-13.14"/>
      <path class="cls-4" d="m354.2,236.25s-15.7,4.86-3.29,16.43c1.83,1.71,4.16,2.8,6.65,3.09,8,.91,29.18,3.56,51.1,8.32,0,0-9.68-12.1-19.36-18.15-9.68-6.05-32.68-10.89-35.1-9.68Z"/>
      <path class="cls-13" d="m356.62,324.59s-1.21-4.84-6.05-18.15c0,0,20.57-3.63,35.1,15.73,0,0-9.68-6.05-29.04,2.42Z"/>
      <path class="cls-13" d="m397.77,423.83s55.67-31.46,68.98-50.83c0,0,39.94-2.42,19.36,9.68s-78.66,38.73-88.34,41.15Z"/>
      <path class="cls-5" d="m277.96,138.22s0,4.84,9.68,7.26c9.68,2.42,15.26,0,15.26,0,0,0,2.89-2.42,2.89-3.63,0,0-7.2-4.27-7.83-3.35l-6.08-1.9h-9.36l-4.55,1.62Z"/>
      <path class="cls-12" d="m297.32,139.43c-.7-.09-3.67-.39-4.35-.58-.66-.18-1.19-.6-1.91-.58-.83.03-1.69.23-2.51.34-.92.12-1.84.24-2.76.34-1.84.2-3.69.36-5.55.44-.76.03-2.73-1.16-3.49-1.16,0,0,10.89-9.68,15.73-6.05.34.26.73.4,1.15.47.53.1,1.09.08,1.62.02.74-.09,1.48-.45,2.21-.46,1.08,0,2.29.81,3.11,1.47,1.06.86,1.94,1.93,2.69,3.06.47.72.9,1.47,1.28,2.24.22.45.43.9.63,1.35.07.15.54,1.52.61,1.52-.74,0-1.53-.3-2.22-.54-1.04-.36-4.06-1.39-5.05-1.88"/>
      <path class="cls-13" d="m298.53,104.34h5.33s-2.42,4.78-2.66,10.26c-.24,5.47-2.66-5.42-2.66-10.26Z"/>
      <path class="cls-13" d="m299.1,121.68s1.86,1.44.65,4.84,0,1.7,0,1.7c0,0,2.9-2.5,1.45-5.26s-2.1-1.28-2.1-1.28Z"/>
      <path class="cls-13" d="m287.64,126.12s-1.21-2.42,0-3.63,1.09-2.1,1.09-2.1c0,0-2.91-.48-3.21,3.23s2.15,3.65,2.15,3.65c0,0,1.18.06-.03-1.15Z"/>
      <ellipse class="cls-1" cx="294.3" cy="120.07" rx="1.82" ry="1.21"/>
      <path class="cls-13" d="m291.41,125.4s-.23-.76.76-1.16.46-2.18-.44-1.46-1.83,1.29-1.45,2.58,1.14,1.63,1.14,1.63c0,0,.55.3-.02-1.6Z"/>
      <path class="cls-13" d="m296.66,124.1s-.04-.09-.05-.14c-.02-.08-.04-.16-.05-.24-.04-.21-.08-.42-.09-.64-.02-.34.04-.82.44-.7.03,0,.07.02.1.04.95.43,1.28,1.18,1.38,2.06.05.5-.18,1.08-.35,1.54-.1.26-.21.52-.33.78-.06.12-.11.24-.17.36-.03.06-.06.12-.09.18-.02.04-.03.09-.07.12-.05.04-.11.04-.16.04-.04,0-.07,0-.1,0-.06-.01-.11-.03-.16-.07-.09-.07-.14-.18-.16-.3-.03-.14-.02-.28,0-.42.02-.15.05-.3.09-.44.02-.06.04-.13.06-.19.02-.06.04-.11.06-.17.07-.19.14-.34.15-.56s-.04-.44-.12-.63c-.05-.13-.12-.25-.2-.37-.05-.08-.11-.15-.15-.23Z"/>
      <path class="cls-2" d="m245.28,111.6l13.31-1.21s-1.95-2.93-1.47-6.15c.1-.66.65-1.17,1.31-1.24,4.5-.51,22.24-1.74,29.92,9.08.28.39.78.56,1.23.37,1.68-.74,6.02-2.09,10.52.95.49.33,1.14.27,1.57-.13,2.15-2.02,9.32-7.27,24.39-5.12.92.13,1.66.86,1.78,1.78.34,2.55-.36,8.13-8.73,16.2-.98.95-3.56-.47-4.84,0-3.93,1.45-9.68,3.63-14.52-8.47,0,0-6.05-7.26-10.89,0,0,0-4.84,1.21-13.31,2.42,0,0-8.47,5.28-14.52-4.62l-20.17.54,4.44-4.39Z"/>
      <path class="cls-9" d="m261.02,115.45s17.82-6.72,29.04.99c0,0-4.07,9.72-12.93,10.31-8.86.58-11.28-5.03-16.12-11.3Z"/>
      <path class="cls-9" d="m299.74,117.65s.68,11.21,9.42,11.66c8.74.45,11.4-4.49,16.12-10.49,4.72-6-25.53-1.16-25.53-1.16Z"/>
      <ellipse class="cls-14" cx="235" cy="161.82" rx="4.24" ry="7.87"/>
      <path class="cls-11" d="m300.51,105.92c-.89.19-1.86-.23-2.19-1.08s-.05-1.95,2.41-3.18c4.84-2.42,14.57,2.24,14.57,2.24l1.67,2.24s-5.05-2.63-16.45-.22Z"/>
      <path class="cls-11" d="m255.94,100.96s3.64-4.14,10.9-5.35c5.82-.97,15.7,1.33,19.41,2.29,1.02.26,1.83,1.03,2.12,2.04.5,1.71.95,4.15-2.17,4.15,0,0-8.47-3.86-13.92-4.35s-16.35,1.24-16.35,1.24Z"/>
    </g>
  </g>
</svg>