<?xml version="1.0" encoding="UTF-8"?>
<svg id="Baggrund" xmlns="http://www.w3.org/2000/svg" viewBox="0 0 1920 1080">
  <defs>
    <style>
      .cls-1 {
        fill: #ffdc55;
      }

      .cls-2 {
        fill: #fff76a;
      }

      .cls-3 {
        fill: #ffee1f;
      }

      .cls-4 {
        fill: #ffd91f;
      }
    </style>
  </defs>
  <g id="stjerner">
    <g id="Stjerner">
      <g>
        <polygon class="cls-3" points="343.5 205.4 345.62 213.78 354 215.9 345.62 218.02 343.5 226.4 341.38 218.02 333 215.9 341.38 213.78 343.5 205.4"/>
        <polygon class="cls-4" points="343.5 215.9 354 215.9 345.62 218.02 343.5 215.9"/>
        <polygon class="cls-4" points="343.5 205.4 343.5 215.9 345.62 213.78 343.5 205.4"/>
        <polygon class="cls-4" points="341.38 213.78 333 215.9 343.5 215.9 341.38 213.78"/>
        <polygon class="cls-4" points="341.38 218.02 343.5 226.4 343.5 215.9 341.38 218.02"/>
      </g>
      <g>
        <polygon class="cls-2" points="1798.81 268.24 1802.72 312.07 1837.56 316.99 1802.72 321.92 1798.81 365.74 1794.89 321.92 1760.06 316.99 1794.89 312.07 1798.81 268.24"/>
        <polygon class="cls-1" points="1798.81 316.99 1837.56 316.99 1802.72 321.92 1798.81 316.99"/>
        <polygon class="cls-1" points="1802.72 312.07 1798.81 268.24 1798.81 316.99 1802.72 312.07"/>
        <polygon class="cls-1" points="1794.89 312.07 1760.06 316.99 1798.81 316.99 1794.89 312.07"/>
        <polygon class="cls-1" points="1794.89 321.92 1798.81 365.74 1798.81 316.99 1794.89 321.92"/>
      </g>
      <g>
        <polygon class="cls-2" points="133.32 105.76 136.18 137.78 161.63 141.38 136.18 144.98 133.32 177 130.46 144.98 105.01 141.38 130.46 137.78 133.32 105.76"/>
        <polygon class="cls-1" points="133.32 141.38 161.63 141.38 136.18 144.98 133.32 141.38"/>
        <polygon class="cls-1" points="136.18 137.78 133.32 105.76 133.32 141.38 136.18 137.78"/>
        <polygon class="cls-1" points="130.46 137.78 105.01 141.38 133.32 141.38 130.46 137.78"/>
        <polygon class="cls-1" points="130.46 144.98 133.32 177 133.32 141.38 130.46 144.98"/>
      </g>
      <g>
        <polygon class="cls-3" points="1759.78 268.77 1762.57 279.77 1773.57 282.55 1762.57 285.33 1759.78 296.33 1757 285.33 1746 282.55 1757 279.77 1759.78 268.77"/>
        <polygon class="cls-4" points="1759.78 282.55 1773.57 282.55 1762.57 285.33 1759.78 282.55"/>
        <polygon class="cls-4" points="1759.78 268.77 1759.78 282.55 1762.57 279.77 1759.78 268.77"/>
        <polygon class="cls-4" points="1757 279.77 1746 282.55 1759.78 282.55 1757 279.77"/>
        <polygon class="cls-4" points="1757 285.33 1759.78 296.33 1759.78 282.55 1757 285.33"/>
      </g>
      <g>
        <polygon class="cls-2" points="1418.64 115 1421.42 146.16 1446.19 149.66 1421.42 153.16 1418.64 184.32 1415.86 153.16 1391.09 149.66 1415.86 146.16 1418.64 115"/>
        <polygon class="cls-1" points="1418.64 149.66 1446.19 149.66 1421.42 153.16 1418.64 149.66"/>
        <polygon class="cls-1" points="1421.42 146.16 1418.64 115 1418.64 149.66 1421.42 146.16"/>
        <polygon class="cls-1" points="1415.86 146.16 1391.09 149.66 1418.64 149.66 1415.86 146.16"/>
        <polygon class="cls-1" points="1415.86 153.16 1418.64 184.32 1418.64 149.66 1415.86 153.16"/>
      </g>
      <g>
        <polygon class="cls-3" points="193.9 164.55 196.71 175.64 207.8 178.45 196.71 181.26 193.9 192.35 191.09 181.26 180 178.45 191.09 175.64 193.9 164.55"/>
        <polygon class="cls-4" points="193.9 178.45 207.8 178.45 196.71 181.26 193.9 178.45"/>
        <polygon class="cls-4" points="193.9 164.55 193.9 178.45 196.71 175.64 193.9 164.55"/>
        <polygon class="cls-4" points="191.09 175.64 180 178.45 193.9 178.45 191.09 175.64"/>
        <polygon class="cls-4" points="191.09 181.26 193.9 192.35 193.9 178.45 191.09 181.26"/>
      </g>
      <g>
        <polygon class="cls-3" points="225.21 56.5 227.18 78.6 244.74 81.08 227.18 83.56 225.21 105.66 223.23 83.56 205.67 81.08 223.23 78.6 225.21 56.5"/>
        <polygon class="cls-4" points="225.21 81.08 244.74 81.08 227.18 83.56 225.21 81.08"/>
        <polygon class="cls-4" points="227.18 78.6 225.21 56.5 225.21 81.08 227.18 78.6"/>
        <polygon class="cls-4" points="223.23 78.6 205.67 81.08 225.21 81.08 223.23 78.6"/>
        <polygon class="cls-4" points="223.23 83.56 225.21 105.66 225.21 81.08 223.23 83.56"/>
      </g>
      <g>
        <polygon class="cls-3" points="441.05 459.35 442.28 464.18 447.11 465.4 442.28 466.62 441.05 471.46 439.83 466.62 435 465.4 439.83 464.18 441.05 459.35"/>
        <polygon class="cls-4" points="441.05 465.4 447.11 465.4 442.28 466.62 441.05 465.4"/>
        <polygon class="cls-4" points="441.05 459.35 441.05 465.4 442.28 464.18 441.05 459.35"/>
        <polygon class="cls-4" points="439.83 464.18 435 465.4 441.05 465.4 439.83 464.18"/>
        <polygon class="cls-4" points="439.83 466.62 441.05 471.46 441.05 465.4 439.83 466.62"/>
      </g>
      <g>
        <polygon class="cls-2" points="478.11 371.73 480.97 403.75 506.42 407.35 480.97 410.95 478.11 442.97 475.25 410.95 449.79 407.35 475.25 403.75 478.11 371.73"/>
        <polygon class="cls-1" points="478.11 407.35 506.42 407.35 480.97 410.95 478.11 407.35"/>
        <polygon class="cls-1" points="480.97 403.75 478.11 371.73 478.11 407.35 480.97 403.75"/>
        <polygon class="cls-1" points="475.25 403.75 449.79 407.35 478.11 407.35 475.25 403.75"/>
        <polygon class="cls-1" points="475.25 410.95 478.11 442.97 478.11 407.35 475.25 410.95"/>
      </g>
      <g>
        <polygon class="cls-2" points="1843.47 219 1845.42 240.91 1862.84 243.38 1845.42 245.84 1843.47 267.75 1841.51 245.84 1824.09 243.38 1841.51 240.91 1843.47 219"/>
        <polygon class="cls-1" points="1843.47 243.38 1862.84 243.38 1845.42 245.84 1843.47 243.38"/>
        <polygon class="cls-1" points="1845.42 240.91 1843.47 219 1843.47 243.38 1845.42 240.91"/>
        <polygon class="cls-1" points="1841.51 240.91 1824.09 243.38 1843.47 243.38 1841.51 240.91"/>
        <polygon class="cls-1" points="1841.51 245.84 1843.47 267.75 1843.47 243.38 1841.51 245.84"/>
      </g>
      <g>
        <polygon class="cls-3" points="1670.84 93 1675.08 109.76 1691.84 114 1675.08 118.25 1670.84 135 1666.6 118.25 1649.84 114 1666.6 109.76 1670.84 93"/>
        <polygon class="cls-4" points="1670.84 114 1691.84 114 1675.08 118.25 1670.84 114"/>
        <polygon class="cls-4" points="1670.84 93 1670.84 114 1675.08 109.76 1670.84 93"/>
        <polygon class="cls-4" points="1666.6 109.76 1649.84 114 1670.84 114 1666.6 109.76"/>
        <polygon class="cls-4" points="1666.6 118.25 1670.84 135 1670.84 114 1666.6 118.25"/>
      </g>
      <g>
        <polygon class="cls-2" points="1511.1 350 1512.77 368.74 1527.67 370.85 1512.77 372.96 1511.1 391.7 1509.43 372.96 1494.53 370.85 1509.43 368.74 1511.1 350"/>
        <polygon class="cls-1" points="1511.1 370.85 1527.67 370.85 1512.77 372.96 1511.1 370.85"/>
        <polygon class="cls-1" points="1512.77 368.74 1511.1 350 1511.1 370.85 1512.77 368.74"/>
        <polygon class="cls-1" points="1509.43 368.74 1494.53 370.85 1511.1 370.85 1509.43 368.74"/>
        <polygon class="cls-1" points="1509.43 372.96 1511.1 391.7 1511.1 370.85 1509.43 372.96"/>
      </g>
      <g>
        <polygon class="cls-2" points="1523.3 304.04 1524.73 320.06 1537.46 321.86 1524.73 323.66 1523.3 339.67 1521.87 323.66 1509.14 321.86 1521.87 320.06 1523.3 304.04"/>
        <polygon class="cls-1" points="1523.3 321.86 1537.46 321.86 1524.73 323.66 1523.3 321.86"/>
        <polygon class="cls-1" points="1524.73 320.06 1523.3 304.04 1523.3 321.86 1524.73 320.06"/>
        <polygon class="cls-1" points="1521.87 320.06 1509.14 321.86 1523.3 321.86 1521.87 320.06"/>
        <polygon class="cls-1" points="1521.87 323.66 1523.3 339.67 1523.3 321.86 1521.87 323.66"/>
      </g>
      <g>
        <polygon class="cls-2" points="434.84 130 437.18 156.2 458 159.14 437.18 162.09 434.84 188.29 432.5 162.09 411.67 159.14 432.5 156.2 434.84 130"/>
        <polygon class="cls-1" points="434.84 159.14 458 159.14 437.18 162.09 434.84 159.14"/>
        <polygon class="cls-1" points="437.18 156.2 434.84 130 434.84 159.14 437.18 156.2"/>
        <polygon class="cls-1" points="432.5 156.2 411.67 159.14 434.84 159.14 432.5 156.2"/>
        <polygon class="cls-1" points="432.5 162.09 434.84 188.29 434.84 159.14 432.5 162.09"/>
      </g>
      <g>
        <polygon class="cls-3" points="502.15 335 503.83 341.61 510.44 343.28 503.83 344.96 502.15 351.57 500.48 344.96 493.87 343.28 500.48 341.61 502.15 335"/>
        <polygon class="cls-4" points="502.15 343.28 510.44 343.28 503.83 344.96 502.15 343.28"/>
        <polygon class="cls-4" points="502.15 335 502.15 343.28 503.83 341.61 502.15 335"/>
        <polygon class="cls-4" points="500.48 341.61 493.87 343.28 502.15 343.28 500.48 341.61"/>
        <polygon class="cls-4" points="500.48 344.96 502.15 351.57 502.15 343.28 500.48 344.96"/>
      </g>
      <g>
        <polygon class="cls-2" points="207.96 345.38 210.82 377.4 236.27 381 210.82 384.59 207.96 416.62 205.1 384.59 179.64 381 205.1 377.4 207.96 345.38"/>
        <polygon class="cls-1" points="207.96 381 236.27 381 210.82 384.59 207.96 381"/>
        <polygon class="cls-1" points="210.82 377.4 207.96 345.38 207.96 381 210.82 377.4"/>
        <polygon class="cls-1" points="205.1 377.4 179.64 381 207.96 381 205.1 377.4"/>
        <polygon class="cls-1" points="205.1 384.59 207.96 416.62 207.96 381 205.1 384.59"/>
      </g>
      <g>
        <polygon class="cls-2" points="245.07 465.12 246.74 483.87 261.64 485.97 246.74 488.08 245.07 506.82 243.39 488.08 228.49 485.97 243.39 483.87 245.07 465.12"/>
        <polygon class="cls-1" points="245.07 485.97 261.64 485.97 246.74 488.08 245.07 485.97"/>
        <polygon class="cls-1" points="246.74 483.87 245.07 465.12 245.07 485.97 246.74 483.87"/>
        <polygon class="cls-1" points="243.39 483.87 228.49 485.97 245.07 485.97 243.39 483.87"/>
        <polygon class="cls-1" points="243.39 488.08 245.07 506.82 245.07 485.97 243.39 488.08"/>
      </g>
      <g>
        <polygon class="cls-2" points="125.27 322.17 126.7 338.18 139.42 339.98 126.7 341.78 125.27 357.79 123.84 341.78 111.11 339.98 123.84 338.18 125.27 322.17"/>
        <polygon class="cls-1" points="125.27 339.98 139.42 339.98 126.7 341.78 125.27 339.98"/>
        <polygon class="cls-1" points="126.7 338.18 125.27 322.17 125.27 339.98 126.7 338.18"/>
        <polygon class="cls-1" points="123.84 338.18 111.11 339.98 125.27 339.98 123.84 338.18"/>
        <polygon class="cls-1" points="123.84 341.78 125.27 357.79 125.27 339.98 123.84 341.78"/>
      </g>
      <g>
        <polygon class="cls-3" points="469.09 118.04 471.21 126.42 479.59 128.54 471.21 130.66 469.09 139.04 466.97 130.66 458.59 128.54 466.97 126.42 469.09 118.04"/>
        <polygon class="cls-4" points="469.09 128.54 479.59 128.54 471.21 130.66 469.09 128.54"/>
        <polygon class="cls-4" points="469.09 118.04 469.09 128.54 471.21 126.42 469.09 118.04"/>
        <polygon class="cls-4" points="466.97 126.42 458.59 128.54 469.09 128.54 466.97 126.42"/>
        <polygon class="cls-4" points="466.97 130.66 469.09 139.04 469.09 128.54 466.97 130.66"/>
      </g>
      <g>
        <polygon class="cls-3" points="411.22 87.34 412.07 90.71 415.44 91.56 412.07 92.42 411.22 95.78 410.37 92.42 407 91.56 410.37 90.71 411.22 87.34"/>
        <polygon class="cls-4" points="411.22 91.56 415.44 91.56 412.07 92.42 411.22 91.56"/>
        <polygon class="cls-4" points="411.22 87.34 411.22 91.56 412.07 90.71 411.22 87.34"/>
        <polygon class="cls-4" points="410.37 90.71 407 91.56 411.22 91.56 410.37 90.71"/>
        <polygon class="cls-4" points="410.37 92.42 411.22 95.78 411.22 91.56 410.37 92.42"/>
      </g>
      <g>
        <polygon class="cls-2" points="480.9 71.68 481.76 81.26 489.38 82.34 481.76 83.42 480.9 93 480.05 83.42 472.43 82.34 480.05 81.26 480.9 71.68"/>
        <polygon class="cls-1" points="480.9 82.34 489.38 82.34 481.76 83.42 480.9 82.34"/>
        <polygon class="cls-1" points="481.76 81.26 480.9 71.68 480.9 82.34 481.76 81.26"/>
        <polygon class="cls-1" points="480.05 81.26 472.43 82.34 480.9 82.34 480.05 81.26"/>
        <polygon class="cls-1" points="480.05 83.42 480.9 93 480.9 82.34 480.05 83.42"/>
      </g>
      <g>
        <polygon class="cls-3" points="1608.8 74.37 1610.93 82.75 1619.3 84.87 1610.93 86.99 1608.8 95.37 1606.68 86.99 1598.3 84.87 1606.68 82.75 1608.8 74.37"/>
        <polygon class="cls-4" points="1608.8 84.87 1619.3 84.87 1610.93 86.99 1608.8 84.87"/>
        <polygon class="cls-4" points="1608.8 74.37 1608.8 84.87 1610.93 82.75 1608.8 74.37"/>
        <polygon class="cls-4" points="1606.68 82.75 1598.3 84.87 1608.8 84.87 1606.68 82.75"/>
        <polygon class="cls-4" points="1606.68 86.99 1608.8 95.37 1608.8 84.87 1606.68 86.99"/>
      </g>
      <g>
        <polygon class="cls-3" points="1644.93 172.67 1645.78 176.04 1649.15 176.89 1645.78 177.74 1644.93 181.11 1644.08 177.74 1640.71 176.89 1644.08 176.04 1644.93 172.67"/>
        <polygon class="cls-4" points="1644.93 176.89 1649.15 176.89 1645.78 177.74 1644.93 176.89"/>
        <polygon class="cls-4" points="1644.93 172.67 1644.93 176.89 1645.78 176.04 1644.93 172.67"/>
        <polygon class="cls-4" points="1644.08 176.04 1640.71 176.89 1644.93 176.89 1644.08 176.04"/>
        <polygon class="cls-4" points="1644.08 177.74 1644.93 181.11 1644.93 176.89 1644.08 177.74"/>
      </g>
      <g>
        <polygon class="cls-2" points="1707.57 41.01 1709.53 62.98 1727 65.45 1709.53 67.92 1707.57 89.89 1705.61 67.92 1688.14 65.45 1705.61 62.98 1707.57 41.01"/>
        <polygon class="cls-1" points="1707.57 65.45 1727 65.45 1709.53 67.92 1707.57 65.45"/>
        <polygon class="cls-1" points="1709.53 62.98 1707.57 41.01 1707.57 65.45 1709.53 62.98"/>
        <polygon class="cls-1" points="1705.61 62.98 1688.14 65.45 1707.57 65.45 1705.61 62.98"/>
        <polygon class="cls-1" points="1705.61 67.92 1707.57 89.89 1707.57 65.45 1705.61 67.92"/>
      </g>
      <g>
        <polygon class="cls-3" points="1400.21 212.67 1401.06 216.04 1404.43 216.89 1401.06 217.75 1400.21 221.11 1399.36 217.75 1395.99 216.89 1399.36 216.04 1400.21 212.67"/>
        <polygon class="cls-4" points="1400.21 216.89 1404.43 216.89 1401.06 217.75 1400.21 216.89"/>
        <polygon class="cls-4" points="1400.21 212.67 1400.21 216.89 1401.06 216.04 1400.21 212.67"/>
        <polygon class="cls-4" points="1399.36 216.04 1395.99 216.89 1400.21 216.89 1399.36 216.04"/>
        <polygon class="cls-4" points="1399.36 217.75 1400.21 221.11 1400.21 216.89 1399.36 217.75"/>
      </g>
      <g>
        <polygon class="cls-2" points="1455.89 108.01 1456.75 117.59 1464.37 118.67 1456.75 119.75 1455.89 129.33 1455.04 119.75 1447.42 118.67 1455.04 117.59 1455.89 108.01"/>
        <polygon class="cls-1" points="1455.89 118.67 1464.37 118.67 1456.75 119.75 1455.89 118.67"/>
        <polygon class="cls-1" points="1456.75 117.59 1455.89 108.01 1455.89 118.67 1456.75 117.59"/>
        <polygon class="cls-1" points="1455.04 117.59 1447.42 118.67 1455.89 118.67 1455.04 117.59"/>
        <polygon class="cls-1" points="1455.04 119.75 1455.89 129.33 1455.89 118.67 1455.04 119.75"/>
      </g>
      <g>
        <polygon class="cls-3" points="983.11 92.09 985.23 100.47 993.61 102.59 985.23 104.71 983.11 113.09 980.98 104.71 972.61 102.59 980.98 100.47 983.11 92.09"/>
        <polygon class="cls-4" points="983.11 102.59 993.61 102.59 985.23 104.71 983.11 102.59"/>
        <polygon class="cls-4" points="983.11 92.09 983.11 102.59 985.23 100.47 983.11 92.09"/>
        <polygon class="cls-4" points="980.98 100.47 972.61 102.59 983.11 102.59 980.98 100.47"/>
        <polygon class="cls-4" points="980.98 104.71 983.11 113.09 983.11 102.59 980.98 104.71"/>
      </g>
      <g>
        <polygon class="cls-3" points="915.23 51.39 916.08 54.76 919.45 55.61 916.08 56.46 915.23 59.83 914.38 56.46 911.01 55.61 914.38 54.76 915.23 51.39"/>
        <polygon class="cls-4" points="915.23 55.61 919.45 55.61 916.08 56.46 915.23 55.61"/>
        <polygon class="cls-4" points="915.23 51.39 915.23 55.61 916.08 54.76 915.23 51.39"/>
        <polygon class="cls-4" points="914.38 54.76 911.01 55.61 915.23 55.61 914.38 54.76"/>
        <polygon class="cls-4" points="914.38 56.46 915.23 59.83 915.23 55.61 914.38 56.46"/>
      </g>
      <g>
        <polygon class="cls-2" points="934.72 71.73 935.86 84.48 946 85.91 935.86 87.35 934.72 100.1 933.58 87.35 923.44 85.91 933.58 84.48 934.72 71.73"/>
        <polygon class="cls-1" points="934.72 85.91 946 85.91 935.86 87.35 934.72 85.91"/>
        <polygon class="cls-1" points="935.86 84.48 934.72 71.73 934.72 85.91 935.86 84.48"/>
        <polygon class="cls-1" points="933.58 84.48 923.44 85.91 934.72 85.91 933.58 84.48"/>
        <polygon class="cls-1" points="933.58 87.35 934.72 100.1 934.72 85.91 933.58 87.35"/>
      </g>
      <g>
        <polygon class="cls-3" points="884.38 69.09 886.5 77.47 894.88 79.59 886.5 81.71 884.38 90.09 882.26 81.71 873.88 79.59 882.26 77.47 884.38 69.09"/>
        <polygon class="cls-4" points="884.38 79.59 894.88 79.59 886.5 81.71 884.38 79.59"/>
        <polygon class="cls-4" points="884.38 69.09 884.38 79.59 886.5 77.47 884.38 69.09"/>
        <polygon class="cls-4" points="882.26 77.47 873.88 79.59 884.38 79.59 882.26 77.47"/>
        <polygon class="cls-4" points="882.26 81.71 884.38 90.09 884.38 79.59 882.26 81.71"/>
      </g>
      <g>
        <polygon class="cls-3" points="1019.38 111.09 1021.5 119.47 1029.88 121.59 1021.5 123.71 1019.38 132.09 1017.26 123.71 1008.88 121.59 1017.26 119.47 1019.38 111.09"/>
        <polygon class="cls-4" points="1019.38 121.59 1029.88 121.59 1021.5 123.71 1019.38 121.59"/>
        <polygon class="cls-4" points="1019.38 111.09 1019.38 121.59 1021.5 119.47 1019.38 111.09"/>
        <polygon class="cls-4" points="1017.26 119.47 1008.88 121.59 1019.38 121.59 1017.26 119.47"/>
        <polygon class="cls-4" points="1017.26 123.71 1019.38 132.09 1019.38 121.59 1017.26 123.71"/>
      </g>
      <g>
        <polygon class="cls-3" points="898.38 110.37 899.23 113.74 902.6 114.59 899.23 115.45 898.38 118.81 897.52 115.45 894.16 114.59 897.52 113.74 898.38 110.37"/>
        <polygon class="cls-4" points="898.38 114.59 902.6 114.59 899.23 115.45 898.38 114.59"/>
        <polygon class="cls-4" points="898.38 110.37 898.38 114.59 899.23 113.74 898.38 110.37"/>
        <polygon class="cls-4" points="897.52 113.74 894.16 114.59 898.38 114.59 897.52 113.74"/>
        <polygon class="cls-4" points="897.52 115.45 898.38 118.81 898.38 114.59 897.52 115.45"/>
      </g>
      <g>
        <polygon class="cls-3" points="997.38 70.37 998.23 73.74 1001.6 74.59 998.23 75.45 997.38 78.81 996.52 75.45 993.16 74.59 996.52 73.74 997.38 70.37"/>
        <polygon class="cls-4" points="997.38 74.59 1001.6 74.59 998.23 75.45 997.38 74.59"/>
        <polygon class="cls-4" points="997.38 70.37 997.38 74.59 998.23 73.74 997.38 70.37"/>
        <polygon class="cls-4" points="996.52 73.74 993.16 74.59 997.38 74.59 996.52 73.74"/>
        <polygon class="cls-4" points="996.52 75.45 997.38 78.81 997.38 74.59 996.52 75.45"/>
      </g>
      <g>
        <polygon class="cls-3" points="1451.66 175.23 1452.51 178.59 1455.88 179.45 1452.51 180.3 1451.66 183.67 1450.81 180.3 1447.44 179.45 1450.81 178.59 1451.66 175.23"/>
        <polygon class="cls-4" points="1451.66 179.45 1455.88 179.45 1452.51 180.3 1451.66 179.45"/>
        <polygon class="cls-4" points="1451.66 175.23 1451.66 179.45 1452.51 178.59 1451.66 175.23"/>
        <polygon class="cls-4" points="1450.81 178.59 1447.44 179.45 1451.66 179.45 1450.81 178.59"/>
        <polygon class="cls-4" points="1450.81 180.3 1451.66 183.67 1451.66 179.45 1450.81 180.3"/>
      </g>
      <g>
        <polygon class="cls-3" points="1439.66 163.23 1440.51 166.59 1443.88 167.45 1440.51 168.3 1439.66 171.67 1438.81 168.3 1435.44 167.45 1438.81 166.59 1439.66 163.23"/>
        <polygon class="cls-4" points="1439.66 167.45 1443.88 167.45 1440.51 168.3 1439.66 167.45"/>
        <polygon class="cls-4" points="1439.66 163.23 1439.66 167.45 1440.51 166.59 1439.66 163.23"/>
        <polygon class="cls-4" points="1438.81 166.59 1435.44 167.45 1439.66 167.45 1438.81 166.59"/>
        <polygon class="cls-4" points="1438.81 168.3 1439.66 171.67 1439.66 167.45 1438.81 168.3"/>
      </g>
      <g>
        <polygon class="cls-3" points="1532.85 346.81 1533.7 350.17 1537.07 351.03 1533.7 351.88 1532.85 355.25 1532 351.88 1528.63 351.03 1532 350.17 1532.85 346.81"/>
        <polygon class="cls-4" points="1532.85 351.03 1537.07 351.03 1533.7 351.88 1532.85 351.03"/>
        <polygon class="cls-4" points="1532.85 346.81 1532.85 351.03 1533.7 350.17 1532.85 346.81"/>
        <polygon class="cls-4" points="1532 350.17 1528.63 351.03 1532.85 351.03 1532 350.17"/>
        <polygon class="cls-4" points="1532 351.88 1532.85 355.25 1532.85 351.03 1532 351.88"/>
      </g>
      <g>
        <polygon class="cls-3" points="1493.42 340.19 1494.27 343.56 1497.64 344.41 1494.27 345.26 1493.42 348.63 1492.57 345.26 1489.2 344.41 1492.57 343.56 1493.42 340.19"/>
        <polygon class="cls-4" points="1493.42 344.41 1497.64 344.41 1494.27 345.26 1493.42 344.41"/>
        <polygon class="cls-4" points="1493.42 340.19 1493.42 344.41 1494.27 343.56 1493.42 340.19"/>
        <polygon class="cls-4" points="1492.57 343.56 1489.2 344.41 1493.42 344.41 1492.57 343.56"/>
        <polygon class="cls-4" points="1492.57 345.26 1493.42 348.63 1493.42 344.41 1492.57 345.26"/>
      </g>
      <g>
        <polygon class="cls-3" points="1544.87 302.75 1545.72 306.11 1549.09 306.96 1545.72 307.82 1544.87 311.18 1544.02 307.82 1540.65 306.96 1544.02 306.11 1544.87 302.75"/>
        <polygon class="cls-4" points="1544.87 306.96 1549.09 306.96 1545.72 307.82 1544.87 306.96"/>
        <polygon class="cls-4" points="1544.87 302.75 1544.87 306.96 1545.72 306.11 1544.87 302.75"/>
        <polygon class="cls-4" points="1544.02 306.11 1540.65 306.96 1544.87 306.96 1544.02 306.11"/>
        <polygon class="cls-4" points="1544.02 307.82 1544.87 311.18 1544.87 306.96 1544.02 307.82"/>
      </g>
      <g>
        <polygon class="cls-3" points="1532.87 290.75 1533.72 294.11 1537.09 294.96 1533.72 295.82 1532.87 299.18 1532.02 295.82 1528.65 294.96 1532.02 294.11 1532.87 290.75"/>
        <polygon class="cls-4" points="1532.87 294.96 1537.09 294.96 1533.72 295.82 1532.87 294.96"/>
        <polygon class="cls-4" points="1532.87 290.75 1532.87 294.96 1533.72 294.11 1532.87 290.75"/>
        <polygon class="cls-4" points="1532.02 294.11 1528.65 294.96 1532.87 294.96 1532.02 294.11"/>
        <polygon class="cls-4" points="1532.02 295.82 1532.87 299.18 1532.87 294.96 1532.02 295.82"/>
      </g>
      <g>
        <polygon class="cls-3" points="1549.38 381.45 1553.62 398.2 1570.38 402.45 1553.62 406.69 1549.38 423.45 1545.13 406.69 1528.38 402.45 1545.13 398.2 1549.38 381.45"/>
        <polygon class="cls-4" points="1549.38 402.45 1570.38 402.45 1553.62 406.69 1549.38 402.45"/>
        <polygon class="cls-4" points="1549.38 381.45 1549.38 402.45 1553.62 398.2 1549.38 381.45"/>
        <polygon class="cls-4" points="1545.13 398.2 1528.38 402.45 1549.38 402.45 1545.13 398.2"/>
        <polygon class="cls-4" points="1545.13 406.69 1549.38 423.45 1549.38 402.45 1545.13 406.69"/>
      </g>
      <g>
        <polygon class="cls-3" points="1532.22 420.15 1533.08 423.52 1536.44 424.37 1533.08 425.23 1532.22 428.59 1531.37 425.23 1528.01 424.37 1531.37 423.52 1532.22 420.15"/>
        <polygon class="cls-4" points="1532.22 424.37 1536.44 424.37 1533.08 425.23 1532.22 424.37"/>
        <polygon class="cls-4" points="1532.22 420.15 1532.22 424.37 1533.08 423.52 1532.22 420.15"/>
        <polygon class="cls-4" points="1531.37 423.52 1528.01 424.37 1532.22 424.37 1531.37 423.52"/>
        <polygon class="cls-4" points="1531.37 425.23 1532.22 428.59 1532.22 424.37 1531.37 425.23"/>
      </g>
      <g>
        <polygon class="cls-3" points="1464.35 376.02 1465.2 379.39 1468.57 380.24 1465.2 381.09 1464.35 384.46 1463.5 381.09 1460.13 380.24 1463.5 379.39 1464.35 376.02"/>
        <polygon class="cls-4" points="1464.35 380.24 1468.57 380.24 1465.2 381.09 1464.35 380.24"/>
        <polygon class="cls-4" points="1464.35 376.02 1464.35 380.24 1465.2 379.39 1464.35 376.02"/>
        <polygon class="cls-4" points="1463.5 379.39 1460.13 380.24 1464.35 380.24 1463.5 379.39"/>
        <polygon class="cls-4" points="1463.5 381.09 1464.35 384.46 1464.35 380.24 1463.5 381.09"/>
      </g>
      <g>
        <polygon class="cls-3" points="1830.35 288.02 1831.2 291.39 1834.57 292.24 1831.2 293.09 1830.35 296.46 1829.5 293.09 1826.13 292.24 1829.5 291.39 1830.35 288.02"/>
        <polygon class="cls-4" points="1830.35 292.24 1834.57 292.24 1831.2 293.09 1830.35 292.24"/>
        <polygon class="cls-4" points="1830.35 288.02 1830.35 292.24 1831.2 291.39 1830.35 288.02"/>
        <polygon class="cls-4" points="1829.5 291.39 1826.13 292.24 1830.35 292.24 1829.5 291.39"/>
        <polygon class="cls-4" points="1829.5 293.09 1830.35 296.46 1830.35 292.24 1829.5 293.09"/>
      </g>
      <g>
        <polygon class="cls-3" points="1862.35 215.02 1863.2 218.39 1866.57 219.24 1863.2 220.09 1862.35 223.46 1861.5 220.09 1858.13 219.24 1861.5 218.39 1862.35 215.02"/>
        <polygon class="cls-4" points="1862.35 219.24 1866.57 219.24 1863.2 220.09 1862.35 219.24"/>
        <polygon class="cls-4" points="1862.35 215.02 1862.35 219.24 1863.2 218.39 1862.35 215.02"/>
        <polygon class="cls-4" points="1861.5 218.39 1858.13 219.24 1862.35 219.24 1861.5 218.39"/>
        <polygon class="cls-4" points="1861.5 220.09 1862.35 223.46 1862.35 219.24 1861.5 220.09"/>
      </g>
      <g>
        <polygon class="cls-3" points="1800.35 227.02 1801.2 230.39 1804.57 231.24 1801.2 232.09 1800.35 235.46 1799.5 232.09 1796.13 231.24 1799.5 230.39 1800.35 227.02"/>
        <polygon class="cls-4" points="1800.35 231.24 1804.57 231.24 1801.2 232.09 1800.35 231.24"/>
        <polygon class="cls-4" points="1800.35 227.02 1800.35 231.24 1801.2 230.39 1800.35 227.02"/>
        <polygon class="cls-4" points="1799.5 230.39 1796.13 231.24 1800.35 231.24 1799.5 230.39"/>
        <polygon class="cls-4" points="1799.5 232.09 1800.35 235.46 1800.35 231.24 1799.5 232.09"/>
      </g>
      <g>
        <polygon class="cls-3" points="1761.35 346.02 1762.2 349.39 1765.57 350.24 1762.2 351.09 1761.35 354.46 1760.5 351.09 1757.13 350.24 1760.5 349.39 1761.35 346.02"/>
        <polygon class="cls-4" points="1761.35 350.24 1765.57 350.24 1762.2 351.09 1761.35 350.24"/>
        <polygon class="cls-4" points="1761.35 346.02 1761.35 350.24 1762.2 349.39 1761.35 346.02"/>
        <polygon class="cls-4" points="1760.5 349.39 1757.13 350.24 1761.35 350.24 1760.5 349.39"/>
        <polygon class="cls-4" points="1760.5 351.09 1761.35 354.46 1761.35 350.24 1760.5 351.09"/>
      </g>
    </g>
  </g>
</svg>