<?xml version="1.0" encoding="UTF-8"?>
<svg id="Layer_2" data-name="Layer 2" xmlns="http://www.w3.org/2000/svg" viewBox="0 0 639.52 643.91">
  <defs>
    <style>
      .cls-1 {
        fill: #009453;
      }

      .cls-2 {
        fill: #ec1c24;
      }

      .cls-3 {
        fill: #ffdc55;
      }

      .cls-4 {
        fill: #fff76a;
      }

      .cls-5 {
        fill: #ffee1f;
      }

      .cls-6 {
        fill: #ffd91f;
      }

      .cls-7 {
        fill: #00a653;
      }

      .cls-8 {
        fill: #a03b22;
      }

      .cls-9 {
        fill: #ba6039;
      }

      .cls-10 {
        fill: #c36c3f;
      }

      .cls-11 {
        fill: #c33d1e;
      }

      .cls-12 {
        fill: #333;
      }

      .cls-13 {
        fill: #bf0071;
      }

      .cls-14 {
        fill: #c0272d;
      }

      .cls-15 {
        fill: #d27544;
      }

      .cls-16 {
        fill: #dd7b4e;
      }

      .cls-17 {
        fill: #0de900;
      }

      .cls-18 {
        fill: #a5280a;
      }

      .cls-19 {
        fill: #97007d;
      }
    </style>
  </defs>
  <g id="Pickme">
    <g>
      <g>
        <path class="cls-2" d="m406.12,30.84l-14.75,13.52c-2.11,1.93-4.82,3.1-7.71,3.31l-11.83.87,4.66,5.99c1.54,1.98,2.47,4.36,2.67,6.84l.8,10.06,12.18-13.56c3.26-3.63,5.89-7.78,7.78-12.28l6.2-14.76Z"/>
        <path class="cls-14" d="m371.82,48.54s5.82,6.75,6.07,8.25,13.1.02,28.22-25.95l-14.75,13.52s-3.72,3.18-7.71,3.31-11.83.87-11.83.87Z"/>
      </g>
      <g>
        <path class="cls-15" d="m263.55,516.36l107.18-91.5c.17-.14.42-.11.54.08,3.72,5.97,54.85,85.77,132.62,86.37l-240.33,5.05"/>
        <path d="m389.73,88.62c0,37.98-49.75,100.94-94,100.94s-83.91-38.55-87.69-76.34C199.2,24.9,272.9.6,316.55,7.87c49.21,8.2,73.18,42.77,73.18,80.75Z"/>
        <path d="m389.1,88.62s-46.05-160.88-182.33-41.01C59.14,177.47,77.23,511.32,77.23,511.32l185.7,5.05S398.56,123.95,389.1,88.62Z"/>
        <path class="cls-7" d="m174.56,373.99s-42.23-139.64,41.99-173.39c0,0,29.52-14.43,63.4,7.26l37.85,64.98s0,8.2,28.39,32.81c28.39,24.6,28.12,25.66,20.37,68.35,0,0-2.84,42.1,4.48,50.6l-107.5,91.77s-27.76-60.22-47-74.9c-19.24-14.68-41.99-67.46-41.99-67.46Z"/>
        <path class="cls-1" d="m263.55,516.36l32.3-27.57s-86.5-111.85-115.86-108.07l43.36,70.9,40.2,64.74Z"/>
        <path class="cls-1" d="m324.24,380.72s40.1-2.42,44.27-17.61c0,0-2.02,10.28-2.08,13s-9.27,4.61-42.2,4.61Z"/>
        <path class="cls-10" d="m216.55,200.61s25.04-32.03,21.77-52.68c0,0,4.42,3.15,9.46-1.89,0,0,2.84,28.07,17.98,38.17,15.14,10.09,35.23,20.5,35.23,20.5,0,0-5.96,14.84-5.27,18.3,0,0-43.22-38.17-79.18-22.4Z"/>
        <path class="cls-9" d="m272.46,188.8s8.1,18.83,15.06,23.48,8.83,5.68,8.83,5.68c0,0,1.7-11.99,4.64-13.25,0,0-24.67-11.63-28.53-15.91Z"/>
        <path class="cls-15" d="m338.63,50.77c-19.11-4.31-32.81-.63-43.22,6.62-6.66,4.64-10.37,13.74-14.44,16.26-4.8,2.98-2.52,2.69-4.17,3.61-34.19,19.22-26.81,23.66-26.81,23.66-21.45-29.65-32.18,0-30.91,6.94s8.2,26.5,8.2,26.5c4.13,9.3,8.16,13.1,11.48,14.34,4.78,1.79,8.08-1.73,8.08-1.73,0,0,1.89,25.24,18.3,37.22,16.4,11.99,40.38,25.87,54.26,24.6,13.88-1.26,23.34-20.19,23.97-25.87.39-3.55,4.48-9.56,7.49-13.57,1.54-2.05,3.41-3.83,5.52-5.29,4.36-3.03,13.62-13.32,16-46.75,1.41-19.7.18-32.49-1.61-40.62-1.79-8.11-6.92-15.12-14.15-19.19-4.36-2.46-10.29-5.01-17.98-6.74Z"/>
        <path class="cls-15" d="m201.72,303.12s-46.69-90.22,60.56-97.79c0,0,54.89,6.94,54.26,55.52,0,0-1.26,34.07-40.38,100.94-39.11,66.87-58.67,99.68-58.67,99.68l-20.13,49.84h-67.22s52.65-167.18,71.58-208.19Z"/>
        <path class="cls-16" d="m291.35,215.89s39.8,16.65,26.46,56.96c-13.34,40.31-37.85,82.65-37.85,82.65,0,0,6.58-5.29,13.45-89.86.35-4.36-.62-8.72-2.8-12.51-2.41-4.19-6.48-9.9-13.17-16.24-13.71-12.99-3.08-25.59,13.92-21Z"/>
        <path class="cls-10" d="m131.07,511.32s60.53-209.75,95.89-261.19c0,0-5.68,37.22-.63,61.2,5.05,23.97,3.15,54.84-9.78,82.31-12.93,27.47-46.13,67.84-68.64,117.68h-16.84Z"/>
        <path d="m249.35,100.06s-1.04,3.7,3.74,13.16c4.78,9.46-1.92,10.15-1.92,10.15,0,0-3.4.58-.24,6.25,0,0-.44-4.47,3.88-4.45s6.75-18.99,3.96-23.99,14.27-22.48,14.27-22.48c0,0-24.63,6.93-23.69,21.35Z"/>
        <path d="m287.53,65.91s0,5.41-6.46,13.3c-.26.32-.55.62-.86.9-1.11,1.04-4.13,4.54-1.52,9.77,0,0-6.6-2.97-3.15-8.2,3.45-5.23-5.05-.63-5.05-.63l17.03-15.14Z"/>
        <path class="cls-9" d="m323.49,144.14s-1.28,2.45,2.2,3.75c1.74.65,2.64.12,3.36-.12,1.38-.47,1.97-.48,3.27-.47,2.52.01,4.42.63,5.68,3.15,2.5,5,4.42,3.79,8.83,2.52s5.02-7.35-.93-3.38c-.37.24-.76.45-1.18.58-1.32.41-3.74.58-4.19-3.51-.63-5.68-7.57-3.15-7.57-3.15,0,0-6.42,2.04-5.74-.56s-2.47-2.6-3.73,1.19Z"/>
        <path class="cls-8" d="m329.38,148.36s2.54-.74,4.45.83l1.14.94c.35.28.75.48,1.19.56,1.27.24,3.62.36,1.64-2.59-3.24-4.81-7.78-1.61-7.78-1.61,0,0-2.88,1.77-.64,1.87Z"/>
        <polygon class="cls-17" points="239.34 119.22 244.86 131.77 258.5 133.15 248.28 142.28 251.18 155.68 239.34 148.78 227.49 155.68 230.39 142.28 220.17 133.15 233.81 131.77 239.34 119.22"/>
        <path d="m250.3,100.61l42.9,8.2-3.15-13.25,46.69,13.88s5.68,20.19,16.4,3.79l36.88,5.99s-20.43,45.26-36.88,28.07c-.92-.96-3.3-8.86-3.79-10.09-1.28-3.22-8.57-7.07-14.51-.63-7.57,8.2-30.28,5.68-39.75-17.66l-42.9-8.2-1.89-10.09Z"/>
        <path class="cls-12" d="m294.46,113.23l43.53,20.82s-10.09,17.03-27.13,5.05c-19.61-13.8-15.77-21.45-16.4-25.87Z"/>
        <path class="cls-12" d="m348.72,135.94l34.07-3.79s-6.31,17.66-22.71,19.56c-7.99.92-11.36-15.77-11.36-15.77Z"/>
        <path class="cls-11" d="m306.45,166.85s7.57,18.93,14.51,18.3c4.34-.39,6.21.94,7.01,1.99,1.07,1.42,2.69,2.38,4.48,2.36,2.95-.04,7.07-2.11,10.6-11.29l.63-5.68-23.34-5.05-13.88-.63Z"/>
        <path class="cls-18" d="m306.45,166.85s12.62-.63,17.66-4.42,11.11,2.21,11.11,2.21c0,0,1.5,1.58,5.29.32s6.31,11.36,2.52,13.25c0,0-1.26-3.15-7.57-2.52-3.47.35-6.09-.41-7.74-1.17-.91-.42-1.69-1.06-2.39-1.78-.62-.64-2.41-1.68-7.49-2.1-7.62-.63-11.41-3.79-11.41-3.79Z"/>
        <path d="m344.3,103.76s6.94-3.79-9.46-13.88c-16.4-10.09-25.24-9.46-25.24-9.46,0,0-12.62-1.89-18.3,5.05-2.91,3.55.63-2.52,15.77.63,11.88,2.48,17.66,9.46,20.55,12.1,1.02.93,1.94,1.92,2.96,2.85,2.99,2.72,10.04,6.39,13.71,2.72Z"/>
        <path d="m355.39,104.68s-.71-7.22,7.49-7.22,10.09,1.26,10.09,1.26v7.57s-5.68,0-8.2,1.26-9.3-.06-9.38-2.87Z"/>
      </g>
      <g>
        <path class="cls-2" d="m291.1,0l4.26,19.5c.61,2.79,2.14,5.29,4.34,7.11l9.04,7.45-7.14,2.27c-2.36.75-4.45,2.18-6.01,4.1l-6.33,7.81-2.16-18.07c-.58-4.84-.36-9.75.66-14.52l3.33-15.66Z"/>
        <path class="cls-14" d="m308.74,34.06s-8.49,2.24-9.54,3.32-10.57-7.44-8.1-37.38l4.26,19.5s1.21,4.73,4.34,7.11c3.13,2.37,9.04,7.45,9.04,7.45Z"/>
      </g>
      <g>
        <g>
          <g>
            <path class="cls-13" d="m502.98,497.5c-6.79,0-13.37.6-19.64,1.73-11.71-19.15-39.24-32.6-71.36-32.6-18.65,0-35.76,4.54-49.13,12.1-14.14-10.56-34.41-17.17-56.92-17.17s-40.73,5.96-54.73,15.6c-14.19-11.25-35.13-18.36-58.48-18.36-32.53,0-60.37,13.8-71.81,33.36-3.92-.42-7.93-.64-12.02-.64-42.74,0-77.39,23.83-77.39,53.22,0,27.39,30.09,49.95,68.78,52.89,9.88,21.56,39.19,37.19,73.81,37.19,23.7,0,44.92-7.33,59.11-18.87,14.19,11.54,35.41,18.87,59.11,18.87s45.64-7.58,59.83-19.46c14.19,11.88,35.73,19.46,59.83,19.46,32.12,0,59.65-13.45,71.36-32.6,6.27,1.13,12.85,1.73,19.64,1.73,42.74,0,77.39-23.83,77.39-53.22s-34.64-53.22-77.39-53.22Z"/>
            <path class="cls-19" d="m411.98,636.7c-23.06,0-44.76-6.88-59.83-18.91-15.07,12.04-36.77,18.91-59.83,18.91s-44.08-6.67-59.11-18.35c-15.04,11.68-36.48,18.35-59.11,18.35-34.17,0-64.13-14.94-75.05-37.29-39.66-3.4-69.43-26.77-69.43-54.69,0-30.39,35.56-55.11,79.28-55.11,3.7,0,7.41.18,11.02.53,12.53-20.23,40.94-33.24,72.81-33.24,22.31,0,43.56,6.52,58.56,17.92,14.79-9.78,34.13-15.15,54.65-15.15s42.19,6.12,57.06,16.82c13.9-7.58,31.24-11.75,48.99-11.75,31.31,0,59.5,12.68,72.28,32.41,6.08-1.02,12.37-1.54,18.72-1.54,43.71,0,79.28,24.72,79.28,55.11s-35.56,55.11-79.28,55.11c-6.35,0-12.64-.52-18.71-1.54-12.79,19.73-40.97,32.41-72.29,32.41Zm-59.83-23.82l1.21,1.02c14.44,12.09,35.8,19.02,58.62,19.02,30.6,0,57.97-12.44,69.75-31.7l.68-1.11,1.28.23c6.25,1.13,12.74,1.7,19.3,1.7,41.63,0,75.49-23.03,75.49-51.33s-33.87-51.33-75.49-51.33c-6.56,0-13.06.57-19.3,1.7l-1.28.23-.68-1.11c-11.77-19.26-39.15-31.7-69.75-31.7-17.57,0-34.68,4.21-48.19,11.85l-1.08.61-.99-.74c-14.29-10.67-34.63-16.79-55.79-16.79s-39.35,5.42-53.66,15.26l-1.15.79-1.1-.87c-14.4-11.41-35.29-17.95-57.31-17.95-15.47,0-30.34,3.17-43,9.16-12.27,5.81-21.67,13.85-27.17,23.26l-.62,1.06-1.22-.13c-3.86-.42-7.84-.63-11.82-.63-41.63,0-75.49,23.03-75.49,51.33,0,26.17,28.82,48.1,67.03,51l1.11.08.47,1.01c4.66,10.17,14.17,19.33,26.77,25.79,13.16,6.74,28.83,10.3,45.32,10.3,22.39,0,43.5-6.72,57.92-18.45l1.19-.97,1.19.97c14.42,11.72,35.53,18.45,57.92,18.45s44.18-6.93,58.62-19.02l1.21-1.02Z"/>
          </g>
          <g>
            <path class="cls-19" d="m134.35,547.83l-3.6-1.16c3.86-12.05,15.18-20.88,28.82-22.5,14.73-1.75,28.62,5.27,34.56,17.47l-3.4,1.66c-5.24-10.75-17.58-16.93-30.72-15.37-12.17,1.45-22.25,9.25-25.66,19.89Z"/>
            <path class="cls-19" d="m242.43,560.84c-.84-7.1-4.71-13.42-10.9-17.8-6.25-4.42-14.1-6.33-22.11-5.38-6.23.74-13.97,1.66-19.03,4.98l-2.08-3.16c5.8-3.81,14.04-4.79,20.66-5.58,8.94-1.06,17.73,1.09,24.74,6.05,7.08,5,11.51,12.26,12.48,20.44l-3.76.45Z"/>
          </g>
          <g>
            <path class="cls-19" d="m283.73,522.8l-3.6-1.16c3.86-12.05,15.18-20.88,28.82-22.5,14.73-1.75,28.62,5.27,34.57,17.47l-3.4,1.66c-5.24-10.75-17.58-16.93-30.72-15.37-12.17,1.45-22.25,9.25-25.66,19.89Z"/>
            <path class="cls-19" d="m391.81,535.81c-.84-7.1-4.71-13.42-10.9-17.8-6.25-4.42-14.1-6.33-22.11-5.38-6.23.74-13.97,1.66-19.03,4.98l-2.08-3.16c5.8-3.81,14.04-4.79,20.66-5.58,8.94-1.06,17.73,1.09,24.74,6.05,7.08,5,11.51,12.26,12.48,20.44l-3.76.45Z"/>
          </g>
          <path class="cls-19" d="m438.93,572.01l-3.6-1.16c3.86-12.05,15.18-20.88,28.82-22.5,14.73-1.75,28.62,5.27,34.57,17.47l-3.4,1.66c-5.24-10.75-17.58-16.93-30.72-15.37-12.17,1.45-22.25,9.25-25.66,19.89Z"/>
        </g>
        <g>
          <polygon class="cls-4" points="578.2 489.62 584.4 558.98 639.52 566.77 584.4 574.56 578.2 643.91 572.01 574.56 516.88 566.77 572.01 558.98 578.2 489.62"/>
          <polygon class="cls-3" points="578.2 566.77 639.52 566.77 584.4 574.56 578.2 566.77"/>
          <polygon class="cls-3" points="584.4 558.98 578.2 489.62 578.2 566.77 584.4 558.98"/>
          <polygon class="cls-3" points="572.01 558.98 516.88 566.77 578.2 566.77 572.01 558.98"/>
          <polygon class="cls-3" points="572.01 574.56 578.2 643.91 578.2 566.77 572.01 574.56"/>
        </g>
        <g>
          <polygon class="cls-4" points="51.02 434.47 56.17 492.17 102.03 498.65 56.17 505.14 51.02 562.84 45.86 505.14 0 498.65 45.86 492.17 51.02 434.47"/>
          <polygon class="cls-3" points="51.02 498.65 102.03 498.65 56.17 505.14 51.02 498.65"/>
          <polygon class="cls-3" points="56.17 492.17 51.02 434.47 51.02 498.65 56.17 492.17"/>
          <polygon class="cls-3" points="45.86 492.17 0 498.65 51.02 498.65 45.86 492.17"/>
          <polygon class="cls-3" points="45.86 505.14 51.02 562.84 51.02 498.65 45.86 505.14"/>
        </g>
        <g>
          <polygon class="cls-5" points="608.85 521.97 612 534.43 624.46 537.58 612 540.74 608.85 553.19 605.69 540.74 593.24 537.58 605.69 534.43 608.85 521.97"/>
          <polygon class="cls-6" points="608.85 537.58 624.46 537.58 612 540.74 608.85 537.58"/>
          <polygon class="cls-6" points="608.85 521.97 608.85 537.58 612 534.43 608.85 521.97"/>
          <polygon class="cls-6" points="605.69 534.43 593.24 537.58 608.85 537.58 605.69 534.43"/>
          <polygon class="cls-6" points="605.69 540.74 608.85 553.19 608.85 537.58 605.69 540.74"/>
        </g>
        <g>
          <polygon class="cls-5" points="536.13 589.61 539.29 602.06 551.74 605.22 539.29 608.37 536.13 620.83 532.98 608.37 520.52 605.22 532.98 602.06 536.13 589.61"/>
          <polygon class="cls-6" points="536.13 605.22 551.74 605.22 539.29 608.37 536.13 605.22"/>
          <polygon class="cls-6" points="536.13 589.61 536.13 605.22 539.29 602.06 536.13 589.61"/>
          <polygon class="cls-6" points="532.98 602.06 520.52 605.22 536.13 605.22 532.98 602.06"/>
          <polygon class="cls-6" points="532.98 608.37 536.13 620.83 536.13 605.22 532.98 608.37"/>
        </g>
        <g>
          <polygon class="cls-5" points="58.72 559.12 61.79 571.25 73.92 574.33 61.79 577.4 58.72 589.53 55.64 577.4 43.51 574.33 55.64 571.25 58.72 559.12"/>
          <polygon class="cls-6" points="58.72 574.33 73.92 574.33 61.79 577.4 58.72 574.33"/>
          <polygon class="cls-6" points="58.72 559.12 58.72 574.33 61.79 571.25 58.72 559.12"/>
          <polygon class="cls-6" points="55.64 571.25 43.51 574.33 58.72 574.33 55.64 571.25"/>
          <polygon class="cls-6" points="55.64 577.4 58.72 589.53 58.72 574.33 55.64 577.4"/>
        </g>
        <g>
          <polygon class="cls-5" points="15.48 515.89 18.55 528.02 30.68 531.09 18.55 534.16 15.48 546.29 12.41 534.16 .28 531.09 12.41 528.02 15.48 515.89"/>
          <polygon class="cls-6" points="15.48 531.09 30.68 531.09 18.55 534.16 15.48 531.09"/>
          <polygon class="cls-6" points="15.48 515.89 15.48 531.09 18.55 528.02 15.48 515.89"/>
          <polygon class="cls-6" points="12.41 528.02 .28 531.09 15.48 531.09 12.41 528.02"/>
          <polygon class="cls-6" points="12.41 534.16 15.48 546.29 15.48 531.09 12.41 534.16"/>
        </g>
        <g>
          <polygon class="cls-5" points="497.01 495.21 503.98 522.75 531.51 529.72 503.98 536.69 497.01 564.22 490.04 536.69 462.5 529.72 490.04 522.75 497.01 495.21"/>
          <polygon class="cls-6" points="497.01 529.72 531.51 529.72 503.98 536.69 497.01 529.72"/>
          <polygon class="cls-6" points="497.01 495.21 497.01 529.72 503.98 522.75 497.01 495.21"/>
          <polygon class="cls-6" points="490.04 522.75 462.5 529.72 497.01 529.72 490.04 522.75"/>
          <polygon class="cls-6" points="490.04 536.69 497.01 564.22 497.01 529.72 490.04 536.69"/>
        </g>
        <g>
          <polygon class="cls-5" points="95.28 444.75 97.18 452.24 104.67 454.14 97.18 456.04 95.28 463.54 93.38 456.04 85.89 454.14 93.38 452.24 95.28 444.75"/>
          <polygon class="cls-6" points="95.28 454.14 104.67 454.14 97.18 456.04 95.28 454.14"/>
          <polygon class="cls-6" points="95.28 444.75 95.28 454.14 97.18 452.24 95.28 444.75"/>
          <polygon class="cls-6" points="93.38 452.24 85.89 454.14 95.28 454.14 93.38 452.24"/>
          <polygon class="cls-6" points="93.38 456.04 95.28 463.54 95.28 454.14 93.38 456.04"/>
        </g>
        <g>
          <polygon class="cls-5" points="551.61 531.09 553.01 536.62 558.54 538.02 553.01 539.42 551.61 544.95 550.21 539.42 544.68 538.02 550.21 536.62 551.61 531.09"/>
          <polygon class="cls-6" points="551.61 538.02 558.54 538.02 553.01 539.42 551.61 538.02"/>
          <polygon class="cls-6" points="551.61 531.09 551.61 538.02 553.01 536.62 551.61 531.09"/>
          <polygon class="cls-6" points="550.21 536.62 544.68 538.02 551.61 538.02 550.21 536.62"/>
          <polygon class="cls-6" points="550.21 539.42 551.61 544.95 551.61 538.02 550.21 539.42"/>
        </g>
      </g>
    </g>
  </g>
</svg>