<?xml version="1.0" encoding="UTF-8"?>
<svg id="Layer_2" data-name="Layer 2" xmlns="http://www.w3.org/2000/svg" viewBox="0 0 639.31 625.51">
  <defs>
    <style>
      .cls-1 {
        fill: #f4d2b1;
      }

      .cls-2 {
        fill: #f06c25;
      }

      .cls-3 {
        fill: #ecac7e;
      }

      .cls-4 {
        fill: #eba777;
      }

      .cls-5 {
        fill: #f3c196;
      }

      .cls-6 {
        fill: #ec1c24;
      }

      .cls-7 {
        fill: #f04e25;
      }

      .cls-8 {
        fill: #f05b25;
      }

      .cls-9 {
        fill: #ffdc55;
      }

      .cls-10 {
        fill: #fff76a;
      }

      .cls-11 {
        fill: #ffee1f;
      }

      .cls-12 {
        fill: #ffd91f;
      }

      .cls-13 {
        fill: #f07325;
      }

      .cls-14 {
        fill: #9f5ecc;
      }

      .cls-15 {
        fill: #743100;
      }

      .cls-16 {
        fill: #b03644;
      }

      .cls-17 {
        fill: #bf0071;
      }

      .cls-18 {
        fill: #c0272d;
      }

      .cls-19 {
        fill: #c65659;
      }

      .cls-20 {
        fill: #dc8756;
      }

      .cls-21 {
        fill: #97007d;
      }

      .cls-22 {
        fill: #4a0040;
      }

      .cls-23 {
        fill: #4f007f;
      }

      .cls-24 {
        fill: none;
        stroke: #30c700;
        stroke-miterlimit: 10;
        stroke-width: 8px;
      }
    </style>
  </defs>
  <g id="Pickme">
    <g>
      <g>
        <path class="cls-6" d="m488.48,35.36l-16.68,15.76c-2.38,2.25-5.45,3.61-8.71,3.86l-13.38,1.02,5.27,6.99c1.74,2.31,2.79,5.09,3.02,7.98l.91,11.74,13.77-15.81c3.69-4.24,6.66-9.07,8.79-14.32l7.01-17.22Z"/>
        <path class="cls-18" d="m449.71,56s6.57,7.88,6.86,9.62,14.81.03,31.9-30.26l-16.68,15.76s-4.21,3.71-8.71,3.86c-4.5.15-13.38,1.02-13.38,1.02Z"/>
      </g>
      <g>
        <path class="cls-15" d="m449.7,125.59s38.31-82.3-38.03-104.06c-7.34-2.09-15.74-3.62-25.33-4.47-109.39-9.65-100.3,122.85-67.44,163.38,32.85,40.53,130.81-54.85,130.81-54.85"/>
        <path class="cls-23" d="m434.71,31.91s-64.7-85.45-170.09,23.3c-105.39,108.75-112.67,402.55-112.67,402.55l291.01.88s48.27-233.72,16.35-389.83l-24.6-36.9Z"/>
        <path class="cls-14" d="m295.9,458.64L434.71,31.91s38.4,1.19,35.51,123.19,8.04,139.21-33.76,307.1l-140.56-3.56"/>
        <path class="cls-24" d="m428.24,211.32c9.98,0,21.25-11.98,21.25-26.75,0-5.39-1.97-12.46-3.82-16.66"/>
        <path class="cls-3" d="m319.52,167.64s.14,47.41-18.56,69.77c0,0,17,32.45,79.47,35.52,0,0,16.63-39.03,17.24-51.96,0,0-39.76-11.55-56.69-29.76-2.91-3.13-4.79-7.12-5.48-11.4l-4.37-27.03-11.61,14.86Z"/>
        <path class="cls-5" d="m322.92,120.31c-1.77-3.8-7.88-14.22-20.51-11.16-4.91,1.19-8.71,5.19-9.53,10.32-1.01,6.33.81,16.68,11.9,32.87,22.52,32.89,26.61,5.51,26.61,5.51,0,0,1.02,31.76,13.77,40.1s72.16,42,86.78,12.55c.23-.46.4-.95.54-1.44,1.11-3.96,6.66-23.13,14.25-39.17,8.5-17.98,2.97-44.29,2.97-44.29,0,0,15.72-37.71-2.55-64.46-17.05-24.96-35.58-26.63-37.98-26.74-.17,0-.33-.02-.5-.03-1.95-.19-15.47-.89-25.45,13.75-.76,1.11-1.24,2.4-1.38,3.76-.41,3.96-2.73,13.52-15.43,16.28-16.15,3.51-17,7.89-16.15,18.86.82,10.59,4.02,6.86-7.27,17.67-.67.64-1.42,1.18-2.22,1.63-1.77,1.01-5.28,4.05-4.96,12.27.41,10.6,1.22,18.74-11.03,4.59-.74-.86-1.38-1.82-1.86-2.86Z"/>
        <path class="cls-23" d="m324.78,123.17s1.86,4.76,9.11,11.41c3.82,3.51-2.12,13.16-2.12,13.16,0,0,13.17-6.58,7.65-16.66s11.04-33.97,11.04-33.97c0,0-26.29,1.07-25.68,26.07Z"/>
        <path class="cls-20" d="m423.41,153.47c.05.42-.39.71-.74.51-.66-.39-2.06-.98-4.48-.98-3.61,0-8.39.61-5.77-3.42,2.62-4.03,8.08,0,8.08,0,0,0,2.73,2.34,2.91,3.9Z"/>
        <path class="cls-20" d="m425.69,153.88s2.55-6.14,7.22-4.39c0,0,2.97.88,1.27,3.95,0,0-.85.88-2.55.44-1.7-.44-2.97-.44-4.25,0s-2.07.68-1.7,0Z"/>
        <path class="cls-4" d="m404.86,144.67s-1.27,7.89,8.92,8.33c0,0-3.4-1.32,0-4.17s7.22,1.97,7.22,1.97c0,0,.85.88,1.7,2.63s1.63,2.63,3.58,0,2.8-4.39,6.2-3.95,1.7,3.95,1.7,3.95c0,0,4.3-5.26,1.09-8.77,0,0-2.79-1.75-6.19,2.19-3.4,3.95-6.37.44-6.37.44,0,0-4.25-5.26-9.77-1.32-5.52,3.95-5.52-3.95-5.52-3.95,0,0-1.27-3.95-2.55,2.63Z"/>
        <ellipse class="cls-1" cx="426.32" cy="142.04" rx="2.76" ry="3.07"/>
        <path class="cls-19" d="m392.11,176.24s4.39,9.47,12,15.64c.34.27.68.54,1,.84.91.84,4.34,3.42,10.8,1.94,0,0,3.82-2.19,6.8,0,2.97,2.19,8.07-.88,9.77-3.51s1.9-4.51,2.01-5.33.27-4.69-.31-5.64-.85-1.75-2.55-2.19-3.82-.88-3.82-.88l-11.47-3.95-24.22,3.07Z"/>
        <path class="cls-16" d="m392.11,176.24s8.07-3.95,17.85-11.4c0,0,7.11-4.82,11.42,0,0,0,1.33,2.37,4.95.53s7.32-1.35,10.14,4.1c2.82,5.46-2.28,11.16-4.4,11.6s-3.82-1.32-3.82-1.32c0,0-1.27-2.19-3.4-.44s-4.25,1.32-5.95,0-2.97-3.07-8.5-1.32c-5.52,1.75-18.27-1.75-18.27-1.75Z"/>
        <path class="cls-14" d="m428.66,98.62s-1.7-6.14,10.62-9.65c12.32-3.51,16.66,1.15,16.66,1.15v4.47s-3.91-2.99-6.88-.36-6.8,8.33-12.32,9.21c-5.52.88-7.65-2.63-8.07-4.82Z"/>
        <path class="cls-14" d="m410.1,101.67c6.14,1.27,9.71-7.01,4.68-10.88-1.67-1.29-4.16-2.53-7.8-3.57-15.3-4.39-19.55-8.77-36.12-4.82-16.57,3.95-13.39,8.35-8.4,5.27,4.33-2.67,15.11-1.05,17.92-.57.44.08.86.2,1.28.37,3.28,1.39,19.08,8.2,26.32,13.27.62.43,1.31.75,2.04.9.03,0,.05.01.08.02Z"/>
        <path class="cls-22" d="m336.02,113.1l25.5-5.7s9.35-23.24,39.52-7.02c30.17,16.22,12.32,29.71,12.32,29.71,0,0-11.47,10.2-26.77,7.56-15.3-2.63-23.27-14.97-24.39-21.3l-28.31,4.63,2.12-7.89Z"/>
        <path class="cls-22" d="m418.28,117.26s7.84-2.41,11.87,0c0,0,2.08-13.65,25.79-17.9,23.71-4.24,20.74,15.93,18.61,19.43s-6.37,14.91-19.55,17.54c0,0-10.63,4.11-20.4-5.62,0,0-3.82-2.25-5.52-8.18,0,0-6.73-1.92-10.8.02s0-5.3,0-5.3"/>
        <path class="cls-7" d="m375.54,305.6l37.98,22.16c8.33,4.8,14.9,12.29,18.68,21.33,1.75,4.17,3.39,8.52,4.26,11.97,2.4,9.44,13.45,29.17,29.17,97.58h-48.45l-41.65-153.04Z"/>
        <path class="cls-8" d="m300.95,237.41s21.89,26.97,79.47,35.52c0,0-10.34,27.52,13,43.25h-134.75v-45.33s20.82-3.83,42.29-33.43Z"/>
        <path class="cls-13" d="m288.84,251.66l12.11-14.25s19.76,25.21,79.47,35.52c0,0-1.91,5.04-2.34,16.44,0,0-34,1.32-89.24-37.71Z"/>
        <polyline class="cls-8" points="292.64 254.31 303.53 240.16 305.81 242.25 295.1 255.97 292.64 254.31"/>
        <polygon class="cls-8" points="296.92 257.8 307.54 243.77 309.65 245.53 299.04 259.56 296.92 257.8"/>
        <polygon class="cls-8" points="302.61 260.95 312.47 247.63 314.5 249.06 304.96 262.4 302.61 260.95"/>
        <polyline class="cls-8" points="307.43 263.82 316.78 250.47 318.89 251.66 309.65 265.15 307.43 263.82"/>
        <polygon class="cls-8" points="312.01 266.52 320.77 252.77 322.7 253.87 314.03 267.67 312.01 266.52"/>
        <polygon class="cls-8" points="316.11 268.82 324.81 255.01 326.65 255.97 317.96 269.83 316.11 268.82"/>
        <polygon class="cls-8" points="320.2 271.03 328.74 257.02 330.98 258.09 322.7 272.32 320.2 271.03"/>
        <polygon class="cls-8" points="324.97 273.46 333.2 259.1 335.23 259.99 327.11 274.51 324.97 273.46"/>
        <polygon class="cls-8" points="329.25 275.53 337.23 260.84 339.23 261.65 330.98 276.34 329.25 275.53"/>
        <polygon class="cls-8" points="333.09 277.29 341.21 262.42 343.8 263.4 335.23 278.23 333.09 277.29"/>
        <polygon class="cls-8" points="337.66 279.26 345.84 264.12 348.25 264.95 339.8 280.13 337.66 279.26"/>
        <polygon class="cls-8" points="341.82 280.92 350.06 265.55 351.98 266.16 343.8 281.68 341.82 280.92"/>
        <polygon class="cls-8" points="345.81 282.41 354.09 266.81 355.75 267.3 347.43 282.98 345.81 282.41"/>
        <polygon class="cls-8" points="349.92 283.82 357.87 267.9 359.75 268.41 351.98 284.48 349.92 283.82"/>
        <polygon class="cls-8" points="354.11 285.13 361.36 268.84 363.34 269.34 356.22 285.74 354.11 285.13"/>
        <polygon class="cls-8" points="358.16 286.26 365.34 269.83 367.43 270.33 359.75 286.67 358.16 286.26"/>
        <polygon class="cls-8" points="362.21 287.25 369.02 270.68 371.19 271.16 364.28 287.7 362.21 287.25"/>
        <polygon class="cls-8" points="366.7 288.17 373.08 271.55 375.42 272.13 368.49 288.48 366.7 288.17"/>
        <polygon class="cls-8" points="371.06 288.86 377.03 272.32 378.74 272.63 372.87 289.38 371.06 288.86"/>
        <path class="cls-8" d="m375.42,289.38l4.45-16.55.56.1s-1.63,6.25-1.98,10.91l-1.5,5.54h-1.52Z"/>
        <polygon class="cls-8" points="291.02 253.19 302.11 238.72 300.95 237.41 289.69 252.26 291.02 253.19"/>
        <path class="cls-8" d="m258.67,270.84s-27.83,6.18-54.29,9.28c0,0-18.81-3.03-36.23,25.47-17.42,28.5-28.05,88.38-28.05,88.38l-13.54,67.54,63.82-3.76s12.07-31.85,21.32-59.86c5.75-17.42,10.42-33.36,10.42-39.24,0,0-6.8,24.99,2.97,66.65,9.77,41.66,5,32.45,5,32.45l174.34.88s24.65-42.53,24.28-60.44c-.13-6.11-.55-12.2-3-17.76-7.74-17.55-26.57-59.38-32.29-64.26l-134.75-45.33Z"/>
        <path class="cls-2" d="m157.38,328.79s14.06-42.87,39.4-47.94l27.72-3.56s15.82-6.24-22.02,30.9c-2.84,2.78-5.93,5.28-9.25,7.42-9.2,5.92-31.43,22.32-47.21,51.09l11.37-37.91Z"/>
        <path class="cls-7" d="m190.38,457.76h-23.7s27.82-74.11,48.64-109.63l12.46-17.84-7.24,37.95-30.16,89.52Z"/>
        <path class="cls-24" d="m313.92,163.52c-5.14,4.72-6.37,14.51-6.37,24.12,0,14.77,8.09,26.75,18.06,26.75s18.06-11.98,18.06-26.75-8.09-26.75-18.06-26.75"/>
      </g>
      <g>
        <path class="cls-6" d="m333.34,3.26l10.78,22.85c1.54,3.27,4.1,5.91,7.27,7.49l13.01,6.51-7.9,4.95c-2.61,1.64-4.7,4.03-6.01,6.88l-5.31,11.57-7.85-21.71c-2.1-5.82-3.26-11.95-3.43-18.16l-.56-20.38Z"/>
        <path class="cls-18" d="m364.4,40.11s-9.54,5.32-10.48,6.97-14.83-6.03-20.58-43.83l10.78,22.85s2.82,5.49,7.27,7.49,13.01,6.51,13.01,6.51Z"/>
      </g>
      <g>
        <g>
          <g>
            <path class="cls-17" d="m502.81,474.48c-6.78,0-13.37.62-19.63,1.79-11.7-19.76-39.23-33.63-71.34-33.63-18.65,0-35.75,4.68-49.11,12.48-14.13-10.89-34.4-17.71-56.9-17.71s-40.71,6.15-54.71,16.09c-14.19-11.6-35.12-18.94-58.46-18.94-32.52,0-60.35,14.23-71.79,34.41-3.92-.44-7.93-.66-12.02-.66-42.73,0-77.36,24.58-77.36,54.9,0,28.26,30.08,51.52,68.76,54.55,9.88,22.24,39.17,38.37,73.79,38.37,23.7,0,44.9-7.56,59.09-19.47,14.19,11.91,35.4,19.47,59.09,19.47s45.62-7.82,59.81-20.08c14.19,12.26,35.71,20.08,59.81,20.08,32.1,0,59.63-13.87,71.34-33.63,6.27,1.17,12.85,1.79,19.63,1.79,42.73,0,77.36-24.58,77.36-54.9s-34.63-54.9-77.36-54.9Z"/>
            <path class="cls-21" d="m411.84,618.07c-23.05,0-44.74-7.09-59.81-19.51-15.07,12.41-36.76,19.51-59.81,19.51s-44.06-6.88-59.09-18.93c-15.03,12.05-36.46,18.93-59.09,18.93-34.15,0-64.11-15.41-75.03-38.46-39.65-3.5-69.41-27.62-69.41-56.41,0-31.35,35.55-56.85,79.25-56.85,3.7,0,7.4.18,11.02.54,12.53-20.87,40.92-34.29,72.79-34.29,22.3,0,43.54,6.72,58.54,18.48,14.78-10.09,34.12-15.63,54.63-15.63s42.18,6.31,57.04,17.35c13.89-7.82,31.23-12.12,48.97-12.12,31.3,0,59.48,13.08,72.26,33.44,6.08-1.06,12.36-1.59,18.71-1.59,43.7,0,79.25,25.5,79.25,56.85s-35.55,56.85-79.25,56.85c-6.34,0-12.63-.54-18.71-1.59-12.79,20.35-40.96,33.44-72.26,33.44Zm-59.81-24.57l1.21,1.05c14.43,12.47,35.79,19.62,58.6,19.62,30.59,0,57.96-12.83,69.72-32.7l.68-1.14,1.28.24c6.24,1.17,12.74,1.76,19.3,1.76,41.61,0,75.47-23.75,75.47-52.94s-33.85-52.94-75.47-52.94c-6.56,0-13.05.59-19.3,1.76l-1.28.24-.68-1.14c-11.77-19.86-39.13-32.7-69.72-32.7-17.56,0-34.67,4.34-48.18,12.23l-1.07.63-.99-.76c-14.29-11.01-34.61-17.32-55.77-17.32s-39.34,5.59-53.64,15.74l-1.15.82-1.1-.9c-14.39-11.77-35.27-18.52-57.29-18.52-15.46,0-30.33,3.27-42.99,9.45-12.27,5.99-21.66,14.29-27.17,23.99l-.62,1.09-1.22-.14c-3.86-.43-7.84-.65-11.82-.65-41.61,0-75.47,23.75-75.47,52.94,0,27,28.81,49.61,67.01,52.61l1.11.09.46,1.05c4.66,10.49,14.16,19.94,26.76,26.6,13.15,6.95,28.82,10.63,45.31,10.63,22.38,0,43.49-6.94,57.9-19.03l1.19-1,1.19,1c14.41,12.09,35.52,19.03,57.9,19.03s44.16-7.15,58.6-19.62l1.21-1.05Z"/>
          </g>
          <g>
            <path class="cls-21" d="m134.31,526.4l-3.6-1.19c3.86-12.43,15.17-21.54,28.81-23.21,14.73-1.81,28.61,5.44,34.55,18.02l-3.4,1.71c-5.24-11.09-17.58-17.46-30.71-15.85-12.17,1.49-22.24,9.55-25.65,20.52Z"/>
            <path class="cls-21" d="m242.35,539.82c-.84-7.32-4.71-13.84-10.9-18.36-6.25-4.56-14.1-6.53-22.1-5.55-6.22.76-13.97,1.71-19.02,5.14l-2.08-3.26c5.8-3.93,14.03-4.94,20.65-5.75,8.94-1.1,17.72,1.12,24.73,6.24,7.07,5.16,11.5,12.65,12.47,21.08l-3.76.46Z"/>
          </g>
          <g>
            <path class="cls-21" d="m283.64,500.58l-3.6-1.19c3.86-12.43,15.17-21.53,28.81-23.21,14.72-1.8,28.61,5.44,34.55,18.02l-3.4,1.71c-5.24-11.09-17.58-17.46-30.71-15.85-12.17,1.49-22.24,9.55-25.65,20.52Z"/>
            <path class="cls-21" d="m391.68,513.99c-.84-7.32-4.71-13.84-10.9-18.36-6.25-4.56-14.1-6.53-22.1-5.55-6.22.76-13.97,1.71-19.02,5.14l-2.08-3.26c5.8-3.93,14.03-4.94,20.65-5.75,8.94-1.09,17.72,1.12,24.73,6.24,7.07,5.16,11.5,12.65,12.47,21.08l-3.76.46Z"/>
          </g>
          <path class="cls-21" d="m438.78,551.33l-3.6-1.19c3.86-12.43,15.17-21.53,28.81-23.21,14.72-1.8,28.61,5.44,34.55,18.02l-3.4,1.71c-5.24-11.09-17.58-17.46-30.71-15.85-12.17,1.49-22.24,9.55-25.65,20.52Z"/>
        </g>
        <g>
          <polygon class="cls-10" points="578.01 466.36 584.2 537.89 639.31 545.93 584.2 553.97 578.01 625.51 571.82 553.97 516.71 545.93 571.82 537.89 578.01 466.36"/>
          <polygon class="cls-9" points="578.01 545.93 639.31 545.93 584.2 553.97 578.01 545.93"/>
          <polygon class="cls-9" points="584.2 537.89 578.01 466.36 578.01 545.93 584.2 537.89"/>
          <polygon class="cls-9" points="571.82 537.89 516.71 545.93 578.01 545.93 571.82 537.89"/>
          <polygon class="cls-9" points="571.82 553.97 578.01 625.51 578.01 545.93 571.82 553.97"/>
        </g>
        <g>
          <polygon class="cls-10" points="51 409.47 56.15 468.98 102 475.67 56.15 482.36 51 541.87 45.85 482.36 0 475.67 45.85 468.98 51 409.47"/>
          <polygon class="cls-9" points="51 475.67 102 475.67 56.15 482.36 51 475.67"/>
          <polygon class="cls-9" points="56.15 468.98 51 409.47 51 475.67 56.15 468.98"/>
          <polygon class="cls-9" points="45.85 468.98 0 475.67 51 475.67 45.85 468.98"/>
          <polygon class="cls-9" points="45.85 482.36 51 541.87 51 475.67 45.85 482.36"/>
        </g>
        <g>
          <polygon class="cls-11" points="608.64 499.72 611.79 512.57 624.25 515.83 611.79 519.08 608.64 531.93 605.49 519.08 593.04 515.83 605.49 512.57 608.64 499.72"/>
          <polygon class="cls-12" points="608.64 515.83 624.25 515.83 611.79 519.08 608.64 515.83"/>
          <polygon class="cls-12" points="608.64 499.72 608.64 515.83 611.79 512.57 608.64 499.72"/>
          <polygon class="cls-12" points="605.49 512.57 593.04 515.83 608.64 515.83 605.49 512.57"/>
          <polygon class="cls-12" points="605.49 519.08 608.64 531.93 608.64 515.83 605.49 519.08"/>
        </g>
        <g>
          <polygon class="cls-11" points="535.95 569.49 539.11 582.34 551.56 585.59 539.11 588.84 535.95 601.69 532.8 588.84 520.35 585.59 532.8 582.34 535.95 569.49"/>
          <polygon class="cls-12" points="535.95 585.59 551.56 585.59 539.11 588.84 535.95 585.59"/>
          <polygon class="cls-12" points="535.95 569.49 535.95 585.59 539.11 582.34 535.95 569.49"/>
          <polygon class="cls-12" points="532.8 582.34 520.35 585.59 535.95 585.59 532.8 582.34"/>
          <polygon class="cls-12" points="532.8 588.84 535.95 601.69 535.95 585.59 532.8 588.84"/>
        </g>
        <g>
          <polygon class="cls-11" points="58.7 538.05 61.77 550.56 73.89 553.73 61.77 556.89 58.7 569.41 55.63 556.89 43.5 553.73 55.63 550.56 58.7 538.05"/>
          <polygon class="cls-12" points="58.7 553.73 73.89 553.73 61.77 556.89 58.7 553.73"/>
          <polygon class="cls-12" points="58.7 538.05 58.7 553.73 61.77 550.56 58.7 538.05"/>
          <polygon class="cls-12" points="55.63 550.56 43.5 553.73 58.7 553.73 55.63 550.56"/>
          <polygon class="cls-12" points="55.63 556.89 58.7 569.41 58.7 553.73 55.63 556.89"/>
        </g>
        <g>
          <polygon class="cls-11" points="15.47 493.45 18.54 505.96 30.67 509.13 18.54 512.29 15.47 524.81 12.4 512.29 .28 509.13 12.4 505.96 15.47 493.45"/>
          <polygon class="cls-12" points="15.47 509.13 30.67 509.13 18.54 512.29 15.47 509.13"/>
          <polygon class="cls-12" points="15.47 493.45 15.47 509.13 18.54 505.96 15.47 493.45"/>
          <polygon class="cls-12" points="12.4 505.96 .28 509.13 15.47 509.13 12.4 505.96"/>
          <polygon class="cls-12" points="12.4 512.29 15.47 524.81 15.47 509.13 12.4 512.29"/>
        </g>
        <g>
          <polygon class="cls-11" points="496.84 472.12 503.81 500.52 531.34 507.71 503.81 514.9 496.84 543.31 489.87 514.9 462.35 507.71 489.87 500.52 496.84 472.12"/>
          <polygon class="cls-12" points="496.84 507.71 531.34 507.71 503.81 514.9 496.84 507.71"/>
          <polygon class="cls-12" points="496.84 472.12 496.84 507.71 503.81 500.52 496.84 472.12"/>
          <polygon class="cls-12" points="489.87 500.52 462.35 507.71 496.84 507.71 489.87 500.52"/>
          <polygon class="cls-12" points="489.87 514.9 496.84 543.31 496.84 507.71 489.87 514.9"/>
        </g>
        <g>
          <polygon class="cls-11" points="95.25 420.07 97.14 427.8 104.64 429.76 97.14 431.72 95.25 439.45 93.35 431.72 85.86 429.76 93.35 427.8 95.25 420.07"/>
          <polygon class="cls-12" points="95.25 429.76 104.64 429.76 97.14 431.72 95.25 429.76"/>
          <polygon class="cls-12" points="95.25 420.07 95.25 429.76 97.14 427.8 95.25 420.07"/>
          <polygon class="cls-12" points="93.35 427.8 85.86 429.76 95.25 429.76 93.35 427.8"/>
          <polygon class="cls-12" points="93.35 431.72 95.25 439.45 95.25 429.76 93.35 431.72"/>
        </g>
        <g>
          <polygon class="cls-11" points="551.42 509.13 552.82 514.83 558.35 516.28 552.82 517.72 551.42 523.43 550.02 517.72 544.49 516.28 550.02 514.83 551.42 509.13"/>
          <polygon class="cls-12" points="551.42 516.28 558.35 516.28 552.82 517.72 551.42 516.28"/>
          <polygon class="cls-12" points="551.42 509.13 551.42 516.28 552.82 514.83 551.42 509.13"/>
          <polygon class="cls-12" points="550.02 514.83 544.49 516.28 551.42 516.28 550.02 514.83"/>
          <polygon class="cls-12" points="550.02 517.72 551.42 523.43 551.42 516.28 550.02 517.72"/>
        </g>
      </g>
    </g>
  </g>
</svg>