<?xml version="1.0" encoding="UTF-8"?>
<svg id="Layer_2" data-name="Layer 2" xmlns="http://www.w3.org/2000/svg" viewBox="0 0 156.7 99">
  <defs>
    <style>
      .cls-1 {
        fill: #f50096;
      }

      .cls-2 {
        fill: #97007d;
      }
    </style>
  </defs>
  <g id="Spilelementer">
    <g>
      <g>
        <path class="cls-1" d="m134.22,22.35c-1.92,0-3.79.33-5.57.95-3.32-10.55-11.13-17.95-20.23-17.95-5.29,0-10.14,2.5-13.93,6.66-4.01-5.81-9.76-9.45-16.14-9.45s-11.55,3.28-15.52,8.59c-4.02-6.19-9.96-10.11-16.58-10.11-9.22,0-17.12,7.6-20.36,18.37-1.11-.23-2.25-.35-3.41-.35C10.36,19.06.54,32.17.54,48.36c0,15.08,8.53,27.5,19.5,29.12,2.8,11.87,11.11,20.48,20.93,20.48,6.72,0,12.74-4.04,16.76-10.39,4.02,6.36,10.04,10.39,16.76,10.39s12.94-4.17,16.96-10.72c4.02,6.54,10.13,10.72,16.96,10.72,9.11,0,16.91-7.41,20.23-17.95,1.78.62,3.64.95,5.57.95,12.12,0,21.94-13.12,21.94-29.3s-9.82-29.3-21.94-29.3Z"/>
        <path class="cls-1" d="m108.42,99c-6.54,0-12.69-3.79-16.96-10.41-4.27,6.63-10.43,10.41-16.96,10.41s-12.5-3.67-16.76-10.1c-4.26,6.43-10.34,10.1-16.76,10.1-9.69,0-18.18-8.23-21.28-20.53C8.44,76.6,0,63.73,0,48.36c0-16.73,10.08-30.35,22.48-30.35,1.05,0,2.1.1,3.13.29C29.16,7.16,37.21,0,46.25,0c6.33,0,12.35,3.59,16.6,9.87,4.19-5.39,9.68-8.34,15.5-8.34s11.96,3.37,16.18,9.26c3.94-4.18,8.86-6.47,13.89-6.47,8.88,0,16.87,6.98,20.5,17.85,1.72-.56,3.51-.85,5.31-.85,12.39,0,22.48,13.61,22.48,30.35s-10.08,30.35-22.48,30.35c-1.8,0-3.58-.29-5.31-.85-3.63,10.86-11.62,17.85-20.5,17.85Zm-16.96-13.12l.34.56c4.09,6.66,10.15,10.47,16.62,10.47,8.68,0,16.44-6.85,19.78-17.45l.19-.61.36.13c1.77.62,3.61.94,5.47.94,11.8,0,21.41-12.68,21.41-28.26s-9.6-28.26-21.41-28.26c-1.86,0-3.7.32-5.47.94l-.36.13-.19-.61c-3.34-10.6-11.1-17.45-19.78-17.45-4.98,0-9.83,2.32-13.66,6.53l-.3.33-.28-.41c-4.05-5.88-9.82-9.25-15.82-9.25s-11.16,2.98-15.21,8.4l-.33.44-.31-.48c-4.08-6.28-10-9.88-16.25-9.88-4.39,0-8.6,1.74-12.19,5.04-3.48,3.2-6.14,7.63-7.7,12.8l-.18.58-.35-.07c-1.1-.23-2.22-.35-3.35-.35-11.8,0-21.41,12.68-21.41,28.26,0,14.41,8.17,26.48,19.01,28.08l.32.05.13.56c1.32,5.6,4.02,10.64,7.59,14.2,3.73,3.71,8.17,5.67,12.85,5.67,6.35,0,12.33-3.7,16.42-10.16l.34-.53.34.53c4.09,6.46,10.07,10.16,16.42,10.16s12.53-3.82,16.62-10.47l.34-.56Z"/>
      </g>
      <g>
        <path class="cls-2" d="m31.77,56.16l-1.34-.54c1.44-5.62,5.65-9.74,10.73-10.5,5.48-.82,10.66,2.46,12.87,8.15l-1.27.77c-1.95-5.02-6.55-7.9-11.43-7.17-4.53.67-8.28,4.32-9.55,9.28Z"/>
        <path class="cls-2" d="m72.01,62.23c-.31-3.31-1.76-6.26-4.06-8.3-2.33-2.06-5.25-2.95-8.23-2.51-2.32.35-5.2.77-7.08,2.32l-.77-1.48c2.16-1.78,5.23-2.24,7.69-2.6,3.33-.5,6.6.51,9.21,2.82,2.63,2.33,4.28,5.72,4.65,9.54l-1.4.21Z"/>
      </g>
      <g>
        <path class="cls-2" d="m63.87,37.84l-1.42-.62c1.52-6.47,5.98-11.21,11.36-12.08,5.81-.94,11.28,2.83,13.62,9.38l-1.34.89c-2.06-5.77-6.93-9.09-12.11-8.25-4.8.78-8.77,4.97-10.11,10.68Z"/>
        <path class="cls-2" d="m106.47,44.83c-.33-3.81-1.86-7.2-4.3-9.55-2.46-2.37-5.56-3.4-8.71-2.89-2.45.4-5.51.89-7.5,2.67l-.82-1.7c2.29-2.05,5.53-2.57,8.14-3,3.52-.57,6.99.58,9.75,3.25,2.79,2.69,4.54,6.58,4.92,10.97l-1.48.24Z"/>
      </g>
      <path class="cls-2" d="m111.19,60l-1.5-.5c1.6-5.24,6.3-9.08,11.96-9.78,6.11-.76,11.88,2.29,14.35,7.6l-1.41.72c-2.17-4.68-7.3-7.36-12.75-6.68-5.05.63-9.23,4.02-10.65,8.65Z"/>
    </g>
  </g>
</svg>