<?xml version="1.0" encoding="UTF-8"?>
<svg id="Layer_2" data-name="Layer 2" xmlns="http://www.w3.org/2000/svg" viewBox="0 0 578.95 206.59">
  <defs>
    <style>
      .cls-1 {
        fill: #ff9abe;
      }

      .cls-2 {
        fill: #f50096;
      }

      .cls-3 {
        fill: #af14c1;
      }

      .cls-4 {
        fill: #97007d;
        stroke: #ff9abe;
        stroke-miterlimit: 10;
        stroke-width: 3px;
      }
    </style>
  </defs>
  <g id="Spilelementer">
    <g>
      <g>
        <rect class="cls-2" x="2.5" y="2.5" width="573.96" height="201.59" rx="41.86" ry="41.86"/>
        <path class="cls-3" d="m534.6,206.59H44.35c-24.46,0-44.35-19.9-44.35-44.35V44.35C0,19.9,19.9,0,44.35,0h490.25c24.46,0,44.35,19.9,44.35,44.35v117.88c0,24.46-19.9,44.35-44.35,44.35ZM44.35,5C22.65,5,5,22.65,5,44.35v117.88c0,21.7,17.65,39.36,39.36,39.36h490.25c21.7,0,39.36-17.65,39.36-39.36V44.35c0-21.7-17.65-39.36-39.36-39.36H44.35Z"/>
      </g>
      <path class="cls-1" d="m25.82,18.33c-7.61,5.58-13.43,22.7-7.5,26.66,19.99,13.33,10.72-10.25,18.33-15.83s19.99-5,19.16-14.16c-.65-7.1-22.38-2.24-29.99,3.33Z"/>
      <path class="cls-1" d="m12.44,114.42c0,40.5,1.77,50.52,7.08,50.52,7.08,0,7.08-10.02,7.08-50.52s1.21-47.24-7.08-56.35c-8.85-9.71-7.08,15.84-7.08,56.35Z"/>
      <path class="cls-1" d="m550.36,186.26c7.95-5.07,20.96-22.25,9.6-26.2-17.26-6-7.95,14.09-19.7,14.68-9.42.48-20.28,3.69-20.04,12.88.18,7.13,22.19,3.7,30.14-1.37Z"/>
      <path class="cls-1" d="m569.1,90.52c0-45.15-1.78-56.31-7.12-56.31-7.12,0-7.12,11.16-7.12,56.31s-1.22,52.66,7.12,62.81c8.9,10.83,7.12-17.66,7.12-62.81Z"/>
      <g>
        <path class="cls-4" d="m142.71,38.5c.52-.55,1.22-.92,2.1-1.11.87-.18,1.75-.28,2.62-.28.17,0,.59.02,1.24.07.66.05,1.46.07,2.42.07,8.47-.18,16.31-.28,23.51-.28s12.99.09,17.36.28c5.5,0,9.41,1.48,11.72,4.42,2.31,2.95,3.47,7.19,3.47,12.72,0,4.06-.46,8.09-1.38,12.1s-2.23,7.88-3.93,11.61c-1.7,3.73-3.75,7.24-6.16,10.51-2.4,3.27-5.04,6.2-7.92,8.78-.44.55-.77,1.27-.98,2.14-.22.88-.33,1.59-.33,2.14,0,.83.13,1.71.39,2.63.44,1.48,1.2,3.46,2.29,5.94,1.09,2.49,2.42,4.96,4,7.4,1.57,2.44,3.27,4.61,5.11,6.5,1.83,1.89,3.71,2.97,5.63,3.25h.39c1.31,0,2.25-.37,2.82-1.11.57-.74,1.07-1.61,1.51-2.63.44-1.01.92-1.96,1.44-2.83.52-.88,1.4-1.36,2.62-1.45.96,0,1.83.51,2.62,1.52.79,1.02,1.4,2.28,1.83,3.8.44,1.52.66,3.16.66,4.91,0,.19-.02.81-.07,1.87-.04,1.06-.39,2.49-1.05,4.29-.66,1.8-1.68,3.41-3.08,4.84-1.4,1.43-3.23,2.37-5.5,2.83-.87.18-1.75.28-2.62.28-1.66,0-3.54-.46-5.63-1.38-2.1-.92-4.15-2.26-6.16-4.01-2.18-2.12-4.21-4.72-6.09-7.81-1.88-3.09-3.56-6.22-5.04-9.4-1.49-3.18-2.73-6.2-3.73-9.06-1-2.86-1.77-5.16-2.29-6.91l-3.93,1.66c-.7.28-1.24.53-1.64.76-.39.23-.66.55-.79.97-.13.41-.2.95-.2,1.59v2.76c.17,3.23.37,6.27.59,9.12.22,2.86.46,4.79.72,5.81.35,1.75.89,3.09,1.64,4.01.74.92,1.59,2.17,2.55,3.73,1.4,2.3,2.1,4.1,2.1,5.39,0,.19-.07.65-.2,1.38-.13.74-1.59,1.11-4.39,1.11-6.64.18-12.05.28-16.24.28-1.05,0-2.9-.02-5.57-.07-2.67-.05-4.21-.16-4.65-.35-.87-.28-1.4-.71-1.57-1.31-.18-.6-.26-1.13-.26-1.59,0-.37.04-.83.13-1.38.09-.55.33-1.22.72-2,.39-.78.76-1.45,1.11-2,1.31-1.84,2.4-3.75,3.27-5.74.87-1.98,1.53-4.17,1.96-6.57.35-1.66.61-4.01.79-7.05.17-3.04.26-6.45.26-10.23s-.02-7.72-.07-11.82c-.04-4.1-.11-8-.2-11.68-.09-3.68-.2-7-.33-9.95-.13-2.95-.2-5.21-.2-6.77-.09-1.94-.24-3.73-.46-5.39-.22-1.66-.57-3.22-1.05-4.7-.48-1.47-1.16-2.88-2.03-4.22-.87-1.33-2.1-2.6-3.67-3.8-1.05-.74-1.81-1.63-2.29-2.7-.48-1.06-.72-2.1-.72-3.11v-.42c0-1.11.26-1.89.79-2.35Zm27.11,47.28c.09,3.13.13,5.94.13,8.43,0,1.11-.04,1.94-.13,2.49,0,.46.22.69.65.69.26,0,.79-.14,1.57-.42,4.28-1.38,7.68-3.53,10.22-6.43,2.53-2.9,4.45-6.1,5.76-9.61,1.31-3.5,2.07-6.75,2.29-9.75.22-2.99.33-5.41.33-7.26,0-1.66-.04-3.27-.13-4.84-.09-1.66-.24-3.18-.46-4.56-.22-1.38-.63-2.58-1.24-3.59-.61-1.01-1.46-1.8-2.55-2.35-1.09-.55-2.6-.83-4.52-.83-2.18,0-3.97.3-5.37.9-1.4.6-2.53,1.45-3.41,2.56-.87,1.11-1.51,2.37-1.9,3.8-.39,1.43-.68,2.97-.85,4.63-.26,2.03-.42,4.52-.46,7.46-.04,2.95-.07,6.01-.07,9.19s.04,6.34.13,9.47Z"/>
        <path class="cls-4" d="m220.78,99.33c1.13-3.96,2.77-7.58,4.91-10.85,2.14-3.27,4.76-5.9,7.86-7.88,3.1-1.98,6.62-2.97,10.54-2.97h.52c3.06,0,5.83.6,8.32,1.8,2.49,1.2,4.67,2.81,6.55,4.84,1.88,2.03,3.49,4.38,4.85,7.05,1.35,2.67,2.38,5.48,3.08,8.43.61,2.67.92,4.66.92,5.94,0,.28-.04.81-.13,1.59-.09.78-.66,1.54-1.7,2.28-.52.37-1.59.74-3.21,1.11-1.62.37-3.52.76-5.7,1.17-2.18.42-4.45.81-6.81,1.17-2.36.37-4.54.69-6.55.97-2.01.28-3.67.51-4.98.69l-2.1.28c.87,3.23,2.6,6.06,5.17,8.5,2.57,2.44,5.52,3.66,8.84,3.66,2.27,0,4.37-.76,6.29-2.28,1.92-1.52,3.54-3.43,4.85-5.74.79-1.38,1.62-2.07,2.49-2.07h.13c.87.09,1.35.55,1.44,1.38.09.83.17,1.38.26,1.66-.09,1.11-.35,2.51-.79,4.22-.44,1.71-1.22,3.66-2.36,5.88-1.14,2.21-2.6,4.29-4.39,6.22-1.79,1.94-3.89,3.59-6.29,4.98-2.4,1.38-5.13,2.21-8.19,2.49-.7.09-1.4.14-2.1.14-1.83,0-3.45-.28-4.85-.83-5.76-1.94-10.3-5.71-13.62-11.34-3.32-5.62-4.98-12.49-4.98-20.6,0-3.87.57-7.83,1.7-11.89Zm14.8,4.56c0,.74.07,1.24.2,1.52s.59.42,1.38.42c.7,0,1.59-.07,2.69-.21,1.09-.14,2.55-.35,4.39-.62,2.01-.18,3.54-.42,4.58-.69s1.62-1.11,1.7-2.49c0-.92-.13-2.05-.39-3.39-.26-1.33-.68-2.6-1.24-3.8-.57-1.2-1.27-2.23-2.1-3.11-.83-.88-1.81-1.31-2.95-1.31-1.31,0-2.49.51-3.54,1.52-1.05,1.02-1.92,2.24-2.62,3.66-.7,1.43-1.22,2.93-1.57,4.49-.35,1.57-.52,2.9-.52,4.01Z"/>
        <path class="cls-4" d="m268.45,155.6c0-1.57.7-4.29,2.1-8.16.52-1.38.94-2.61,1.25-3.66.3-1.06.57-2.14.79-3.25.22-1.11.39-2.35.52-3.73.13-1.38.24-3.18.33-5.39.26-4.05.39-7.83.39-11.34,0-.64-.02-2.12-.07-4.42-.05-2.3-.11-5.71-.2-10.23l-.39-6.36c-.18-2.4-.37-4.24-.59-5.53-.22-1.29-.63-2.58-1.24-3.87-.52-1.01-.96-1.98-1.31-2.9-.35-.92-.52-1.61-.52-2.07,0-1.57.37-2.86,1.11-3.87.74-1.01,1.64-1.98,2.69-2.9,1.05-.92,2.12-1.87,3.21-2.83,1.09-.97,1.99-2.19,2.69-3.66,1.75-3.78,3.45-5.67,5.11-5.67.26,0,.48.05.65.14,1.13.28,1.99,1.02,2.55,2.21.57,1.2.98,2.65,1.24,4.35.26,1.71.39,3.5.39,5.39s-.04,3.66-.13,5.32h.13c.87-.46,1.9-1.06,3.08-1.8,1.18-.74,2.49-1.43,3.93-2.07,1.44-.64,2.84-1.15,4.19-1.52,1.35-.37,2.6-.55,3.73-.55.52,0,1.05.05,1.57.14,2.27.28,4.45,1.06,6.55,2.35,2.1,1.29,3.99,2.93,5.7,4.91,1.7,1.98,3.19,4.26,4.45,6.84,1.27,2.58,2.25,5.3,2.95,8.16.52,2.03.81,3.87.85,5.53.04,1.66.07,2.67.07,3.04,0,2.58-.15,5.32-.46,8.23-.31,2.9-.77,5.74-1.38,8.5-.61,2.76-1.4,5.07-2.36,6.91-1.92,3.78-4.45,6.59-7.6,8.43-3.14,1.84-6.55,2.77-10.22,2.77-3.41,0-6.77-.83-10.09-2.49l-4.19-2.07c.26,1.94.68,4.08,1.24,6.43.57,2.35,1.38,4.35,2.42,6.01.44.64.74,1.4.92,2.28.17.88.26,1.75.26,2.63s-.13,1.66-.39,2.35c-.26.69-.61,1.22-1.05,1.59-.26.18-.63.35-1.11.48-.48.14-1.16.25-2.03.35-.87.09-1.96.14-3.27.14h-5.11c-2.36,0-4.21-.02-5.57-.07-1.35-.05-2.45-.09-3.27-.14-.83-.05-1.44-.16-1.83-.35-.39-.19-.81-.42-1.24-.69-.96-.92-1.44-2.07-1.44-3.46v-.42Zm20.17-46.04c0,3.04.07,6.08.2,9.12.13,3.04.24,5.9.33,8.57,0,.83.09,1.36.26,1.59.17.23.52.67,1.05,1.31,1.75,1.66,3.67,2.49,5.76,2.49,1.22,0,2.27-.23,3.14-.69,2.44-1.01,4.41-3.27,5.89-6.77,1.48-3.5,2.27-7.88,2.36-13.13v-2.63c0-4.33-.39-8.23-1.18-11.68-.79-3.46-2.05-5.78-3.8-6.98-1.57-1.01-3.32-1.52-5.24-1.52-1.22,0-2.45.19-3.67.55-1.22.37-2.45.78-3.67,1.24-.87.46-1.35.9-1.44,1.31-.09.41-.13.81-.13,1.17v7.46c0,2.77.04,5.62.13,8.57Z"/>
        <path class="cls-4" d="m330.02,133.75c.96-1.47,1.7-3.13,2.23-4.98.52-1.84.94-3.75,1.24-5.74.3-1.98.5-3.96.59-5.95.09-1.98.17-3.85.26-5.6.17-3.32.33-6.96.46-10.92.13-3.96.24-7.83.33-11.61.09-3.78.13-7.23.13-10.37s-.04-5.58-.13-7.33c-.09-1.11-.22-2.6-.39-4.49-.18-1.89-.26-3.57-.26-5.05,0-.92.04-2.21.13-3.87.09-1.66.41-3.5.98-5.53.57-2.03,1.59-3.23,3.08-3.59h.52c1.66,0,3.45,1.89,5.37,5.67.7,1.48,1.59,2.7,2.68,3.66,1.09.97,2.14,1.89,3.14,2.76,1,.88,1.85,1.82,2.55,2.83.7,1.02,1.05,2.26,1.05,3.73,0,.46-.15,1.18-.46,2.14-.31.97-.68,1.91-1.11,2.83-.7,1.38-1.18,2.72-1.44,4.01-.26,1.29-.48,3.18-.66,5.67l-.13,6.08v3.04c-.09.92-.13,1.98-.13,3.18v3.73c-.18,1.02-.26,2.33-.26,3.94s.09,3.94.26,6.98v.83l.26,4.56c.09,2.21.2,4.01.33,5.39.13,1.38.28,2.63.46,3.73.17,1.11.41,2.17.72,3.18.3,1.02.67,2.21,1.11,3.59,1.48,3.78,2.25,6.11,2.29,6.98.04.88.07,1.36.07,1.45,0,1.48-.52,2.63-1.57,3.46-.35.28-.74.51-1.18.69-.44.19-1.05.32-1.83.42-.79.09-1.83.14-3.14.14h-5.63c-4.11,0-6.92-.04-8.45-.14-1.53-.09-2.55-.32-3.08-.69-.96-.74-1.46-1.61-1.51-2.63-.05-1.01-.07-1.57-.07-1.66,0-1.84.39-3.36,1.18-4.56Z"/>
        <path class="cls-4" d="m360.79,124.77c.17-2.67.87-5.3,2.1-7.88,1.22-2.58,2.97-4.91,5.24-6.98,2.27-2.07,5.11-3.66,8.51-4.77,8.73-2.86,13.1-6.5,13.1-10.92,0-.83-.26-1.73-.79-2.7-.52-.97-1.18-1.91-1.96-2.83-.79-.92-1.66-1.68-2.62-2.28-.96-.6-1.88-.9-2.75-.9-1.66,0-2.75.55-3.27,1.66-.18.28-.33,1.01-.46,2.21-.13,1.2-.2,2.44-.2,3.73,0,2.4-.48,4.54-1.44,6.43-.96,1.89-2.84,2.83-5.63,2.83-1.92,0-3.52-.44-4.78-1.31-1.27-.88-2.21-2.03-2.82-3.46-.61-1.43-.92-3.04-.92-4.84s.3-3.57.92-5.32c.79-2.12,1.92-3.94,3.41-5.46,1.48-1.52,3.14-2.76,4.98-3.73s3.8-1.68,5.89-2.14c2.1-.46,4.15-.69,6.16-.69,4.01,0,7.9.88,11.66,2.63,3.75,1.75,6.63,4.56,8.64,8.43,1.31,2.49,2.38,5.37,3.21,8.64.83,3.27,1.51,7.12,2.03,11.54.26,1.84.59,3.87.98,6.08.39,2.21.83,4.33,1.31,6.36.48,2.03.98,3.87,1.51,5.53.52,1.66.96,2.9,1.31,3.73.44.83,1,1.84,1.7,3.04.7,1.2,1.26,2.47,1.7,3.8.44,1.34.68,2.33.72,2.97.04.65.07,1.02.07,1.11,0,1.11-.39,2.07-1.18,2.9-.35.28-.7.51-1.05.69-.35.19-.81.32-1.38.42-.57.09-1.33.14-2.29.14h-4.06c-1.66,0-2.99-.02-4-.07-1-.05-1.86-.12-2.55-.21-.7-.09-1.29-.25-1.77-.48-.48-.23-.98-.53-1.51-.9-1.22-.74-2.31-1.8-3.27-3.18-.96-1.38-1.53-2.63-1.7-3.73,0-1.11-.35-1.66-1.05-1.66-.79,0-2.05.78-3.8,2.35-2.88,2.67-5.63,4.49-8.25,5.46-2.62.97-4.89,1.45-6.81,1.45-.96,0-1.92-.09-2.88-.28-2.36-.55-4.32-1.7-5.89-3.46-1.57-1.75-2.67-3.66-3.27-5.74-.61-2.07-.92-4.08-.92-6.01,0-.74.04-1.47.13-2.21Zm15.33,1.52c1.13,2.21,2.57,3.32,4.32,3.32,1.22,0,2.51-.44,3.86-1.31,1.35-.88,2.64-1.91,3.86-3.11,1.22-1.2,2.29-2.44,3.21-3.73.92-1.29,1.59-2.4,2.03-3.32.35-.74.54-1.4.59-2,.04-.6.07-1.13.07-1.59,0-.83-.04-1.84-.13-3.04-.18-2.03-.33-3.48-.46-4.35-.13-.88-.42-1.31-.85-1.31-.35,0-.76.19-1.24.55-.48.37-1.16.88-2.03,1.52-1.14.92-2.68,1.98-4.65,3.18-1.96,1.2-3.76,2.54-5.37,4.01-1.62,1.48-2.73,2.86-3.34,4.15-.61,1.29-.92,2.4-.92,3.32,0,1.2.35,2.44,1.05,3.73Z"/>
        <path class="cls-4" d="m409.78,77.76c.17-.28.48-.46.92-.55.44-.09,1.2-.16,2.29-.21,1.09-.05,2.58-.07,4.45-.07s4.34.05,7.4.14c3.84,0,6.85.05,9.04.14,2.18.09,3.8.25,4.85.48,1.05.23,1.7.58,1.96,1.04.26.46.39,1.11.39,1.94,0,.46-.15,1.13-.46,2-.31.88-.68,1.64-1.11,2.28-.87,1.38-1.46,2.65-1.77,3.8-.31,1.15-.46,2.28-.46,3.39,0,.65.07,1.59.2,2.83s.57,3.2,1.31,5.88c.74,2.67,1.77,5.94,3.08,9.82.87,2.67,1.64,5.07,2.29,7.19.66,2.12,1.03,3.32,1.11,3.59.26.74.52,1.11.79,1.11s.48-.23.66-.69c.52-1.11,1.22-2.92,2.1-5.46.87-2.53,1.72-5.21,2.55-8.02.83-2.81,1.55-5.41,2.16-7.81.61-2.4.92-4.01.92-4.84,0-3.32-1.57-6.45-4.71-9.4-.52-.55-1.05-1.22-1.57-2-.52-.78-.85-1.45-.98-2s-.2-.97-.2-1.24c0-.55.13-1.15.39-1.8.26-.64.92-1.2,1.96-1.66.26-.18,1.62-.28,4.06-.28h17.03c1.92,0,3.1.14,3.54.42.35.37.52.92.52,1.66,0,.55-.22,1.5-.66,2.83-.44,1.34-1.53,3.07-3.27,5.18-.79.92-1.46,1.8-2.03,2.63-.57.83-1.24,2.19-2.03,4.08-.79,1.89-1.75,4.49-2.88,7.81l-4.98,13.83c-2.18,6.36-4.37,12.77-6.55,19.22-2.18,6.45-4.32,12.72-6.42,18.8-.87,2.58-1.92,5.05-3.14,7.4-1.22,2.35-2.69,4.42-4.39,6.22-1.7,1.8-3.67,3.22-5.89,4.29-2.23,1.06-4.78,1.59-7.66,1.59-3.49,0-6.51-1.04-9.04-3.11-2.53-2.07-4.24-4.49-5.11-7.26-.26-.92-.39-2.03-.39-3.32,0-.19.02-.69.07-1.52.04-.83.41-1.94,1.11-3.32.7-1.38,1.72-2.54,3.08-3.46,1.35-.92,3.21-1.38,5.57-1.38,1.48,0,2.53.32,3.14.97.61.64.92,1.43.92,2.35,0,.37-.04.78-.13,1.25-.09.64-.33,1.15-.72,1.52-.39.37-.77.71-1.11,1.04-.35.32-.61.64-.79.97-.18.32-.26.67-.26,1.04v.55c.26,1.47,1.26,2.21,3.01,2.21,1.48,0,3.19-.65,5.11-1.93,1.92-1.29,3.49-3.04,4.71-5.25.96-1.75,1.66-3.2,2.1-4.35.44-1.15.68-1.96.72-2.42.04-.46.07-.78.07-.97,0-.65-.13-1.27-.39-1.87-.26-.6-.52-1.36-.79-2.28-.18-.64-.63-2.12-1.38-4.42-.74-2.3-1.62-5.05-2.62-8.23-1-3.18-2.1-6.57-3.27-10.16-1.18-3.59-2.31-7.03-3.41-10.3-1.09-3.27-2.1-6.13-3.01-8.57-.92-2.44-1.59-4.08-2.03-4.91-.61-1.29-1.38-2.6-2.29-3.94-.92-1.33-2.51-3.25-4.78-5.74-2.36-2.86-3.54-5.16-3.54-6.91,0-.64.22-1.24.65-1.8Z"/>
      </g>
    </g>
  </g>
</svg>