<?xml version="1.0" encoding="UTF-8"?>
<svg id="timer" xmlns="http://www.w3.org/2000/svg" viewBox="0 0 48 510">
  <defs>
    <style>
      .cls-1 {
        fill: #ff9ee0;
      }

      .cls-2 {
        fill: #f50096;
      }

      .cls-3 {
        fill: #d92bac;
      }
    </style>
  </defs>
  <path class="cls-3" d="m40.55,507H6.44c-2.17,0-3.94-1.6-3.94-3.55V6.55c0-1.95,1.77-3.55,3.94-3.55h34.11c2.17,0,3.94,1.6,3.94,3.55v496.91c0,1.95-1.77,3.55-3.94,3.55Z"/>
  <path class="cls-2" d="m37.31,507s7.18-.53,7.18-3.55V6.55s.6-2.73-7.18-3.55h-7.84s-11.57,0-9.91,15.6v477.73s-2.73,10.67,17.75,10.67Z"/>
  <path class="cls-1" d="m29.08,7.38l-17.37.34s-5.23-.43-4.71,9.33c.03.57.06,1.15.06,1.72l.09,21.99s1.83,36.94,6.82-16.73c0,0,.16-9.07,11.09-9.8,7.04-.47,14.93-7.58,4.01-6.85Z"/>
  <path class="cls-1" d="m17.69,502.9l17.37-.06s5.22.51,4.9-9.25c-.02-.57-.04-1.15-.03-1.73l.35-21.99s-1.08-36.96-7.16,16.62c0,0-.35,9.06-11.29,9.61-7.05.36-15.09,7.34-4.15,6.79Z"/>
</svg>